# Blender v3.2.0 OBJ File: 'Props3Scaled.blend'
# www.blender.org
mtllib Baloon.mtl
o Baloon_Sphere.001
v 0.000000 0.154510 -0.035405
v 0.000000 0.122242 -0.076347
v 0.000000 0.078164 -0.088157
v 0.000000 0.034085 -0.076347
v 0.000000 0.001817 -0.044079
v 0.025035 0.154510 -0.025035
v 0.053985 0.122242 -0.053985
v 0.062337 0.078164 -0.062337
v 0.053985 0.034085 -0.053985
v 0.031168 0.001817 -0.031168
v 0.000000 0.001599 0.000000
v 0.035405 0.154510 0.000000
v 0.076347 0.122242 0.000000
v 0.088157 0.078164 0.000000
v 0.076347 0.034085 0.000000
v 0.044079 0.001817 0.000000
v 0.025035 0.154510 0.025035
v 0.053985 0.122242 0.053985
v 0.062337 0.078164 0.062337
v 0.053985 0.034085 0.053985
v 0.031168 0.001817 0.031168
v -0.000000 0.154510 0.035405
v 0.000000 0.122242 0.076347
v 0.000000 0.078164 0.088157
v 0.000000 0.034085 0.076347
v 0.000000 0.001817 0.044079
v -0.025035 0.154510 0.025035
v -0.053985 0.122242 0.053985
v -0.062337 0.078164 0.062337
v -0.053985 0.034085 0.053985
v -0.031168 0.001817 0.031168
v -0.035405 0.154510 0.000000
v -0.076347 0.122242 0.000000
v -0.088157 0.078164 0.000000
v -0.076347 0.034085 0.000000
v -0.044079 0.001817 0.000000
v -0.025035 0.154510 -0.025035
v -0.053985 0.122242 -0.053985
v -0.062337 0.078164 -0.062337
v -0.053985 0.034085 -0.053985
v -0.031168 0.001817 -0.031168
v 0.000000 0.187647 -0.022133
v 0.015651 0.187647 -0.015651
v 0.022133 0.187647 0.000000
v 0.015651 0.187647 0.015651
v -0.000000 0.187647 0.022133
v -0.015651 0.187647 0.015651
v -0.022133 0.187647 0.000000
v -0.015651 0.187647 -0.015651
v 0.000000 0.215260 -0.022591
v 0.015974 0.215260 -0.015974
v 0.022591 0.215260 0.000000
v 0.015974 0.215260 0.015974
v -0.000000 0.215260 0.022591
v -0.015974 0.215260 0.015974
v -0.022591 0.215260 0.000000
v -0.015974 0.215260 -0.015974
v 0.000000 0.226306 -0.015872
v 0.011224 0.226306 -0.011224
v 0.015872 0.226306 0.000000
v 0.011224 0.226306 0.011224
v -0.000000 0.226306 0.015873
v -0.011224 0.226306 0.011224
v -0.015872 0.226306 0.000000
v -0.011224 0.226306 -0.011224
v 0.000000 0.215260 -0.028809
v 0.020371 0.215260 -0.020371
v 0.028809 0.215260 0.000000
v 0.020371 0.215260 0.020371
v -0.000000 0.215260 0.028809
v -0.020371 0.215260 0.020371
v -0.028809 0.215260 0.000000
v -0.020371 0.215260 -0.020371
v 0.000000 0.226306 -0.028809
v 0.020371 0.226306 -0.020371
v 0.028809 0.226306 0.000000
v 0.020371 0.226306 0.020371
v -0.000000 0.226306 0.028809
v -0.020371 0.226306 0.020371
v -0.028809 0.226306 0.000000
v -0.020371 0.226306 -0.020371
v 0.000000 0.176601 -0.015872
v 0.011224 0.176601 -0.011224
v 0.015872 0.176601 0.000000
v 0.011224 0.176601 0.011224
v -0.000000 0.176601 0.015873
v -0.011224 0.176601 0.011224
v -0.015872 0.176601 0.000000
v -0.011224 0.176601 -0.011224
vt 0.575248 0.542694
vt 0.580178 0.555841
vt 0.570318 0.555841
vt 0.580178 0.568988
vt 0.580178 0.582135
vt 0.570318 0.582135
vt 0.570318 0.568988
vt 0.580178 0.595282
vt 0.580178 0.608429
vt 0.570318 0.608429
vt 0.570318 0.595282
vt 0.560458 0.582135
vt 0.560458 0.568988
vt 0.560458 0.608429
vt 0.560458 0.595282
vt 0.560458 0.555841
vt 0.565388 0.542694
vt 0.550597 0.608429
vt 0.550597 0.595282
vt 0.550597 0.568988
vt 0.550597 0.555841
vt 0.550597 0.582135
vt 0.555528 0.542694
vt 0.540737 0.568988
vt 0.540737 0.555841
vt 0.540737 0.595282
vt 0.540737 0.582135
vt 0.545667 0.542694
vt 0.540737 0.608429
vt 0.530877 0.568988
vt 0.530877 0.555841
vt 0.530877 0.595282
vt 0.530877 0.582135
vt 0.535807 0.542694
vt 0.530877 0.608429
vt 0.521017 0.568988
vt 0.521017 0.555841
vt 0.521017 0.595282
vt 0.521017 0.582135
vt 0.525947 0.542694
vt 0.521017 0.608429
vt 0.599899 0.555841
vt 0.599899 0.568988
vt 0.590038 0.568988
vt 0.590038 0.555841
vt 0.599899 0.582135
vt 0.599899 0.595282
vt 0.590038 0.595282
vt 0.590038 0.582135
vt 0.594968 0.542694
vt 0.599899 0.608429
vt 0.590038 0.608429
vt 0.585108 0.542694
vt 0.550597 0.608429
vt 0.540737 0.608429
vt 0.530877 0.608429
vt 0.521017 0.608429
vt 0.599899 0.608429
vt 0.590038 0.608429
vt 0.570318 0.608429
vt 0.560458 0.608429
vt 0.580178 0.608429
vt 0.599899 0.608429
vt 0.590038 0.608429
vt 0.540737 0.608429
vt 0.530877 0.608429
vt 0.560458 0.608429
vt 0.550597 0.608429
vt 0.580178 0.608429
vt 0.570318 0.608429
vt 0.521017 0.608429
vt 0.521017 0.542694
vt 0.521017 0.542694
vt 0.521017 0.542694
vt 0.521017 0.542694
vt 0.590038 0.608429
vt 0.580178 0.608429
vt 0.521017 0.542694
vt 0.521017 0.542694
vt 0.599899 0.608429
vt 0.521017 0.542694
vt 0.521017 0.542694
vt 0.530877 0.608429
vt 0.521017 0.608429
vt 0.521017 0.542694
vt 0.521017 0.542694
vt 0.540737 0.608429
vt 0.560458 0.608429
vt 0.570318 0.608429
vt 0.570318 0.608429
vt 0.560458 0.608429
vt 0.599899 0.608429
vt 0.590038 0.608429
vt 0.540737 0.608429
vt 0.530877 0.608429
vt 0.550597 0.608429
vt 0.550597 0.608429
vt 0.580178 0.608429
vt 0.521017 0.608429
vt 0.521017 0.542694
vt 0.521017 0.542694
vt 0.521017 0.542694
vt 0.521017 0.542694
vt 0.521017 0.542694
vt 0.521017 0.542694
vt 0.521017 0.542694
vt 0.521017 0.542694
vt 0.521017 0.542694
vt 0.521017 0.542694
vt 0.521017 0.542694
vt 0.521017 0.542694
vt 0.521017 0.542694
vt 0.521017 0.542694
vn -0.0000 -1.0000 0.0000
vn -0.0000 -1.0000 -0.0049
vn 0.0035 -1.0000 -0.0035
vn -0.0000 -0.4744 -0.8803
vn 0.3827 -0.0000 -0.9239
vn 0.6225 -0.4744 -0.6225
vn -0.0000 0.7854 -0.6190
vn -0.0000 0.6313 -0.7755
vn 0.5484 0.6313 -0.5484
vn 0.4377 0.7854 -0.4377
vn -0.0000 -0.7071 -0.7071
vn 0.5000 -0.7071 -0.5000
vn 0.3715 0.2403 -0.8968
vn 0.9239 -0.0000 -0.3827
vn 0.8803 -0.4744 -0.0000
vn 0.7755 0.6313 -0.0000
vn 0.6190 0.7854 0.0000
vn 0.7071 -0.7071 0.0000
vn 0.8968 0.2403 -0.3715
vn 0.0049 -1.0000 0.0000
vn 0.5484 0.6313 0.5484
vn 0.4377 0.7854 0.4377
vn 0.6225 -0.4744 0.6225
vn 0.5000 -0.7071 0.5000
vn 0.9239 0.0000 0.3827
vn 0.8968 0.2403 0.3715
vn 0.0035 -1.0000 0.0035
vn -0.0000 -0.4744 0.8803
vn -0.0000 -0.7071 0.7071
vn 0.3827 0.0000 0.9239
vn 0.3715 0.2403 0.8968
vn 0.0000 -1.0000 0.0049
vn -0.0000 0.6313 0.7755
vn 0.0000 0.7854 0.6190
vn -0.6225 -0.4744 0.6225
vn -0.5000 -0.7071 0.5000
vn -0.3827 -0.0000 0.9239
vn -0.3715 0.2403 0.8968
vn -0.0035 -1.0000 0.0035
vn -0.5484 0.6313 0.5484
vn -0.4377 0.7854 0.4377
vn -0.8803 -0.4744 -0.0000
vn -0.7071 -0.7071 -0.0000
vn -0.9239 -0.0000 0.3827
vn -0.8968 0.2403 0.3715
vn -0.0049 -1.0000 -0.0000
vn -0.7755 0.6313 0.0000
vn -0.6190 0.7854 -0.0000
vn -0.6225 -0.4744 -0.6225
vn -0.5000 -0.7071 -0.5000
vn -0.9239 -0.0000 -0.3827
vn -0.8968 0.2403 -0.3715
vn -0.0035 -1.0000 -0.0035
vn -0.5484 0.6313 -0.5484
vn -0.4377 0.7854 -0.4377
vn -0.3827 -0.0000 -0.9239
vn -0.3715 0.2403 -0.8968
vn 0.3767 0.1764 0.9094
vn -0.3767 0.1764 0.9094
vn -0.9094 0.1764 0.3767
vn -0.9094 0.1764 -0.3767
vn 0.9094 0.1764 -0.3767
vn 0.9094 0.1764 0.3767
vn 0.3767 0.1764 -0.9094
vn -0.3767 0.1764 -0.9094
vn -0.9238 -0.0153 -0.3826
vn -0.3826 -0.0153 0.9238
vn 0.9238 -0.0153 0.3826
vn 0.3826 -0.0153 -0.9238
vn -0.3826 -0.0153 -0.9238
vn -0.9238 -0.0153 0.3826
vn 0.3826 -0.0153 0.9238
vn 0.9238 -0.0153 -0.3826
vn 0.0000 1.0000 -0.0000
usemtl MAT_Atlas
s 1
f 11/1/1 5/2/2 10/3/3
f 4/4/4 3/5/5 8/6/5 9/7/6
f 2/8/7 1/9/8 6/10/9 7/11/10
f 5/2/11 4/4/4 9/7/6 10/3/12
f 3/5/5 2/8/13 7/11/13 8/6/5
f 9/7/6 8/6/14 14/12/14 15/13/15
f 7/11/10 6/10/9 12/14/16 13/15/17
f 10/3/12 9/7/6 15/13/15 16/16/18
f 8/6/14 7/11/19 13/15/19 14/12/14
f 11/17/1 10/3/3 16/16/20
f 13/15/17 12/14/16 17/18/21 18/19/22
f 16/16/18 15/13/15 20/20/23 21/21/24
f 14/12/25 13/15/26 18/19/26 19/22/25
f 11/23/1 16/16/20 21/21/27
f 15/13/15 14/12/25 19/22/25 20/20/23
f 21/21/24 20/20/23 25/24/28 26/25/29
f 19/22/30 18/19/31 23/26/31 24/27/30
f 11/28/1 21/21/27 26/25/32
f 20/20/23 19/22/30 24/27/30 25/24/28
f 18/19/22 17/18/21 22/29/33 23/26/34
f 26/25/29 25/24/28 30/30/35 31/31/36
f 24/27/37 23/26/38 28/32/38 29/33/37
f 11/34/1 26/25/32 31/31/39
f 25/24/28 24/27/37 29/33/37 30/30/35
f 23/26/34 22/29/33 27/35/40 28/32/41
f 31/31/36 30/30/35 35/36/42 36/37/43
f 29/33/44 28/32/45 33/38/45 34/39/44
f 11/40/1 31/31/39 36/37/46
f 30/30/35 29/33/44 34/39/44 35/36/42
f 28/32/41 27/35/40 32/41/47 33/38/48
f 36/42/43 35/43/42 40/44/49 41/45/50
f 34/46/51 33/47/52 38/48/52 39/49/51
f 11/50/1 36/42/46 41/45/53
f 35/43/42 34/46/51 39/49/51 40/44/49
f 33/47/48 32/51/47 37/52/54 38/48/55
f 39/49/56 38/48/57 2/8/57 3/5/56
f 11/53/1 41/45/53 5/2/2
f 40/44/49 39/49/56 3/5/56 4/4/4
f 38/48/55 37/52/54 1/9/8 2/8/7
f 41/45/50 40/44/49 4/4/4 5/2/11
f 22/29/33 17/18/21 45/54/58 46/55/58
f 27/35/40 22/29/33 46/55/59 47/56/59
f 32/41/47 27/35/40 47/56/60 48/57/60
f 37/52/54 32/51/47 48/58/61 49/59/61
f 12/14/16 6/10/9 43/60/62 44/61/62
f 17/18/21 12/14/16 44/61/63 45/54/63
f 6/10/9 1/9/8 42/62/64 43/60/64
f 1/9/8 37/52/54 49/59/65 42/62/65
f 49/59/61 48/58/61 56/63/66 57/64/66
f 47/56/59 46/55/59 54/65/67 55/66/67
f 45/54/63 44/61/63 52/67/68 53/68/68
f 43/60/64 42/62/64 50/69/69 51/70/69
f 42/62/65 49/59/65 57/64/70 50/69/70
f 48/57/60 47/56/60 55/66/71 56/71/71
f 46/55/58 45/54/58 53/68/72 54/65/72
f 44/61/62 43/60/62 51/70/73 52/67/73
f 64/72/74 65/73/74 81/74/74 80/75/74
f 50/69/1 57/64/1 73/76/1 66/77/1
f 63/78/74 64/72/74 80/75/74 79/79/74
f 57/64/1 56/63/1 72/80/1 73/76/1
f 62/81/74 63/78/74 79/79/74 78/82/74
f 56/71/1 55/66/1 71/83/1 72/84/1
f 61/85/74 62/81/74 78/82/74 77/86/74
f 55/66/1 54/65/1 70/87/1 71/83/1
f 68/88/14 67/89/14 75/90/14 76/91/14
f 73/76/51 72/80/51 80/92/51 81/93/51
f 71/83/37 70/87/37 78/94/37 79/95/37
f 69/96/25 68/88/25 76/91/25 77/97/25
f 67/89/5 66/77/5 74/98/5 75/90/5
f 66/77/56 73/76/56 81/93/56 74/98/56
f 72/84/44 71/83/44 79/95/44 80/99/44
f 70/87/30 69/96/30 77/97/30 78/94/30
f 51/70/1 50/69/1 66/77/1 67/89/1
f 65/73/74 58/100/74 74/101/74 81/74/74
f 52/67/1 51/70/1 67/89/1 68/88/1
f 58/100/74 59/102/74 75/103/74 74/101/74
f 53/68/1 52/67/1 68/88/1 69/96/1
f 59/102/74 60/104/74 76/105/74 75/103/74
f 54/65/1 53/68/1 69/96/1 70/87/1
f 60/104/74 61/85/74 77/86/74 76/105/74
f 62/81/56 61/85/56 85/106/56 86/107/56
f 60/104/44 59/102/44 83/108/44 84/109/44
f 65/73/25 64/72/25 88/110/25 89/111/25
f 63/78/5 62/81/5 86/107/5 87/112/5
f 61/85/51 60/104/51 84/109/51 85/106/51
f 59/102/37 58/100/37 82/113/37 83/108/37
f 58/100/30 65/73/30 89/111/30 82/113/30
f 64/72/14 63/78/14 87/112/14 88/110/14
