# Blender v3.2.0 OBJ File: 'Props3Scaled.blend'
# www.blender.org
mtllib Carpet.mtl
o Plane_Plane.013
v -1.732565 0.000000 1.000000
v 1.732565 0.000000 1.000000
v -1.732565 0.000000 -1.000000
v 1.732565 0.000000 -1.000000
v -1.570765 0.000000 1.000000
v -1.570765 0.000000 -1.000000
v 1.504471 0.000000 1.000000
v 1.504471 0.000000 -1.000000
v -1.732565 0.000000 -0.823336
v 1.732565 0.000000 -0.823336
v -1.570765 0.019918 -0.823336
v 1.504471 0.019918 -0.823336
v -1.732565 0.000000 0.818807
v 1.732565 0.000000 0.818807
v -1.570765 0.019918 0.818807
v 1.504471 0.019918 0.818807
vt 0.742646 0.173698
vt 0.759230 0.173698
vt 0.759230 0.189687
vt 0.742646 0.189687
vt 0.507299 0.173698
vt 0.519062 0.173698
vt 0.519062 0.189687
vt 0.507299 0.189687
vt 0.519062 0.025076
vt 0.742646 0.025076
vt 0.507299 0.025076
vt 0.759230 0.025076
vt 0.742646 0.008677
vt 0.759230 0.008677
vt 0.507299 0.008677
vt 0.519062 0.008677
vn 0.0436 0.9975 -0.0562
vn -0.0613 0.9965 -0.0562
vn 0.0000 0.9937 -0.1120
vn 0.0000 1.0000 0.0000
vn -0.1222 0.9925 0.0000
vn 0.0870 0.9962 0.0000
vn 0.0436 0.9975 0.0548
vn -0.0613 0.9966 0.0548
vn 0.0000 0.9940 0.1093
usemtl MAT_Atlas
s off
f 12/1/1 10/2/1 4/3/1 8/4/1
f 9/5/2 11/6/2 6/7/2 3/8/2
f 11/6/3 12/1/3 8/4/3 6/7/3
f 15/9/4 16/10/4 12/1/4 11/6/4
f 13/11/5 15/9/5 11/6/5 9/5/5
f 16/10/6 14/12/6 10/2/6 12/1/6
f 7/13/7 2/14/7 14/12/7 16/10/7
f 1/15/8 5/16/8 15/9/8 13/11/8
f 5/16/9 7/13/9 16/10/9 15/9/9
