# Blender v3.2.0 OBJ File: 'Props3Scaled.blend'
# www.blender.org
mtllib Crane.mtl
o Crane_Cube.008
v -0.004374 -0.004374 0.004374
v -0.004374 0.580906 0.004374
v -0.004374 -0.004374 -0.004374
v -0.004374 0.580906 -0.004374
v 0.004375 -0.004374 0.004374
v 0.004375 0.580906 0.004374
v 0.004375 -0.004374 -0.004374
v 0.004375 0.580906 -0.004374
v -0.001063 -0.008427 0.000000
v -0.001063 0.000034 0.000000
v -0.001063 -0.008427 -0.119114
v -0.001063 0.000034 -0.119114
v 0.068950 -0.008427 -0.096366
v 0.068950 0.000034 -0.096366
v 0.112221 -0.008427 -0.036808
v 0.112221 0.000034 -0.036808
v 0.112221 -0.008427 0.036808
v 0.112221 0.000034 0.036808
v 0.068950 -0.008427 0.096366
v 0.068950 0.000034 0.096366
v -0.001063 -0.008427 0.119114
v -0.001063 0.000034 0.119114
v -0.071077 -0.008427 0.096366
v -0.071077 0.000034 0.096366
v -0.114348 -0.008427 0.036808
v -0.114348 0.000034 0.036808
v -0.114348 -0.008427 -0.036808
v -0.114348 0.000034 -0.036808
v -0.071077 -0.008427 -0.096366
v -0.071077 0.000034 -0.096366
v -0.121715 0.430584 0.004003
v 0.055171 0.430584 0.004003
v -0.121715 0.430584 -0.004003
v 0.055171 0.430584 -0.004003
v -0.121715 0.422577 0.004003
v 0.055171 0.422577 0.004003
v -0.121715 0.422577 -0.004003
v 0.055171 0.422577 -0.004003
v -0.007717 0.410137 0.007718
v -0.007717 0.442361 0.007718
v -0.007717 0.410137 -0.007718
v -0.007717 0.442361 -0.007718
v 0.007718 0.410137 0.007718
v 0.007718 0.442361 0.007718
v 0.007718 0.410137 -0.007718
v 0.007718 0.442361 -0.007718
v 0.045312 0.423606 0.021916
v 0.045312 0.448291 0.001202
v 0.045312 0.404208 -0.001202
v 0.045312 0.428893 -0.021916
v 0.051851 0.423606 0.021916
v 0.051851 0.448291 0.001202
v 0.051851 0.404208 -0.001202
v 0.051851 0.428893 -0.021916
v -0.118087 0.431866 0.000000
v -0.130420 0.431866 0.000000
v -0.130420 0.422008 0.000000
v -0.118087 0.422008 0.000000
v -0.128686 0.431866 -0.032622
v -0.138664 0.431866 -0.025373
v -0.138664 0.422008 -0.025373
v -0.128686 0.422008 -0.032622
v -0.156436 0.431866 -0.052784
v -0.160247 0.431866 -0.041054
v -0.160247 0.422008 -0.041054
v -0.156436 0.422008 -0.052784
v -0.190737 0.431866 -0.052784
v -0.186926 0.431866 -0.041054
v -0.186926 0.422008 -0.041054
v -0.190737 0.422008 -0.052784
v -0.218487 0.431866 -0.032622
v -0.208509 0.431866 -0.025373
v -0.208509 0.422008 -0.025373
v -0.218487 0.422008 -0.032622
v -0.229087 0.431866 -0.000000
v -0.216753 0.431866 -0.000000
v -0.216753 0.422008 -0.000000
v -0.229087 0.422008 -0.000000
v -0.218487 0.431866 0.032622
v -0.208509 0.431866 0.025373
v -0.208509 0.422008 0.025373
v -0.218487 0.422008 0.032622
v -0.190737 0.431866 0.052784
v -0.186926 0.431866 0.041054
v -0.186926 0.422008 0.041054
v -0.190737 0.422008 0.052784
v -0.156436 0.431866 0.052784
v -0.160247 0.431866 0.041054
v -0.160247 0.422008 0.041054
v -0.156436 0.422008 0.052784
v -0.128686 0.431866 0.032622
v -0.138664 0.431866 0.025373
v -0.138664 0.422008 0.025373
v -0.128686 0.422008 0.032622
v -0.174581 0.262176 -0.011363
v -0.174581 0.439198 -0.053373
v -0.174581 0.470013 -0.061630
v -0.174581 0.500828 -0.053373
v -0.174581 0.523386 -0.026082
v -0.182616 0.262176 -0.008035
v -0.212322 0.439198 -0.037741
v -0.218160 0.470013 -0.043579
v -0.212322 0.500828 -0.037741
v -0.193024 0.523386 -0.018443
v -0.174581 0.530709 -0.012134
v -0.185944 0.262176 0.000000
v -0.227954 0.439198 0.000000
v -0.236211 0.470013 0.000000
v -0.227955 0.500828 0.000000
v -0.200663 0.523386 -0.000000
v -0.182616 0.262176 0.008035
v -0.212322 0.439198 0.037741
v -0.218160 0.470013 0.043579
v -0.212322 0.500828 0.037741
v -0.193024 0.523386 0.018443
v -0.174581 0.262176 0.011363
v -0.174581 0.439198 0.053373
v -0.174581 0.470013 0.061630
v -0.174581 0.500828 0.053373
v -0.174581 0.523386 0.026082
v -0.166546 0.262176 0.008035
v -0.136841 0.439198 0.037741
v -0.131002 0.470013 0.043579
v -0.136841 0.500828 0.037741
v -0.156139 0.523386 0.018443
v -0.163218 0.262176 0.000000
v -0.121208 0.439198 0.000000
v -0.112951 0.470013 0.000000
v -0.121208 0.500828 0.000000
v -0.148499 0.523386 -0.000000
v -0.166546 0.262176 -0.008035
v -0.136841 0.439198 -0.037741
v -0.131002 0.470013 -0.043579
v -0.136841 0.500828 -0.037741
v -0.156139 0.523386 -0.018443
v -0.174581 0.203418 -0.009048
v -0.180979 0.203418 -0.006398
v -0.183629 0.203418 0.000000
v -0.180979 0.203418 0.006398
v -0.174581 0.203418 0.009048
v -0.168183 0.203418 0.006398
v -0.165533 0.203418 0.000000
v -0.168183 0.203418 -0.006398
v -0.174581 0.125826 -0.009235
v -0.181112 0.125826 -0.006530
v -0.183817 0.125826 0.000000
v -0.181112 0.125826 0.006530
v -0.174581 0.125826 0.009235
v -0.168051 0.125826 0.006530
v -0.165346 0.125826 0.000000
v -0.168051 0.125826 -0.006530
v -0.174581 0.118105 -0.006489
v -0.179169 0.118105 -0.004588
v -0.181070 0.118105 0.000000
v -0.179169 0.118105 0.004588
v -0.174581 0.118105 0.006489
v -0.169993 0.118105 0.004588
v -0.168092 0.118105 0.000000
v -0.169993 0.118105 -0.004588
v -0.174581 0.125826 -0.011777
v -0.182909 0.125826 -0.008328
v -0.186358 0.125826 0.000000
v -0.182909 0.125826 0.008328
v -0.174581 0.125826 0.011777
v -0.166253 0.125826 0.008328
v -0.162804 0.125826 0.000000
v -0.166253 0.125826 -0.008328
v -0.174581 0.118105 -0.011777
v -0.182909 0.118105 -0.008328
v -0.186358 0.118105 0.000000
v -0.182909 0.118105 0.008328
v -0.174581 0.118105 0.011777
v -0.166253 0.118105 0.008328
v -0.162804 0.118105 0.000000
v -0.166253 0.118105 -0.008328
v -0.183161 0.530709 -0.008580
v -0.186715 0.530709 -0.000000
v -0.183161 0.530709 0.008580
v -0.174581 0.530709 0.012134
v -0.166001 0.530709 0.008580
v -0.162447 0.530709 -0.000000
v -0.166001 0.530709 -0.008580
v -0.174581 0.565726 -0.015452
v -0.185507 0.565726 -0.010926
v -0.190033 0.565726 -0.000000
v -0.185507 0.565726 0.010926
v -0.174581 0.565726 0.015452
v -0.163655 0.565726 0.010926
v -0.159130 0.565726 -0.000000
v -0.163655 0.565726 -0.010926
v -0.174581 0.565726 -0.011343
v -0.182602 0.565726 -0.008020
v -0.185924 0.565726 -0.000000
v -0.182602 0.565726 0.008020
v -0.174581 0.565726 0.011343
v -0.166561 0.565726 0.008020
v -0.163239 0.565726 -0.000000
v -0.166561 0.565726 -0.008020
vt 0.227699 0.387270
vt 0.227699 0.495248
vt 0.226085 0.495248
vt 0.226085 0.387270
vt 0.229313 0.387270
vt 0.229313 0.495248
vt 0.227699 0.495248
vt 0.227699 0.387270
vt 0.226085 0.387270
vt 0.226085 0.495248
vt 0.224471 0.495248
vt 0.224471 0.387270
vt 0.230927 0.387270
vt 0.230927 0.495248
vt 0.229313 0.495248
vt 0.229313 0.387270
vt 0.161771 0.409245
vt 0.174688 0.427024
vt 0.161771 0.431221
vt 0.186290 0.431221
vt 0.187904 0.431221
vt 0.187904 0.432835
vt 0.186290 0.432835
vt 0.203571 0.409245
vt 0.224471 0.416036
vt 0.216488 0.427024
vt 0.151463 0.444137
vt 0.149902 0.444137
vt 0.149902 0.431221
vt 0.151463 0.431221
vt 0.148854 0.427024
vt 0.224471 0.402455
vt 0.142432 0.466778
vt 0.140871 0.466778
vt 0.140871 0.455790
vt 0.142432 0.455790
vt 0.140871 0.416036
vt 0.216488 0.391467
vt 0.140871 0.442208
vt 0.142432 0.442208
vt 0.140871 0.402455
vt 0.203571 0.387270
vt 0.140871 0.431221
vt 0.142432 0.431221
vt 0.148854 0.391467
vt 0.190654 0.391467
vt 0.153024 0.457054
vt 0.151463 0.457054
vt 0.151463 0.444137
vt 0.153024 0.444137
vt 0.161771 0.387270
vt 0.182671 0.402455
vt 0.151463 0.431221
vt 0.153024 0.431221
vt 0.174688 0.391467
vt 0.182671 0.416036
vt 0.143994 0.466778
vt 0.142432 0.466778
vt 0.142432 0.455790
vt 0.143994 0.455790
vt 0.182671 0.402455
vt 0.190654 0.427024
vt 0.142432 0.442208
vt 0.143994 0.442208
vt 0.182671 0.416036
vt 0.203571 0.431221
vt 0.142432 0.431221
vt 0.143994 0.431221
vt 0.151463 0.457054
vt 0.149902 0.457054
vt 0.145471 0.431221
vt 0.145471 0.463854
vt 0.143994 0.463854
vt 0.143994 0.431221
vt 0.148425 0.431221
vt 0.148425 0.463854
vt 0.146948 0.463854
vt 0.146948 0.431221
vt 0.145471 0.463854
vt 0.145471 0.431221
vt 0.146948 0.431221
vt 0.146948 0.463854
vt 0.148425 0.463854
vt 0.148425 0.431221
vt 0.149902 0.431221
vt 0.149902 0.463854
vt 0.187767 0.434312
vt 0.186290 0.434312
vt 0.186290 0.432835
vt 0.187767 0.432835
vt 0.169855 0.431221
vt 0.169855 0.437166
vt 0.167007 0.437166
vt 0.167007 0.431221
vt 0.175550 0.431221
vt 0.175550 0.437166
vt 0.172702 0.437166
vt 0.172702 0.431221
vt 0.167007 0.431221
vt 0.167007 0.437166
vt 0.164160 0.437166
vt 0.164160 0.431221
vt 0.172702 0.431221
vt 0.172702 0.437166
vt 0.175550 0.431221
vt 0.178398 0.431221
vt 0.178398 0.434068
vt 0.175550 0.434068
vt 0.178398 0.434068
vt 0.178398 0.431221
vt 0.181245 0.431221
vt 0.181245 0.434068
vt 0.164160 0.431221
vt 0.164160 0.437166
vt 0.158592 0.437166
vt 0.158592 0.431221
vt 0.182452 0.431221
vt 0.182452 0.435775
vt 0.181245 0.435775
vt 0.181245 0.431221
vt 0.158592 0.431221
vt 0.158592 0.437166
vt 0.153024 0.437166
vt 0.153024 0.431221
vt 0.183877 0.431221
vt 0.183877 0.435775
vt 0.182671 0.435775
vt 0.182671 0.431221
vt 0.183877 0.431221
vt 0.185084 0.431221
vt 0.185084 0.435486
vt 0.183877 0.435486
vt 0.185084 0.435486
vt 0.185084 0.431221
vt 0.186290 0.431221
vt 0.186290 0.435486
vt 0.209269 0.431040
vt 0.220684 0.431040
vt 0.220684 0.469088
vt 0.209269 0.469088
vt 0.197855 0.469088
vt 0.209269 0.488112
vt 0.197855 0.488112
vt 0.197855 0.412015
vt 0.186440 0.412015
vt 0.186440 0.488112
vt 0.209269 0.412015
vt 0.197855 0.431040
vt 0.232098 0.431040
vt 0.232098 0.469088
vt 0.220684 0.488112
vt 0.175026 0.412015
vt 0.175026 0.488112
vt 0.220684 0.412015
vt 0.243513 0.431040
vt 0.243513 0.469088
vt 0.232098 0.488112
vt 0.232098 0.412015
vt 0.129368 0.431040
vt 0.140783 0.431040
vt 0.140783 0.469088
vt 0.129368 0.469088
vt 0.243513 0.488112
vt 0.243513 0.412015
vt 0.152197 0.431040
vt 0.152197 0.469088
vt 0.140783 0.488112
vt 0.129368 0.488112
vt 0.163612 0.412015
vt 0.152197 0.412015
vt 0.152197 0.488112
vt 0.163612 0.488112
vt 0.129368 0.412015
vt 0.140783 0.412015
vt 0.163612 0.431040
vt 0.163612 0.469088
vt 0.175026 0.431040
vt 0.175026 0.469088
vt 0.186440 0.431040
vt 0.186440 0.469088
vt 0.554009 0.564001
vt 0.548574 0.564001
vt 0.548574 0.564001
vt 0.554009 0.564001
vt 0.581182 0.571247
vt 0.581182 0.578493
vt 0.575747 0.578493
vt 0.575747 0.571247
vt 0.581182 0.585739
vt 0.581182 0.592985
vt 0.575747 0.592985
vt 0.575747 0.585739
vt 0.581182 0.564001
vt 0.575747 0.564001
vt 0.570312 0.578493
vt 0.570312 0.571247
vt 0.570312 0.592985
vt 0.570312 0.585739
vt 0.570312 0.564001
vt 0.592051 0.564001
vt 0.586616 0.564001
vt 0.586616 0.564001
vt 0.592051 0.564001
vt 0.564878 0.592985
vt 0.564878 0.585739
vt 0.564878 0.571247
vt 0.564878 0.564001
vt 0.564878 0.578493
vt 0.581182 0.564001
vt 0.559443 0.571247
vt 0.559443 0.564001
vt 0.559443 0.585739
vt 0.559443 0.578493
vt 0.559443 0.564001
vt 0.564878 0.564001
vt 0.559443 0.592985
vt 0.554009 0.571247
vt 0.554009 0.585739
vt 0.554009 0.578493
vt 0.570312 0.564001
vt 0.554009 0.592985
vt 0.548574 0.571247
vt 0.548574 0.585739
vt 0.548574 0.578493
vt 0.575747 0.564001
vt 0.548574 0.592985
vt 0.592051 0.571247
vt 0.586616 0.571247
vt 0.592051 0.578493
vt 0.592051 0.585739
vt 0.586616 0.585739
vt 0.586616 0.578493
vt 0.592051 0.592985
vt 0.586616 0.592985
vt 0.564878 0.592985
vt 0.559443 0.592985
vt 0.554009 0.592985
vt 0.548574 0.592985
vt 0.592051 0.592985
vt 0.586616 0.592985
vt 0.575747 0.592985
vt 0.570312 0.592985
vt 0.581182 0.592985
vt 0.592051 0.592985
vt 0.586616 0.592985
vt 0.559443 0.592985
vt 0.554009 0.592985
vt 0.570312 0.592985
vt 0.564878 0.592985
vt 0.581182 0.592985
vt 0.575747 0.592985
vt 0.548574 0.592985
vt 0.548574 0.556755
vt 0.548574 0.556755
vt 0.548574 0.556755
vt 0.548574 0.556755
vt 0.586616 0.592985
vt 0.581182 0.592985
vt 0.548574 0.556755
vt 0.548574 0.556755
vt 0.592051 0.592985
vt 0.548574 0.556755
vt 0.548574 0.556755
vt 0.554009 0.592985
vt 0.548574 0.592985
vt 0.548574 0.556755
vt 0.548574 0.556755
vt 0.559443 0.592985
vt 0.570312 0.592985
vt 0.575747 0.592985
vt 0.575747 0.592985
vt 0.570312 0.592985
vt 0.592051 0.592985
vt 0.586616 0.592985
vt 0.559443 0.592985
vt 0.554009 0.592985
vt 0.564878 0.592985
vt 0.564878 0.592985
vt 0.581182 0.592985
vt 0.548574 0.592985
vt 0.548574 0.556755
vt 0.548574 0.556755
vt 0.548574 0.556755
vt 0.548574 0.556755
vt 0.548574 0.556755
vt 0.548574 0.556755
vt 0.586616 0.564001
vt 0.592051 0.564001
vt 0.570312 0.564001
vt 0.575747 0.564001
vt 0.559443 0.564001
vt 0.564878 0.564001
vt 0.548574 0.564001
vt 0.554009 0.564001
vt 0.581182 0.564001
vt 0.564878 0.564001
vt 0.570312 0.564001
vt 0.554009 0.564001
vt 0.559443 0.564001
vt 0.586616 0.564001
vt 0.592051 0.564001
vt 0.575747 0.564001
vt 0.548574 0.564001
vt 0.581182 0.564001
vn -1.0000 0.0000 0.0000
vn 0.0000 0.0000 -1.0000
vn 1.0000 0.0000 0.0000
vn 0.0000 0.0000 1.0000
vn 0.0000 -1.0000 0.0000
vn 0.0000 1.0000 0.0000
vn 0.3090 0.0000 -0.9511
vn 0.8090 0.0000 -0.5878
vn 0.8090 0.0000 0.5878
vn 0.3090 0.0000 0.9511
vn -0.3090 0.0000 0.9511
vn -0.8090 0.0000 0.5878
vn -0.8090 0.0000 -0.5878
vn -0.3090 0.0000 -0.9511
vn 0.0000 -0.6428 -0.7660
vn 0.0000 0.6428 0.7660
vn 0.0000 0.7660 -0.6428
vn 0.0000 -0.7660 0.6428
vn 0.5878 0.0000 -0.8090
vn -0.9511 0.0000 -0.3090
vn -0.5878 0.0000 -0.8090
vn -0.9511 0.0000 0.3090
vn -0.5878 0.0000 0.8090
vn 0.9511 0.0000 0.3090
vn 0.5878 0.0000 0.8090
vn 0.9511 0.0000 -0.3090
vn 0.4039 0.8208 0.4039
vn 0.5712 0.8208 -0.0000
vn 0.4648 0.8854 -0.0000
vn 0.3287 0.8854 0.3287
vn -0.3715 0.2403 -0.8968
vn -0.3827 0.0000 -0.9239
vn -0.3726 -0.2280 -0.8995
vn -0.3795 -0.1286 -0.9162
vn -0.0000 0.8208 -0.5712
vn -0.0000 0.7708 -0.6371
vn -0.4505 0.7708 -0.4505
vn -0.4039 0.8208 -0.4039
vn -0.8968 0.2403 -0.3715
vn -0.9239 0.0000 -0.3827
vn -0.8995 -0.2280 -0.3726
vn -0.9162 -0.1286 -0.3795
vn -0.6371 0.7708 0.0000
vn -0.5712 0.8208 0.0000
vn 0.4039 0.8208 -0.4039
vn 0.3287 0.8854 -0.3287
vn -0.8995 -0.2280 0.3726
vn -0.9162 -0.1286 0.3795
vn -0.4505 0.7708 0.4505
vn -0.4039 0.8208 0.4039
vn -0.9239 0.0000 0.3827
vn 0.0000 0.8854 -0.4648
vn -0.8968 0.2403 0.3715
vn 0.0000 0.7708 0.6371
vn -0.0000 0.8208 0.5712
vn -0.3827 0.0000 0.9239
vn -0.3726 -0.2280 0.8995
vn -0.0000 0.8854 0.4648
vn -0.3287 0.8854 0.3287
vn -0.3715 0.2403 0.8968
vn -0.3795 -0.1286 0.9162
vn 0.4505 0.7708 0.4505
vn 0.3827 0.0000 0.9239
vn 0.3726 -0.2280 0.8995
vn -0.4648 0.8854 0.0000
vn 0.3715 0.2403 0.8968
vn 0.3795 -0.1286 0.9162
vn 0.6371 0.7708 -0.0000
vn 0.9239 0.0000 0.3827
vn 0.8995 -0.2280 0.3726
vn -0.3287 0.8854 -0.3287
vn 0.8968 0.2403 0.3715
vn 0.9162 -0.1286 0.3795
vn 0.4505 0.7708 -0.4505
vn 0.9239 0.0000 -0.3827
vn 0.8995 -0.2280 -0.3726
vn 0.8968 0.2403 -0.3715
vn 0.9162 -0.1286 -0.3795
vn 0.3827 0.0000 -0.9239
vn 0.3726 -0.2280 -0.8995
vn 0.3715 0.2403 -0.8968
vn 0.3795 -0.1286 -0.9162
vn -0.3826 -0.0172 0.9237
vn 0.3826 -0.0172 0.9237
vn 0.9237 -0.0172 0.3826
vn 0.9237 -0.0172 -0.3826
vn -0.9237 -0.0172 -0.3826
vn -0.9237 -0.0172 0.3826
vn -0.3826 -0.0172 -0.9237
vn 0.3826 -0.0172 -0.9237
vn 0.9239 0.0022 -0.3827
vn 0.3827 0.0022 0.9239
vn -0.9239 0.0022 0.3827
vn -0.3827 0.0022 -0.9239
vn 0.3827 0.0022 -0.9239
vn 0.9239 0.0022 0.3827
vn -0.3827 0.0022 0.9239
vn -0.9239 0.0022 -0.3827
vn 0.9204 -0.0872 -0.3812
vn -0.9204 -0.0872 -0.3812
vn -0.3812 -0.0872 0.9204
vn 0.9204 -0.0872 0.3812
vn -0.3812 -0.0872 -0.9204
vn 0.3812 -0.0872 -0.9204
vn -0.9204 -0.0872 0.3812
vn 0.3812 -0.0872 0.9204
usemtl MAT_Atlas
s 1
f 1/1/1 2/2/1 4/3/1 3/4/1
f 3/5/2 4/6/2 8/7/2 7/8/2
f 7/9/3 8/10/3 6/11/3 5/12/3
f 5/13/4 6/14/4 2/15/4 1/16/4
f 9/17/5 11/18/5 13/19/5
f 8/20/6 4/21/6 2/22/6 6/23/6
f 10/24/6 14/25/6 12/26/6
f 11/27/7 12/28/7 14/29/7 13/30/7
f 9/17/5 13/19/5 15/31/5
f 10/24/6 16/32/6 14/25/6
f 13/33/8 14/34/8 16/35/8 15/36/8
f 9/17/5 15/31/5 17/37/5
f 10/24/6 18/38/6 16/32/6
f 15/36/3 16/35/3 18/39/3 17/40/3
f 9/17/5 17/37/5 19/41/5
f 10/24/6 20/42/6 18/38/6
f 17/40/9 18/39/9 20/43/9 19/44/9
f 9/17/5 19/41/5 21/45/5
f 10/24/6 22/46/6 20/42/6
f 19/47/10 20/48/10 22/49/10 21/50/10
f 9/17/5 21/45/5 23/51/5
f 10/24/6 24/52/6 22/46/6
f 21/50/11 22/49/11 24/53/11 23/54/11
f 9/17/5 23/51/5 25/55/5
f 10/24/6 26/56/6 24/52/6
f 23/57/12 24/58/12 26/59/12 25/60/12
f 9/17/5 25/55/5 27/61/5
f 10/24/6 28/62/6 26/56/6
f 25/60/1 26/59/1 28/63/1 27/64/1
f 9/17/5 27/61/5 29/65/5
f 10/24/6 30/66/6 28/62/6
f 27/64/13 28/63/13 30/67/13 29/68/13
f 9/17/5 29/65/5 11/18/5
f 10/24/6 12/26/6 30/66/6
f 29/69/14 30/70/14 12/28/14 11/27/14
f 31/71/6 32/72/6 34/73/6 33/74/6
f 33/75/2 34/76/2 38/77/2 37/78/2
f 37/79/5 38/80/5 36/81/5 35/82/5
f 35/83/4 36/84/4 32/85/4 31/86/4
f 38/87/3 34/88/3 32/89/3 36/90/3
f 39/91/1 40/92/1 42/93/1 41/94/1
f 41/95/2 42/96/2 46/97/2 45/98/2
f 45/99/3 46/100/3 44/101/3 43/102/3
f 43/103/4 44/104/4 40/92/4 39/91/4
f 46/105/6 42/106/6 40/107/6 44/108/6
f 39/109/5 41/110/5 45/111/5 43/112/5
f 47/113/1 48/114/1 50/115/1 49/116/1
f 49/117/15 50/118/15 54/119/15 53/120/15
f 53/121/3 54/122/3 52/123/3 51/124/3
f 51/125/16 52/126/16 48/127/16 47/128/16
f 54/129/17 50/130/17 48/131/17 52/132/17
f 47/133/18 49/134/18 53/135/18 51/136/18
f 62/137/19 66/138/19 63/139/19 59/140/19
f 55/141/6 59/140/6 60/142/6 56/143/6
f 56/143/20 57/144/20 93/145/20 92/146/20
f 57/144/5 61/147/5 62/137/5 58/148/5
f 66/138/2 70/149/2 67/150/2 63/139/2
f 59/140/6 63/139/6 64/151/6 60/142/6
f 93/145/21 89/152/21 88/153/21 92/146/21
f 61/147/5 65/154/5 66/138/5 62/137/5
f 70/149/21 74/155/21 71/156/21 67/150/21
f 63/139/6 67/150/6 68/157/6 64/151/6
f 65/154/5 69/158/5 70/149/5 66/138/5
f 74/159/20 78/160/20 75/161/20 71/162/20
f 67/150/6 71/156/6 72/163/6 68/157/6
f 60/142/22 61/147/22 57/144/22 56/143/22
f 69/158/5 73/164/5 74/155/5 70/149/5
f 78/160/22 82/165/22 79/166/22 75/161/22
f 71/162/6 75/161/6 76/167/6 72/168/6
f 85/169/19 81/170/19 80/171/19 84/172/19
f 73/173/5 77/174/5 78/160/5 74/159/5
f 82/165/23 86/175/23 83/176/23 79/166/23
f 75/161/6 79/166/6 80/171/6 76/167/6
f 68/157/4 69/158/4 65/154/4 64/151/4
f 77/174/5 81/170/5 82/165/5 78/160/5
f 86/175/4 90/177/4 87/178/4 83/176/4
f 79/166/6 83/176/6 84/172/6 80/171/6
f 64/151/23 65/154/23 61/147/23 60/142/23
f 81/170/5 85/169/5 86/175/5 82/165/5
f 94/179/24 58/148/24 55/141/24 91/180/24
f 83/176/6 87/178/6 88/153/6 84/172/6
f 76/167/24 77/174/24 73/173/24 72/168/24
f 85/169/5 89/152/5 90/177/5 86/175/5
f 72/163/25 73/164/25 69/158/25 68/157/25
f 87/178/6 91/180/6 92/146/6 88/153/6
f 80/171/26 81/170/26 77/174/26 76/167/26
f 89/152/5 93/145/5 94/179/5 90/177/5
f 90/177/25 94/179/25 91/180/25 87/178/25
f 91/180/6 55/141/6 56/143/6 92/146/6
f 88/153/2 89/152/2 85/169/2 84/172/2
f 93/145/5 57/144/5 58/148/5 94/179/5
f 58/148/26 62/137/26 59/140/26 55/141/26
f 125/181/27 130/182/28 181/183/29 180/184/30
f 98/185/31 97/186/32 102/187/32 103/188/31
f 96/189/33 95/190/34 100/191/34 101/192/33
f 99/193/35 98/185/36 103/188/37 104/194/38
f 97/186/32 96/189/33 101/192/33 102/187/32
f 103/188/39 102/187/40 108/195/40 109/196/39
f 101/192/41 100/191/42 106/197/42 107/198/41
f 104/194/38 103/188/37 109/196/43 110/199/44
f 102/187/40 101/192/41 107/198/41 108/195/40
f 130/200/28 135/201/45 182/202/46 181/203/29
f 107/198/47 106/197/48 111/204/48 112/205/47
f 110/199/44 109/196/43 114/206/49 115/207/50
f 108/195/51 107/198/47 112/205/47 113/208/51
f 135/201/45 99/193/35 105/209/52 182/202/46
f 109/196/53 108/195/51 113/208/51 114/206/53
f 115/207/50 114/206/49 119/210/54 120/211/55
f 113/208/56 112/205/57 117/212/57 118/213/56
f 115/207/50 120/211/55 179/214/58 178/215/59
f 114/206/60 113/208/56 118/213/56 119/210/60
f 112/205/57 111/204/61 116/216/61 117/212/57
f 120/211/55 119/210/54 124/217/62 125/181/27
f 118/213/63 117/212/64 122/218/64 123/219/63
f 110/199/44 115/207/50 178/215/59 177/220/65
f 119/210/66 118/213/63 123/219/63 124/217/66
f 117/212/64 116/216/67 121/221/67 122/218/64
f 125/181/27 124/217/62 129/222/68 130/182/28
f 123/219/69 122/218/70 127/223/70 128/224/69
f 99/193/35 104/194/38 176/225/71 105/209/52
f 124/217/72 123/219/69 128/224/69 129/222/72
f 122/218/70 121/221/73 126/226/73 127/223/70
f 130/200/28 129/227/68 134/228/74 135/201/45
f 128/229/75 127/230/76 132/231/76 133/232/75
f 104/194/38 110/199/44 177/220/65 176/225/71
f 129/227/77 128/229/75 133/232/75 134/228/77
f 127/230/76 126/233/78 131/234/78 132/231/76
f 133/232/79 132/231/80 96/189/80 97/186/79
f 120/211/55 125/181/27 180/184/30 179/214/58
f 134/228/81 133/232/79 97/186/79 98/185/81
f 132/231/80 131/234/82 95/190/82 96/189/80
f 135/201/45 134/228/74 98/185/36 99/193/35
f 116/216/61 111/204/61 139/235/83 140/236/83
f 121/221/67 116/216/67 140/236/84 141/237/84
f 126/226/73 121/221/73 141/237/85 142/238/85
f 131/234/78 126/233/78 142/239/86 143/240/86
f 106/197/42 100/191/42 137/241/87 138/242/87
f 111/204/48 106/197/48 138/242/88 139/235/88
f 100/191/34 95/190/34 136/243/89 137/241/89
f 95/190/82 131/234/82 143/240/90 136/243/90
f 143/240/86 142/239/86 150/244/91 151/245/91
f 141/237/84 140/236/84 148/246/92 149/247/92
f 139/235/88 138/242/88 146/248/93 147/249/93
f 137/241/89 136/243/89 144/250/94 145/251/94
f 136/243/90 143/240/90 151/245/95 144/250/95
f 142/238/85 141/237/85 149/247/96 150/252/96
f 140/236/83 139/235/83 147/249/97 148/246/97
f 138/242/87 137/241/87 145/251/98 146/248/98
f 158/253/5 159/254/5 175/255/5 174/256/5
f 144/250/6 151/245/6 167/257/6 160/258/6
f 157/259/5 158/253/5 174/256/5 173/260/5
f 151/245/6 150/244/6 166/261/6 167/257/6
f 156/262/5 157/259/5 173/260/5 172/263/5
f 150/252/6 149/247/6 165/264/6 166/265/6
f 155/266/5 156/262/5 172/263/5 171/267/5
f 149/247/6 148/246/6 164/268/6 165/264/6
f 162/269/40 161/270/40 169/271/40 170/272/40
f 167/257/75 166/261/75 174/273/75 175/274/75
f 165/264/63 164/268/63 172/275/63 173/276/63
f 163/277/51 162/269/51 170/272/51 171/278/51
f 161/270/32 160/258/32 168/279/32 169/271/32
f 160/258/79 167/257/79 175/274/79 168/279/79
f 166/265/69 165/264/69 173/276/69 174/280/69
f 164/268/56 163/277/56 171/278/56 172/275/56
f 145/251/6 144/250/6 160/258/6 161/270/6
f 159/254/5 152/281/5 168/282/5 175/255/5
f 146/248/6 145/251/6 161/270/6 162/269/6
f 152/281/5 153/283/5 169/284/5 168/282/5
f 147/249/6 146/248/6 162/269/6 163/277/6
f 153/283/5 154/285/5 170/286/5 169/284/5
f 148/246/6 147/249/6 163/277/6 164/268/6
f 154/285/5 155/266/5 171/267/5 170/286/5
f 181/203/99 182/202/99 190/287/99 189/288/99
f 176/225/100 177/220/100 185/289/100 184/290/100
f 178/215/101 179/214/101 187/291/101 186/292/101
f 180/184/102 181/183/102 189/293/102 188/294/102
f 105/209/103 176/225/103 184/290/103 183/295/103
f 182/202/104 105/209/104 183/295/104 190/287/104
f 177/220/105 178/215/105 186/292/105 185/289/105
f 179/214/106 180/184/106 188/294/106 187/291/106
f 185/289/6 186/292/6 194/296/6 193/297/6
f 187/291/6 188/294/6 196/298/6 195/299/6
f 189/288/6 190/287/6 198/300/6 197/301/6
f 184/290/6 185/289/6 193/297/6 192/302/6
f 186/292/6 187/291/6 195/299/6 194/296/6
f 188/294/6 189/293/6 197/303/6 196/298/6
f 190/287/6 183/295/6 191/304/6 198/300/6
f 183/295/6 184/290/6 192/302/6 191/304/6
