# Blender v3.2.0 OBJ File: 'Props3Scaled.blend'
# www.blender.org
mtllib Inkpot.mtl
o Inkpot_Cylinder
v 0.000000 -0.002405 0.000000
v 0.000000 -0.002405 -0.050094
v 0.000000 0.074306 -0.050094
v 0.035422 -0.002405 -0.035422
v 0.035422 0.074306 -0.035422
v 0.050094 -0.002405 0.000000
v 0.050094 0.074306 0.000000
v 0.035422 -0.002405 0.035422
v 0.035422 0.074306 0.035422
v -0.000000 -0.002405 0.050094
v -0.000000 0.074306 0.050094
v -0.035422 -0.002405 0.035422
v -0.035422 0.074306 0.035422
v -0.050094 -0.002405 -0.000000
v -0.050094 0.074306 -0.000000
v -0.035422 -0.002405 -0.035422
v -0.035422 0.074306 -0.035422
v 0.000000 0.047689 -0.068642
v 0.048537 0.047689 -0.048537
v 0.068642 0.047689 0.000000
v 0.048537 0.047689 0.048537
v -0.000000 0.047689 0.068642
v -0.048537 0.047689 0.048537
v -0.068642 0.047689 -0.000000
v -0.048537 0.047689 -0.048537
v 0.017322 0.076177 -0.017322
v 0.000000 0.076177 -0.024497
v 0.024497 0.076177 0.000000
v 0.017322 0.076177 0.017322
v -0.000000 0.076177 0.024497
v -0.017322 0.076177 0.017322
v -0.024497 0.076177 -0.000000
v -0.017322 0.076177 -0.017322
v 0.014946 0.108517 -0.014946
v 0.000000 0.108517 -0.021137
v 0.021137 0.108517 0.000000
v 0.014946 0.108517 0.014946
v -0.000000 0.108517 0.021137
v -0.014946 0.108517 0.014946
v -0.021137 0.108517 -0.000000
v -0.014946 0.108517 -0.014946
v 0.019557 0.108517 -0.019557
v 0.000000 0.108517 -0.027658
v 0.027658 0.108517 0.000000
v 0.019557 0.108517 0.019557
v -0.000000 0.108517 0.027658
v -0.019557 0.108517 0.019557
v -0.027658 0.108517 -0.000000
v -0.019557 0.108517 -0.019557
v 0.000000 0.062279 0.000000
v 0.011576 0.062279 -0.011576
v 0.000000 0.062279 -0.016371
v 0.016371 0.062279 0.000000
v 0.011576 0.062279 0.011576
v -0.000000 0.062279 0.016371
v -0.011576 0.062279 0.011576
v -0.016371 0.062279 -0.000000
v -0.011576 0.062279 -0.011576
v 0.015849 0.132855 -0.015849
v 0.000000 0.132855 -0.022414
v 0.022414 0.132855 0.000000
v 0.015849 0.132855 0.015849
v -0.000000 0.132855 0.022414
v -0.015849 0.132855 0.015849
v -0.022414 0.132855 -0.000000
v -0.015849 0.132855 -0.015849
v 0.000000 0.083823 0.000000
v 0.012275 0.083823 -0.012275
v 0.000000 0.083823 -0.017360
v 0.017360 0.083823 0.000000
v 0.012275 0.083823 0.012275
v -0.000000 0.083823 0.017360
v -0.012275 0.083823 0.012275
v -0.017360 0.083823 -0.000000
v -0.012275 0.083823 -0.012275
v 0.000000 0.132855 0.000000
vt 0.192265 0.453846
vt 0.184541 0.435199
vt 0.199989 0.435199
vt 0.245144 0.472545
vt 0.244585 0.477886
vt 0.231503 0.477399
vt 0.232134 0.471368
vt 0.165554 0.384095
vt 0.162694 0.391000
vt 0.147246 0.391000
vt 0.144386 0.384095
vt 0.210912 0.446122
vt 0.218916 0.420877
vt 0.218589 0.426238
vt 0.205499 0.426317
vt 0.205868 0.420265
vt 0.221639 0.471368
vt 0.211581 0.468941
vt 0.210912 0.453508
vt 0.220723 0.450220
vt 0.210912 0.461570
vt 0.232334 0.420877
vt 0.232007 0.426238
vt 0.218916 0.426317
vt 0.219285 0.420265
vt 0.129419 0.399063
vt 0.136323 0.401923
vt 0.136323 0.417371
vt 0.129419 0.420231
vt 0.199989 0.472493
vt 0.244585 0.485440
vt 0.245144 0.490782
vt 0.232134 0.491959
vt 0.231503 0.485928
vt 0.216225 0.420265
vt 0.206167 0.417838
vt 0.205499 0.402404
vt 0.215309 0.399117
vt 0.184541 0.472493
vt 0.218916 0.433785
vt 0.205868 0.434839
vt 0.149811 0.428294
vt 0.160608 0.435199
vt 0.160316 0.446122
vt 0.149410 0.443262
vt 0.173617 0.461570
vt 0.232334 0.433785
vt 0.219285 0.434839
vt 0.160316 0.461570
vt 0.149410 0.464430
vt 0.173617 0.446122
vt 0.237364 0.403794
vt 0.244919 0.403794
vt 0.245406 0.416788
vt 0.236877 0.416788
vt 0.160608 0.472493
vt 0.149811 0.479398
vt 0.195555 0.399063
vt 0.205499 0.401923
vt 0.205499 0.417371
vt 0.195555 0.420231
vt 0.174760 0.401923
vt 0.174760 0.417371
vt 0.173617 0.391000
vt 0.193990 0.384095
vt 0.129419 0.446122
vt 0.129419 0.461570
vt 0.236208 0.401074
vt 0.216225 0.384095
vt 0.236877 0.390112
vt 0.236877 0.416508
vt 0.241622 0.452177
vt 0.221639 0.435199
vt 0.242291 0.441215
vt 0.242291 0.467611
vt 0.193990 0.435199
vt 0.173617 0.428294
vt 0.158747 0.400528
vt 0.151193 0.400528
vt 0.145851 0.405870
vt 0.145851 0.413424
vt 0.151193 0.418766
vt 0.147246 0.428294
vt 0.158747 0.418766
vt 0.162694 0.428294
vt 0.164089 0.413424
vt 0.173617 0.417371
vt 0.164089 0.405870
vt 0.173617 0.401923
vt 0.146106 0.479398
vt 0.150730 0.479695
vt 0.152199 0.497993
vt 0.148617 0.497763
vt 0.201432 0.491260
vt 0.194914 0.491260
vt 0.195649 0.472589
vt 0.200697 0.472589
vt 0.165232 0.468774
vt 0.171745 0.468513
vt 0.171745 0.486870
vt 0.166701 0.487072
vt 0.157243 0.479434
vt 0.157243 0.497791
vt 0.248809 0.453541
vt 0.242291 0.453541
vt 0.243025 0.435199
vt 0.248074 0.435199
vt 0.190305 0.491136
vt 0.192079 0.472493
vt 0.206041 0.491136
vt 0.204267 0.472493
vt 0.160608 0.468476
vt 0.163119 0.486842
vt 0.213340 0.484922
vt 0.217949 0.489532
vt 0.216943 0.491959
vt 0.210912 0.485928
vt 0.224467 0.489532
vt 0.225472 0.491959
vt 0.229076 0.484922
vt 0.231503 0.485928
vt 0.229076 0.478404
vt 0.231503 0.477399
vt 0.224467 0.473795
vt 0.225472 0.471368
vt 0.217949 0.473795
vt 0.216943 0.471368
vt 0.213340 0.478404
vt 0.210912 0.477399
vt 0.165651 0.493166
vt 0.163127 0.499260
vt 0.159557 0.495690
vt 0.168176 0.499260
vt 0.171745 0.495690
vt 0.171745 0.490642
vt 0.168176 0.487072
vt 0.163127 0.487072
vt 0.159557 0.490642
vt 0.725721 0.639393
vt 0.726501 0.659237
vt 0.722715 0.659633
vt 0.720834 0.639904
vt 0.714730 0.615285
vt 0.714810 0.635145
vt 0.709461 0.635376
vt 0.707824 0.615584
vt 0.714730 0.595194
vt 0.714810 0.615054
vt 0.709461 0.615285
vt 0.707824 0.595493
vt 0.784093 0.570694
vt 0.784873 0.550995
vt 0.790226 0.550995
vt 0.791005 0.570694
vt 0.732633 0.639393
vt 0.731854 0.659237
vt 0.737521 0.639904
vt 0.735640 0.659633
vt 0.719635 0.615584
vt 0.718609 0.635376
vt 0.719635 0.595493
vt 0.718609 0.615285
vt 0.786012 0.593627
vt 0.783336 0.600089
vt 0.779550 0.596304
vt 0.779550 0.590950
vt 0.783336 0.587165
vt 0.788689 0.587165
vt 0.792475 0.590950
vt 0.792475 0.596304
vt 0.788689 0.600089
vt 0.681522 0.646297
vt 0.684979 0.654641
vt 0.676635 0.651185
vt 0.693322 0.651185
vt 0.688435 0.646297
vt 0.693322 0.658097
vt 0.681522 0.662985
vt 0.688435 0.662985
vt 0.676635 0.658097
vn 0.0000 -1.0000 -0.0000
vn 0.7038 -0.0973 -0.7038
vn 0.0000 -0.0973 -0.9953
vn 0.0000 0.5717 -0.8205
vn 0.5801 0.5717 -0.5801
vn 0.7038 -0.0973 0.7038
vn 0.9953 -0.0973 0.0000
vn 0.8205 0.5717 0.0000
vn -0.7038 -0.0973 0.7038
vn -0.0000 -0.0973 0.9953
vn 0.5801 0.5717 0.5801
vn -0.7038 -0.0973 -0.7038
vn -0.9953 -0.0973 0.0000
vn 0.0000 0.5717 0.8205
vn -0.5801 0.5717 0.5801
vn -0.8205 0.5717 0.0000
vn -0.5801 0.5717 -0.5801
vn -0.6631 -0.3472 -0.6631
vn 0.0000 -0.3472 -0.9378
vn -0.9378 -0.3472 0.0000
vn -0.6631 -0.3472 0.6631
vn -0.0000 -0.3472 0.9378
vn 0.6631 -0.3472 0.6631
vn 0.9378 -0.3472 0.0000
vn 0.6631 -0.3472 -0.6631
vn 0.0000 0.9973 -0.0729
vn 0.0515 0.9973 -0.0515
vn 0.0729 0.9973 0.0000
vn 0.0515 0.9973 0.0515
vn -0.0000 0.9973 0.0729
vn -0.0515 0.9973 0.0515
vn -0.0729 0.9973 -0.0000
vn -0.0515 0.9973 -0.0515
vn 0.7034 0.1025 0.7034
vn 0.9947 0.1025 0.0000
vn -0.9947 0.1025 0.0000
vn -0.7034 0.1025 0.7034
vn 0.0000 0.1025 -0.9947
vn -0.7034 0.1025 -0.7034
vn 0.7034 0.1025 -0.7034
vn 0.0000 0.1025 0.9947
vn 0.0000 1.0000 0.0000
vn -0.7034 -0.1025 -0.7034
vn -0.9947 -0.1025 -0.0000
vn 0.9947 -0.1025 0.0000
vn 0.7034 -0.1025 -0.7034
vn -0.0000 -0.1025 0.9947
vn 0.7034 -0.1025 0.7034
vn -0.7034 -0.1025 0.7034
vn -0.0000 -0.1025 -0.9947
usemtl MAT_Atlas
s 1
f 1/1/1 2/2/1 4/3/1
f 26/4/2 27/5/3 43/6/3 42/7/2
f 18/8/4 3/9/4 5/10/5 19/11/5
f 1/1/1 4/3/1 6/12/1
f 29/13/6 28/14/7 44/15/7 45/16/6
f 19/17/5 5/18/5 7/19/8 20/20/8
f 1/1/1 6/12/1 8/21/1
f 31/22/9 30/23/10 46/24/10 47/25/9
f 20/26/8 7/27/8 9/28/11 21/29/11
f 1/1/1 8/21/1 10/30/1
f 33/31/12 32/32/13 48/33/13 49/34/12
f 21/35/11 9/36/11 11/37/14 22/38/14
f 1/1/1 10/30/1 12/39/1
f 28/14/7 26/40/2 42/41/2 44/15/7
f 22/42/14 11/43/14 13/44/15 23/45/15
f 1/1/1 12/39/1 14/46/1
f 30/23/10 29/47/6 45/48/6 46/24/10
f 23/45/15 13/44/15 15/49/16 24/50/16
f 1/1/1 14/46/1 16/51/1
f 32/52/13 31/53/9 47/54/9 48/55/13
f 24/50/16 15/49/16 17/56/17 25/57/17
f 1/1/1 16/51/1 2/2/1
f 27/5/3 33/31/12 49/34/12 43/6/3
f 25/58/17 17/59/17 3/60/4 18/61/4
f 16/62/18 25/58/18 18/61/19 2/63/19
f 14/64/20 24/65/20 25/58/18 16/62/18
f 12/66/21 23/45/21 24/50/20 14/67/20
f 10/68/22 22/38/22 23/69/21 12/70/21
f 8/71/23 21/35/23 22/38/22 10/68/22
f 6/72/24 20/20/24 21/73/23 8/74/23
f 4/75/25 19/17/25 20/20/24 6/72/24
f 2/63/19 18/61/19 19/76/25 4/77/25
f 27/78/26 26/79/27 5/10/27 3/9/26
f 26/79/27 28/80/28 7/27/28 5/10/27
f 28/80/28 29/81/29 9/28/29 7/27/28
f 29/81/29 30/82/30 11/83/30 9/28/29
f 30/82/30 31/84/31 13/85/31 11/83/30
f 31/84/31 32/86/32 15/87/32 13/85/31
f 32/86/32 33/88/33 17/89/33 15/87/32
f 33/88/33 27/78/26 3/9/26 17/89/33
f 41/90/34 40/91/35 57/92/35 58/93/34
f 36/94/36 34/95/37 51/96/37 53/97/36
f 38/98/38 37/99/39 54/100/39 55/101/38
f 40/91/35 39/102/40 56/103/40 57/92/35
f 35/104/41 41/105/34 58/106/34 52/107/41
f 34/95/37 35/108/41 52/109/41 51/96/37
f 37/110/39 36/94/36 53/97/36 54/111/39
f 39/112/40 38/98/38 55/101/38 56/113/40
f 35/114/42 34/115/42 42/116/42 43/117/42
f 34/115/42 36/118/42 44/119/42 42/116/42
f 36/118/42 37/120/42 45/121/42 44/119/42
f 37/120/42 38/122/42 46/123/42 45/121/42
f 38/122/42 39/124/42 47/125/42 46/123/42
f 39/124/42 40/126/42 48/127/42 47/125/42
f 40/126/42 41/128/42 49/129/42 48/127/42
f 41/128/42 35/114/42 43/117/42 49/129/42
f 50/130/42 51/131/42 52/132/42
f 50/130/42 53/133/42 51/131/42
f 50/130/42 54/134/42 53/133/42
f 50/130/42 55/135/42 54/134/42
f 50/130/42 56/136/42 55/135/42
f 50/130/42 57/137/42 56/136/42
f 50/130/42 58/138/42 57/137/42
f 50/130/42 52/132/42 58/138/42
f 66/139/43 75/140/43 74/141/44 65/142/44
f 61/143/45 70/144/45 68/145/46 59/146/46
f 63/147/47 72/148/47 71/149/48 62/150/48
f 65/151/44 74/152/44 73/153/49 64/154/49
f 60/155/50 69/156/50 75/140/43 66/139/43
f 59/157/46 68/158/46 69/156/50 60/155/50
f 62/159/48 71/160/48 70/144/45 61/143/45
f 64/161/49 73/162/49 72/148/47 63/147/47
f 67/163/1 69/164/1 68/165/1
f 67/163/1 68/165/1 70/166/1
f 67/163/1 70/166/1 71/167/1
f 67/163/1 71/167/1 72/168/1
f 67/163/1 72/168/1 73/169/1
f 67/163/1 73/169/1 74/170/1
f 67/163/1 74/170/1 75/171/1
f 67/163/1 75/171/1 69/164/1
f 61/172/42 76/173/42 62/174/42
f 60/175/42 76/173/42 59/176/42
f 66/177/42 76/173/42 60/175/42
f 64/178/42 76/173/42 65/179/42
f 62/174/42 76/173/42 63/180/42
f 59/176/42 76/173/42 61/172/42
f 65/179/42 76/173/42 66/177/42
f 63/180/42 76/173/42 64/178/42
