# Blender v3.2.0 OBJ File: 'Props3Scaled.blend'
# www.blender.org
mtllib Mortar.mtl
o Mortar_Cylinder.005
v 0.000000 -0.002644 0.000000
v 0.000000 0.035126 0.000000
v 0.000000 -0.002644 -0.049784
v 0.000000 0.026097 -0.049784
v 0.029262 -0.002644 -0.040276
v 0.029262 0.026097 -0.040276
v 0.047348 -0.002644 -0.015384
v 0.047348 0.026097 -0.015384
v 0.047348 -0.002644 0.015384
v 0.047348 0.026097 0.015384
v 0.029262 -0.002644 0.040276
v 0.029262 0.026097 0.040276
v -0.000000 -0.002644 0.049784
v -0.000000 0.026097 0.049784
v -0.029262 -0.002644 0.040276
v -0.029262 0.026097 0.040276
v -0.047348 -0.002644 0.015384
v -0.047348 0.026097 0.015384
v -0.047348 -0.002644 -0.015384
v -0.047348 0.026097 -0.015384
v -0.029262 -0.002644 -0.040276
v -0.029262 0.026097 -0.040276
v 0.000000 0.077874 -0.045295
v 0.000000 0.026097 -0.042129
v 0.024763 0.026097 -0.034083
v 0.040067 0.026097 -0.013019
v 0.040067 0.026097 0.013019
v 0.024763 0.026097 0.034083
v -0.000000 0.026097 0.042129
v -0.024763 0.026097 0.034083
v -0.040067 0.026097 0.013019
v -0.040067 0.026097 -0.013019
v -0.024763 0.026097 -0.034083
v 0.000000 0.121468 -0.069753
v 0.032537 0.129650 -0.044784
v 0.066339 0.121468 -0.021555
v 0.052647 0.129650 0.017106
v 0.041000 0.121468 0.056431
v 0.000000 0.129650 0.055356
v -0.032537 0.129650 0.044784
v -0.066339 0.121468 0.021555
v -0.052647 0.129650 -0.017106
v -0.041000 0.121468 -0.056431
v -0.000000 0.077874 0.045295
v 0.026624 0.077874 0.036645
v 0.043078 0.077874 0.013997
v -0.026624 0.077874 -0.036645
v -0.043078 0.077874 -0.013997
v 0.043078 0.077874 -0.013997
v 0.026624 0.077874 -0.036645
v -0.043078 0.077874 0.013997
v -0.026624 0.077874 0.036645
v -0.000000 0.103762 0.054412
v 0.051749 0.103762 0.016814
v -0.051749 0.103762 -0.016814
v 0.031982 0.103762 -0.044020
v -0.031982 0.103762 0.044020
v 0.000000 0.103762 -0.054412
v 0.031982 0.103762 0.044020
v -0.031982 0.103762 -0.044020
v 0.051749 0.103762 -0.016814
v -0.051749 0.103762 0.016814
v 0.041000 0.121468 -0.056431
v 0.000000 0.129650 -0.055356
v 0.052647 0.129650 -0.017106
v 0.066339 0.121468 0.021555
v 0.032537 0.129650 0.044784
v -0.000000 0.121468 0.069753
v -0.041000 0.121468 0.056431
v -0.052647 0.129650 0.017106
v -0.066339 0.121468 -0.021555
v -0.032537 0.129650 -0.044784
v 0.018837 0.078861 -0.025927
v 0.030478 0.078861 0.009903
v 0.000000 0.078861 0.032047
v -0.018837 0.078861 0.025926
v -0.030478 0.078861 -0.009903
v 0.000000 0.078861 -0.032047
v 0.030478 0.078861 -0.009903
v 0.018837 0.078861 0.025927
v -0.030478 0.078861 0.009903
v -0.018837 0.078861 -0.025926
v 0.014971 0.035126 -0.020606
v 0.024224 0.035126 0.007871
v 0.000000 0.035126 0.025470
v -0.014971 0.035126 0.020606
v -0.024224 0.035126 -0.007871
v 0.000000 0.035126 -0.025470
v 0.024224 0.035126 -0.007871
v 0.014971 0.035126 0.020606
v -0.024224 0.035126 0.007871
v -0.014971 0.035126 -0.020606
v 0.000356 0.036649 -0.000703
v 0.020496 0.206930 0.005840
v 0.000356 0.076684 -0.018769
v 0.000356 0.170273 -0.014347
v 0.010975 0.076684 -0.015319
v 0.008375 0.170273 -0.011741
v 0.017538 0.076684 -0.006286
v 0.013332 0.170273 -0.004920
v 0.017538 0.076684 0.004879
v 0.013332 0.170273 0.003513
v 0.010975 0.076684 0.013912
v 0.008375 0.170273 0.010334
v 0.000356 0.076684 0.017362
v 0.000356 0.170273 0.012940
v -0.010263 0.076684 0.013912
v -0.007663 0.170273 0.010334
v -0.016826 0.076684 0.004879
v -0.012620 0.170273 0.003513
v -0.016826 0.076684 -0.006286
v -0.012620 0.170273 -0.004920
v -0.010263 0.076684 -0.015319
v -0.007663 0.170273 -0.011741
v 0.000356 0.211261 -0.000703
v 0.000356 0.211261 -0.016220
v 0.009477 0.211261 -0.013257
v 0.015113 0.211261 -0.005499
v 0.015113 0.211261 0.004092
v 0.009477 0.211261 0.011850
v 0.000356 0.211261 0.014813
v -0.008765 0.211261 0.011850
v -0.014402 0.211261 0.004092
v -0.014402 0.211261 -0.005499
v -0.008765 0.211261 -0.013257
v 0.020496 0.206930 -0.007247
v 0.000356 0.206930 0.020473
v 0.012803 0.206930 0.016428
v -0.019784 0.206930 0.005840
v -0.012091 0.206930 0.016428
v -0.019784 0.206930 -0.007247
v 0.012803 0.206930 -0.017835
v 0.000356 0.206930 -0.021880
v -0.012091 0.206930 -0.017835
v 0.000356 0.075159 -0.027282
v 0.015979 0.075159 -0.022206
v 0.025634 0.075159 -0.008917
v 0.025634 0.075159 0.007510
v 0.015979 0.075159 0.020799
v 0.000356 0.075159 0.025875
v -0.015267 0.075159 0.020799
v -0.024922 0.075159 0.007510
v -0.024922 0.075159 -0.008917
v -0.015267 0.075159 -0.022206
v 0.000356 0.036649 -0.025910
v 0.015172 0.036649 -0.021096
v 0.024328 0.036649 -0.008493
v 0.024328 0.036649 0.007086
v 0.015172 0.036649 0.019689
v 0.000356 0.036649 0.024503
v -0.014460 0.036649 0.019689
v -0.023616 0.036649 0.007086
v -0.023616 0.036649 -0.008493
v -0.014460 0.036649 -0.021096
vt 0.412724 0.616673
vt 0.420330 0.636732
vt 0.412724 0.641467
vt 0.373835 0.646424
vt 0.388370 0.651209
vt 0.386135 0.654280
vt 0.373835 0.650231
vt 0.334916 0.605052
vt 0.349098 0.605052
vt 0.350317 0.617449
vt 0.336136 0.617449
vt 0.405117 0.636732
vt 0.350317 0.663442
vt 0.359300 0.651097
vt 0.361535 0.654186
vt 0.353934 0.664633
vt 0.350317 0.632772
vt 0.336136 0.632772
vt 0.400416 0.624335
vt 0.359300 0.691158
vt 0.350318 0.678744
vt 0.353934 0.677582
vt 0.361535 0.688087
vt 0.349098 0.645169
vt 0.334916 0.645169
vt 0.400416 0.609012
vt 0.388370 0.691270
vt 0.373835 0.695942
vt 0.373835 0.692135
vt 0.386135 0.688181
vt 0.390085 0.726100
vt 0.378048 0.724058
vt 0.375485 0.711050
vt 0.387523 0.713091
vt 0.405117 0.596615
vt 0.378048 0.695942
vt 0.390085 0.697984
vt 0.412724 0.591880
vt 0.397353 0.678925
vt 0.393737 0.677734
vt 0.428102 0.692505
vt 0.441959 0.692505
vt 0.439703 0.704901
vt 0.425846 0.704901
vt 0.420330 0.596615
vt 0.397353 0.663623
vt 0.393737 0.664785
vt 0.439703 0.720224
vt 0.425846 0.720224
vt 0.425032 0.609012
vt 0.441959 0.732621
vt 0.428102 0.732621
vt 0.425032 0.624335
vt 0.437241 0.609012
vt 0.437241 0.624335
vt 0.432540 0.636732
vt 0.365910 0.612167
vt 0.361867 0.628419
vt 0.350317 0.627979
vt 0.355501 0.607145
vt 0.389126 0.585699
vt 0.390460 0.572150
vt 0.400180 0.574511
vt 0.398471 0.591880
vt 0.318922 0.625340
vt 0.310665 0.613432
vt 0.318746 0.605052
vt 0.329331 0.620317
vt 0.390460 0.555403
vt 0.389126 0.541854
vt 0.398471 0.535673
vt 0.400180 0.553042
vt 0.321251 0.655980
vt 0.322966 0.641592
vt 0.334515 0.641151
vt 0.332316 0.659597
vt 0.374167 0.600260
vt 0.366086 0.591880
vt 0.363581 0.642808
vt 0.352516 0.646424
vt 0.294292 0.695584
vt 0.311040 0.695584
vt 0.313401 0.702300
vt 0.291931 0.702300
vt 0.411137 0.691148
vt 0.397353 0.692505
vt 0.406744 0.668368
vt 0.414724 0.667583
vt 0.300910 0.592787
vt 0.290921 0.578983
vt 0.303769 0.574115
vt 0.309551 0.582106
vt 0.431002 0.585947
vt 0.413964 0.585947
vt 0.417551 0.558694
vt 0.427415 0.558694
vt 0.437241 0.591880
vt 0.451618 0.595140
vt 0.457368 0.610300
vt 0.449045 0.608413
vt 0.441959 0.692505
vt 0.428175 0.691148
vt 0.424588 0.667583
vt 0.432568 0.668368
vt 0.400180 0.583438
vt 0.409571 0.557241
vt 0.468490 0.592772
vt 0.467136 0.608929
vt 0.416798 0.726680
vt 0.399926 0.724312
vt 0.405676 0.709152
vt 0.415444 0.710523
vt 0.444786 0.583438
vt 0.435395 0.557241
vt 0.296182 0.659597
vt 0.309149 0.659597
vt 0.309637 0.684184
vt 0.295695 0.684184
vt 0.351350 0.570260
vt 0.351350 0.557293
vt 0.377101 0.556805
vt 0.377101 0.570747
vt 0.287547 0.648456
vt 0.284416 0.635872
vt 0.306402 0.629900
vt 0.309768 0.643430
vt 0.397285 0.635284
vt 0.398613 0.646424
vt 0.376492 0.642235
vt 0.375064 0.630257
vt 0.319640 0.661506
vt 0.320916 0.686237
vt 0.286219 0.659597
vt 0.308340 0.655407
vt 0.350317 0.546802
vt 0.375991 0.545527
vt 0.285692 0.661506
vt 0.284416 0.686237
vt 0.350317 0.580750
vt 0.375991 0.582026
vt 0.400416 0.622700
vt 0.378430 0.616728
vt 0.385304 0.606816
vt 0.299528 0.619988
vt 0.317071 0.598107
vt 0.333233 0.592911
vt 0.337731 0.598505
vt 0.317367 0.605052
vt 0.343221 0.579184
vt 0.350317 0.581208
vt 0.343221 0.562170
vt 0.350317 0.559769
vt 0.333233 0.548366
vt 0.337731 0.542376
vt 0.317071 0.543047
vt 0.317367 0.535673
vt 0.300910 0.548242
vt 0.297002 0.542220
vt 0.290921 0.561969
vt 0.284416 0.559516
vt 0.284416 0.580956
vt 0.297002 0.598349
vt 0.409035 0.692505
vt 0.416798 0.693594
vt 0.426403 0.536827
vt 0.432745 0.535673
vt 0.409394 0.647048
vt 0.415736 0.646424
vt 0.397353 0.711039
vt 0.402420 0.694005
vt 0.418563 0.536827
vt 0.460727 0.626948
vt 0.454112 0.625447
vt 0.423576 0.646424
vt 0.429918 0.647048
vt 0.412221 0.535673
vt 0.468490 0.625858
vt 0.296448 0.714967
vt 0.289012 0.704691
vt 0.296448 0.702300
vt 0.284416 0.711006
vt 0.284416 0.718835
vt 0.289012 0.725186
vt 0.296448 0.727634
vt 0.303884 0.725243
vt 0.308480 0.718927
vt 0.308480 0.711099
vt 0.303884 0.704748
vt 0.354369 0.711816
vt 0.357636 0.716306
vt 0.355124 0.719782
vt 0.350317 0.713177
vt 0.469027 0.725185
vt 0.462844 0.723198
vt 0.464340 0.720801
vt 0.468870 0.722258
vt 0.443213 0.711334
vt 0.444994 0.665329
vt 0.448392 0.664995
vt 0.447711 0.710891
vt 0.362923 0.700102
vt 0.357636 0.701801
vt 0.355124 0.698443
vt 0.362901 0.695942
vt 0.479030 0.717870
vt 0.475209 0.723150
vt 0.473400 0.720766
vt 0.476200 0.716897
vt 0.452591 0.664995
vt 0.453272 0.710891
vt 0.362923 0.718031
vt 0.368209 0.716331
vt 0.370679 0.719819
vt 0.362902 0.722319
vt 0.475209 0.706110
vt 0.479030 0.711361
vt 0.476200 0.712128
vt 0.473400 0.708280
vt 0.455988 0.665329
vt 0.457770 0.711334
vt 0.371476 0.711857
vt 0.371476 0.706316
vt 0.375485 0.705085
vt 0.375485 0.713236
vt 0.462844 0.706157
vt 0.469027 0.704122
vt 0.468870 0.706824
vt 0.464340 0.708315
vt 0.337975 0.659597
vt 0.335316 0.698627
vt 0.331891 0.699839
vt 0.333440 0.661201
vt 0.368209 0.701826
vt 0.370679 0.698480
vt 0.327693 0.699745
vt 0.327880 0.661076
vt 0.354369 0.706276
vt 0.350317 0.705026
vt 0.483048 0.562580
vt 0.481266 0.608027
vt 0.477869 0.607408
vt 0.478549 0.561761
vt 0.472510 0.624188
vt 0.479028 0.624188
vt 0.478157 0.626948
vt 0.473381 0.626948
vt 0.473669 0.607408
vt 0.472989 0.561761
vt 0.459023 0.711438
vt 0.461540 0.712184
vt 0.470272 0.608027
vt 0.468490 0.562580
vt 0.459023 0.717947
vt 0.461540 0.716953
vt 0.465988 0.702643
vt 0.465801 0.663974
vt 0.469999 0.663880
vt 0.471547 0.702518
vt 0.473424 0.665092
vt 0.476083 0.704122
vt 0.468870 0.714541
vt 0.470766 0.646424
vt 0.476083 0.648305
vt 0.441959 0.646943
vt 0.447232 0.646424
vt 0.464250 0.646571
vt 0.332659 0.717295
vt 0.326142 0.717148
vt 0.453750 0.646424
vt 0.459023 0.646943
vt 0.462433 0.665338
vt 0.459023 0.648688
vt 0.324325 0.698381
vt 0.320916 0.715031
vt 0.337975 0.715414
vt 0.464494 0.580588
vt 0.463842 0.587207
vt 0.444786 0.586653
vt 0.445404 0.580377
vt 0.339319 0.732094
vt 0.340524 0.738712
vt 0.322058 0.738159
vt 0.320916 0.731883
vt 0.463842 0.565789
vt 0.464494 0.572407
vt 0.445404 0.572619
vt 0.444786 0.566342
vt 0.460665 0.565789
vt 0.453587 0.565726
vt 0.448369 0.549991
vt 0.455081 0.550051
vt 0.340524 0.717295
vt 0.339319 0.723913
vt 0.320916 0.724124
vt 0.322058 0.717848
vt 0.452115 0.643525
vt 0.445417 0.645813
vt 0.445763 0.629117
vt 0.452115 0.626948
vt 0.468339 0.562957
vt 0.462360 0.547365
vt 0.437241 0.645540
vt 0.438009 0.628858
vt 0.456563 0.542862
vt 0.444786 0.547208
vt 0.445702 0.542765
vt 0.450766 0.538359
vt 0.458044 0.535673
vt 0.464757 0.535732
vt 0.468339 0.538515
vt 0.467424 0.542958
vn 0.0000 -1.0000 -0.0000
vn -0.0000 1.0000 0.0000
vn -0.0000 0.0000 -1.0000
vn 0.5878 0.0000 -0.8090
vn 0.9511 0.0000 -0.3090
vn 0.9511 0.0000 0.3090
vn 0.5878 0.0000 0.8090
vn -0.0000 0.0000 1.0000
vn -0.5878 0.0000 0.8090
vn -0.9511 0.0000 0.3090
vn -0.9511 0.0000 -0.3090
vn -0.5878 0.0000 -0.8090
vn -0.0000 -0.5190 0.8548
vn 0.5024 -0.5190 0.6915
vn 0.4442 -0.6548 0.6114
vn -0.0000 -0.6548 0.7558
vn 0.8129 -0.5190 0.2641
vn 0.8129 -0.5190 -0.2641
vn 0.7188 -0.6548 -0.2335
vn 0.7188 -0.6548 0.2335
vn -0.8129 -0.5190 -0.2641
vn -0.8129 -0.5190 0.2641
vn -0.7188 -0.6548 0.2335
vn -0.7188 -0.6548 -0.2335
vn 0.5024 -0.5190 -0.6915
vn -0.0000 -0.5190 -0.8548
vn -0.0000 -0.6548 -0.7558
vn 0.4442 -0.6548 -0.6114
vn -0.5024 -0.5190 -0.6915
vn -0.4442 -0.6548 -0.6114
vn -0.5024 -0.5190 0.6915
vn -0.4442 -0.6548 0.6114
vn 0.5342 0.4171 -0.7353
vn 0.0000 0.4171 -0.9089
vn 0.0000 0.2936 -0.9559
vn 0.5619 0.2936 -0.7734
vn 0.5342 0.4171 0.7353
vn 0.8644 0.4171 0.2809
vn 0.9092 0.2936 0.2954
vn 0.5619 0.2936 0.7734
vn -0.8644 0.4171 0.2809
vn -0.5342 0.4171 0.7353
vn -0.5619 0.2936 0.7734
vn -0.9092 0.2936 0.2954
vn -0.5342 0.4171 -0.7353
vn -0.5619 0.2936 -0.7734
vn 0.8644 0.4171 -0.2809
vn 0.9092 0.2936 -0.2954
vn 0.0000 0.4171 0.9089
vn 0.0000 0.2936 0.9559
vn -0.8644 0.4171 -0.2809
vn -0.9092 0.2936 -0.2954
vn -0.9493 -0.0610 0.3084
vn -0.5867 -0.0610 0.8075
vn -0.5754 -0.2040 0.7920
vn -0.9311 -0.2040 0.3025
vn 0.9493 -0.0610 -0.3084
vn 0.5867 -0.0610 -0.8075
vn 0.5754 -0.2040 -0.7920
vn 0.9311 -0.2040 -0.3025
vn -0.5867 -0.0610 -0.8075
vn -0.9493 -0.0610 -0.3084
vn -0.9311 -0.2040 -0.3025
vn -0.5754 -0.2040 -0.7920
vn 0.5867 -0.0610 0.8075
vn 0.9493 -0.0610 0.3084
vn 0.9311 -0.2040 0.3025
vn 0.5754 -0.2040 0.7920
vn -0.0000 -0.0610 0.9981
vn -0.0000 -0.2040 0.9790
vn -0.0000 -0.0610 -0.9981
vn -0.0000 -0.2040 -0.9790
vn -0.0000 0.8694 -0.4941
vn 0.2904 0.8694 -0.3998
vn 0.4700 0.8694 -0.1527
vn 0.4700 0.8694 0.1527
vn 0.2904 0.8694 0.3998
vn -0.0000 0.8694 0.4941
vn -0.2904 0.8694 0.3998
vn -0.4700 0.8694 0.1527
vn -0.4700 0.8694 -0.1527
vn -0.2904 0.8694 -0.3998
vn 0.5813 0.1487 0.8000
vn 0.0000 0.1487 0.9889
vn -0.9405 0.1487 0.3056
vn -0.9405 0.1487 -0.3056
vn 0.0000 0.1487 -0.9889
vn 0.5813 0.1487 -0.8000
vn 0.9405 0.1487 0.3056
vn -0.5813 0.1487 0.8000
vn -0.5812 0.1487 -0.8000
vn 0.9405 0.1487 -0.3056
vn 0.1677 0.9843 -0.0545
vn 0.1677 0.9843 0.0545
vn 0.5780 0.7941 -0.1878
vn 0.3572 0.7941 -0.4917
vn 0.2209 0.9267 -0.3041
vn 0.3574 0.9267 -0.1161
vn -0.0000 0.0472 -0.9989
vn 0.0000 -0.0796 -0.9968
vn 0.5859 -0.0796 -0.8064
vn 0.5871 0.0472 -0.8081
vn -0.1037 0.9843 -0.1427
vn -0.0000 0.9843 -0.1763
vn 0.3572 0.7941 0.4917
vn 0.5780 0.7941 0.1878
vn 0.3574 0.9267 0.1161
vn 0.2209 0.9267 0.3041
vn 0.9480 -0.0796 -0.3080
vn 0.9500 0.0472 -0.3087
vn 0.1037 0.9843 0.1427
vn -0.0000 0.9843 0.1763
vn -0.3572 0.7941 0.4917
vn -0.0000 0.7941 0.6077
vn -0.0000 0.9267 0.3758
vn -0.2209 0.9267 0.3041
vn 0.9480 -0.0796 0.3080
vn 0.9500 0.0472 0.3087
vn -0.1037 0.9843 0.1427
vn -0.1677 0.9843 0.0545
vn -0.5780 0.7941 -0.1878
vn -0.5780 0.7941 0.1878
vn -0.3574 0.9267 0.1161
vn -0.3574 0.9267 -0.1161
vn 0.5859 -0.0796 0.8064
vn 0.5871 0.0472 0.8081
vn -0.1677 0.9843 -0.0545
vn 0.0000 -0.0796 0.9968
vn -0.0000 0.0472 0.9989
vn 0.1037 0.9843 -0.1427
vn -0.5859 -0.0796 0.8064
vn -0.5871 0.0472 0.8081
vn -0.9480 -0.0796 0.3080
vn -0.9500 0.0472 0.3087
vn -0.3572 0.7941 -0.4917
vn -0.2209 0.9267 -0.3041
vn -0.9480 -0.0796 -0.3080
vn -0.9500 0.0472 -0.3087
vn -0.0000 0.7941 -0.6077
vn -0.0000 0.9267 -0.3758
vn -0.5859 -0.0796 -0.8064
vn -0.5871 0.0472 -0.8081
vn -0.5758 -0.2013 -0.7925
vn -0.0000 -0.2013 -0.9795
vn 0.5758 -0.2013 -0.7925
vn -0.9316 -0.2013 -0.3027
vn -0.5758 -0.2013 0.7925
vn -0.9316 -0.2013 0.3027
vn 0.5758 -0.2013 0.7925
vn -0.0000 -0.2013 0.9795
vn 0.9316 -0.2013 -0.3027
vn 0.9316 -0.2013 0.3027
vn 0.9505 -0.0356 -0.3088
vn 0.9505 -0.0356 0.3088
vn -0.9505 -0.0356 0.3088
vn -0.9505 -0.0356 -0.3088
vn -0.0000 -0.0356 -0.9994
vn 0.5874 -0.0356 -0.8085
vn -0.5874 -0.0356 -0.8085
vn -0.0000 -0.0356 0.9994
vn -0.5874 -0.0356 0.8085
vn 0.5874 -0.0356 0.8085
usemtl MAT_Atlas
s 1
f 1/1/1 3/2/1 5/3/1
f 14/4/2 12/5/2 28/6/2 29/7/2
f 3/8/3 4/9/3 6/10/4 5/11/4
f 1/1/1 5/3/1 7/12/1
f 18/13/2 16/14/2 30/15/2 31/16/2
f 5/11/4 6/10/4 8/17/5 7/18/5
f 1/1/1 7/12/1 9/19/1
f 22/20/2 20/21/2 32/22/2 33/23/2
f 7/18/5 8/17/5 10/24/6 9/25/6
f 1/1/1 9/19/1 11/26/1
f 6/27/2 4/28/2 24/29/2 25/30/2
f 9/31/6 10/32/6 12/33/7 11/34/7
f 1/1/1 11/26/1 13/35/1
f 4/28/2 22/20/2 33/23/2 24/29/2
f 11/34/7 12/33/7 14/36/8 13/37/8
f 1/1/1 13/35/1 15/38/1
f 8/39/2 6/27/2 25/30/2 26/40/2
f 13/41/8 14/42/8 16/43/9 15/44/9
f 1/1/1 15/38/1 17/45/1
f 12/5/2 10/46/2 27/47/2 28/6/2
f 15/44/9 16/43/9 18/48/10 17/49/10
f 1/1/1 17/45/1 19/50/1
f 16/14/2 14/4/2 29/7/2 30/15/2
f 17/49/10 18/48/10 20/51/11 19/52/11
f 1/1/1 19/50/1 21/53/1
f 20/21/2 18/13/2 31/16/2 32/22/2
f 19/50/11 20/54/11 22/55/12 21/53/12
f 1/1/1 21/53/1 3/2/1
f 10/46/2 8/39/2 26/40/2 27/47/2
f 21/53/12 22/55/12 4/56/3 3/2/3
f 53/57/13 59/58/14 38/59/15 68/60/16
f 54/61/17 61/62/18 36/63/19 66/64/20
f 55/65/21 62/66/22 41/67/23 71/68/24
f 56/69/25 58/70/26 34/71/27 63/72/28
f 58/73/26 60/74/29 43/75/30 34/76/27
f 57/77/31 53/57/13 68/60/16 69/78/32
f 59/58/14 54/79/17 66/80/20 38/59/15
f 60/74/29 55/65/21 71/68/24 43/75/30
f 61/62/18 56/69/25 63/72/28 36/63/19
f 62/81/22 57/82/31 69/83/32 41/84/23
f 40/85/33 39/86/34 75/87/35 76/88/36
f 72/89/37 42/90/38 77/91/39 82/92/40
f 65/93/41 35/94/42 73/95/43 79/96/44
f 39/97/34 67/98/45 80/99/46 75/100/35
f 42/101/38 70/102/47 81/103/48 77/104/39
f 35/94/42 64/105/49 78/106/50 73/95/43
f 67/98/45 37/107/51 74/108/52 80/99/46
f 70/102/47 40/85/33 76/88/36 81/103/48
f 64/109/49 72/110/37 82/111/40 78/112/50
f 37/113/51 65/93/41 79/96/44 74/114/52
f 31/115/53 30/116/54 52/117/55 51/118/56
f 26/119/57 25/120/58 50/121/59 49/122/60
f 33/123/61 32/124/62 48/125/63 47/126/64
f 28/127/65 27/128/66 46/129/67 45/130/68
f 30/116/54 29/131/69 44/132/70 52/117/55
f 24/133/71 33/123/61 47/126/64 23/134/72
f 25/120/58 24/135/71 23/136/72 50/121/59
f 32/137/62 31/115/53 51/118/56 48/138/63
f 27/139/66 26/119/57 49/122/60 46/140/67
f 29/141/69 28/127/65 45/130/68 44/142/70
f 51/118/56 52/117/55 57/82/31 62/81/22
f 49/122/60 50/121/59 56/69/25 61/62/18
f 47/126/64 48/125/63 55/65/21 60/74/29
f 45/130/68 46/129/67 54/79/17 59/58/14
f 52/143/55 44/142/70 53/57/13 57/77/31
f 23/134/72 47/126/64 60/74/29 58/73/26
f 50/121/59 23/136/72 58/70/26 56/69/25
f 48/125/63 51/144/56 62/66/22 55/65/21
f 46/140/67 49/122/60 61/62/18 54/61/17
f 44/142/70 45/130/68 59/58/14 53/57/13
f 64/145/73 35/146/74 63/147/74 34/148/73
f 35/146/74 65/149/75 36/150/75 63/147/74
f 65/149/75 37/151/76 66/152/76 36/150/75
f 37/151/76 67/153/77 38/154/77 66/152/76
f 67/153/77 39/155/78 68/156/78 38/154/77
f 39/155/78 40/157/79 69/158/79 68/156/78
f 40/157/79 70/159/80 41/160/80 69/158/79
f 70/159/80 42/90/81 71/161/81 41/160/80
f 42/90/81 72/89/82 43/162/82 71/161/81
f 72/89/82 64/145/73 34/148/73 43/162/82
f 78/112/50 82/111/40 92/163/83 88/164/84
f 74/114/52 79/96/44 89/165/85 84/166/86
f 76/88/36 75/87/35 85/167/87 86/168/88
f 82/111/40 77/169/39 87/170/89 92/163/83
f 79/96/44 73/95/43 83/171/90 89/165/85
f 75/100/35 80/99/46 90/172/91 85/173/87
f 77/104/39 81/103/48 91/174/92 87/175/89
f 73/95/43 78/106/50 88/176/84 83/171/90
f 80/99/46 74/108/52 84/177/86 90/172/91
f 81/103/48 76/88/36 86/168/88 91/174/92
f 2/178/2 83/179/2 88/180/2
f 2/178/2 89/181/2 83/179/2
f 2/178/2 84/182/2 89/181/2
f 2/178/2 90/183/2 84/182/2
f 2/178/2 85/184/2 90/183/2
f 2/178/2 86/185/2 85/184/2
f 2/178/2 91/186/2 86/185/2
f 2/178/2 87/187/2 91/186/2
f 2/178/2 92/188/2 87/187/2
f 2/178/2 88/180/2 92/188/2
f 99/189/93 101/190/94 138/191/94 137/192/93
f 126/193/95 132/194/96 117/195/97 118/196/98
f 95/197/99 96/198/100 98/199/101 97/200/102
f 113/201/103 95/202/104 135/203/104 144/204/103
f 128/205/105 94/206/106 119/207/107 120/208/108
f 97/200/102 98/199/101 100/209/109 99/210/110
f 103/211/111 105/212/112 140/213/112 139/214/111
f 130/215/113 127/216/114 121/217/115 122/218/116
f 99/210/110 100/209/109 102/219/117 101/220/118
f 107/221/119 109/222/120 142/223/120 141/224/119
f 131/225/121 129/226/122 123/227/123 124/228/124
f 101/229/118 102/230/117 104/231/125 103/232/126
f 111/233/127 113/201/103 144/204/103 143/234/127
f 94/206/106 126/193/95 118/196/98 119/207/107
f 103/232/126 104/231/125 106/235/128 105/236/129
f 97/237/130 99/189/93 137/192/93 136/238/130
f 127/216/114 128/205/105 120/208/108 121/217/115
f 105/239/129 106/240/128 108/241/131 107/242/132
f 101/190/94 103/211/111 139/214/111 138/191/94
f 129/243/122 130/244/113 122/245/116 123/246/123
f 107/242/132 108/241/131 110/247/133 109/248/134
f 95/202/104 97/237/130 136/238/130 135/203/104
f 134/249/135 131/225/121 124/228/124 125/250/136
f 109/248/134 110/247/133 112/251/137 111/252/138
f 105/212/112 107/221/119 141/224/119 140/213/112
f 132/194/96 133/253/139 116/254/140 117/195/97
f 111/255/138 112/256/137 114/257/141 113/258/142
f 109/222/120 111/233/127 143/234/127 142/223/120
f 133/253/139 134/249/135 125/250/136 116/254/140
f 113/258/142 114/257/141 96/259/100 95/260/99
f 115/261/2 117/195/97 116/254/140
f 115/261/2 118/196/98 117/195/97
f 115/261/2 119/207/107 118/196/98
f 115/261/2 120/208/108 119/207/107
f 115/261/2 121/217/115 120/208/108
f 115/261/2 122/218/116 121/217/115
f 115/261/2 123/227/123 122/218/116
f 115/261/2 124/228/124 123/227/123
f 115/261/2 125/250/136 124/228/124
f 115/261/2 116/254/140 125/250/136
f 96/259/100 114/257/141 134/262/143 133/263/144
f 98/199/101 96/198/100 133/264/144 132/265/145
f 114/257/141 112/256/137 131/266/146 134/262/143
f 110/247/133 108/241/131 130/244/147 129/243/148
f 106/235/128 104/231/125 128/267/149 127/268/150
f 102/219/117 100/209/109 126/269/151 94/270/152
f 112/256/137 110/271/133 129/272/148 131/266/146
f 108/273/131 106/235/128 127/268/150 130/274/147
f 104/231/125 102/230/117 94/275/152 128/267/149
f 100/209/109 98/199/101 132/265/145 126/269/151
f 137/276/153 138/277/154 148/278/154 147/279/153
f 142/280/155 143/281/156 153/282/156 152/283/155
f 135/284/157 136/285/158 146/286/158 145/287/157
f 144/288/159 135/289/157 145/290/157 154/291/159
f 140/292/160 141/293/161 151/294/161 150/295/160
f 138/296/154 139/297/162 149/298/162 148/299/154
f 143/300/156 144/288/159 154/291/159 153/301/156
f 136/285/158 137/276/153 147/279/153 146/286/158
f 141/293/161 142/280/155 152/283/155 151/294/161
f 139/297/162 140/302/160 150/303/160 149/298/162
f 93/304/1 145/290/1 146/305/1
f 93/304/1 146/305/1 147/306/1
f 93/304/1 147/306/1 148/307/1
f 93/304/1 148/307/1 149/308/1
f 93/304/1 149/308/1 150/309/1
f 93/304/1 150/309/1 151/310/1
f 93/304/1 151/310/1 152/311/1
f 93/304/1 152/311/1 153/301/1
f 93/304/1 153/301/1 154/291/1
f 93/304/1 154/291/1 145/290/1
