# Blender v3.2.0 OBJ File: 'Props3Scaled.blend'
# www.blender.org
mtllib Scissors.mtl
o Scissors_Plane
v -0.038718 0.010353 0.123078
v 0.001103 0.010353 0.021659
v -0.052502 0.010353 0.114157
v -0.013022 0.010353 -0.002725
v -0.032816 0.010353 0.108420
v -0.047654 0.010353 0.099806
v -0.017340 0.010353 0.137765
v -0.012890 0.010353 0.126571
v 0.058659 0.010353 -0.136473
v 0.044533 0.007591 -0.160857
v 0.037543 0.010353 -0.009968
v 0.066468 0.010353 -0.087416
v 0.029680 0.007591 -0.120048
v 0.001405 0.007591 -0.042363
v 0.063607 0.010353 -0.045132
v 0.015755 0.007591 -0.081791
v 0.025315 0.000161 0.119054
v -0.005516 0.000161 0.014551
v 0.039823 0.000161 0.111369
v 0.010681 0.000161 -0.008509
v 0.020712 0.000161 0.103938
v 0.036244 0.000161 0.096650
v 0.002738 0.000161 0.131822
v -0.000720 0.000161 0.120284
v -0.049071 0.000161 -0.147996
v -0.032873 0.002923 -0.171055
v -0.039061 0.000161 -0.020131
v -0.061126 0.000161 -0.099807
v -0.021634 0.002923 -0.129108
v -0.000237 0.002923 -0.049254
v -0.061961 0.000161 -0.057433
v -0.011096 0.002923 -0.089782
v -0.038718 0.004830 0.123078
v 0.001103 0.004830 0.021659
v -0.052502 0.004830 0.114157
v -0.013022 0.004830 -0.002725
v -0.032816 0.004830 0.108420
v -0.047654 0.004830 0.099806
v -0.017340 0.004830 0.137765
v -0.012890 0.004830 0.126571
v 0.058659 0.004830 -0.136473
v 0.037543 0.004830 -0.009968
v 0.066468 0.004830 -0.087416
v 0.063607 0.004830 -0.045132
v 0.025315 0.005684 0.119054
v -0.005516 0.005684 0.014551
v 0.039823 0.005684 0.111369
v 0.010681 0.005684 -0.008509
v 0.020712 0.005684 0.103938
v 0.036244 0.005684 0.096650
v 0.002738 0.005684 0.131822
v -0.000720 0.005684 0.120284
v -0.049071 0.005684 -0.147996
v -0.039061 0.005684 -0.020131
v -0.061126 0.005684 -0.099807
v -0.061961 0.005684 -0.057433
v 0.000127 0.012346 0.008705
v -0.008645 0.012346 -0.000306
v 0.000127 -0.004056 0.008705
v -0.008645 -0.004056 -0.000306
v 0.009138 0.012346 -0.000067
v 0.000366 0.012346 -0.009078
v 0.009138 -0.004056 -0.000067
v 0.000366 -0.004056 -0.009078
v 0.006278 -0.004056 0.006010
v -0.005785 -0.004056 -0.006382
v 0.006278 0.012346 0.006010
v -0.005785 0.012346 -0.006382
v -0.005950 0.012346 0.005846
v -0.005950 -0.004056 0.005846
v 0.006443 -0.004056 -0.006218
v 0.006443 0.012346 -0.006218
v 0.000247 0.012346 -0.000186
v 0.000247 -0.004056 -0.000186
vt 0.206021 0.483407
vt 0.205425 0.458177
vt 0.211280 0.453279
vt 0.210597 0.482589
vt 0.206165 0.487686
vt 0.210501 0.486692
vt 0.199362 0.489444
vt 0.199266 0.486182
vt 0.211282 0.419448
vt 0.198891 0.424353
vt 0.205425 0.412588
vt 0.211282 0.407683
vt 0.199079 0.446750
vt 0.211282 0.441845
vt 0.211282 0.430478
vt 0.195702 0.435382
vt 0.174859 0.483407
vt 0.174263 0.458177
vt 0.180118 0.453279
vt 0.179435 0.482589
vt 0.175003 0.487686
vt 0.179339 0.486692
vt 0.168200 0.489444
vt 0.168104 0.486182
vt 0.180120 0.419448
vt 0.167729 0.424353
vt 0.174263 0.412588
vt 0.180120 0.407683
vt 0.167917 0.446750
vt 0.180120 0.441845
vt 0.180120 0.430478
vt 0.164539 0.435382
vt 0.159278 0.413720
vt 0.163853 0.414538
vt 0.164538 0.443848
vt 0.158682 0.438950
vt 0.159423 0.409441
vt 0.163758 0.410435
vt 0.152523 0.410945
vt 0.152619 0.407683
vt 0.164539 0.477679
vt 0.164539 0.489444
vt 0.158682 0.484539
vt 0.152148 0.472774
vt 0.164539 0.455282
vt 0.152335 0.450377
vt 0.164539 0.466649
vt 0.148959 0.461744
vt 0.190440 0.413720
vt 0.195016 0.414538
vt 0.195700 0.443848
vt 0.189844 0.438950
vt 0.190585 0.409441
vt 0.194920 0.410435
vt 0.183685 0.410945
vt 0.183781 0.407683
vt 0.195702 0.477679
vt 0.195702 0.489444
vt 0.189844 0.484539
vt 0.183310 0.472774
vt 0.195702 0.455282
vt 0.183498 0.450377
vt 0.195702 0.466649
vt 0.180120 0.461744
vt 0.212778 0.455989
vt 0.212778 0.451543
vt 0.214275 0.451543
vt 0.214275 0.455989
vt 0.212778 0.453001
vt 0.212778 0.478146
vt 0.211282 0.478146
vt 0.211282 0.453001
vt 0.214275 0.407683
vt 0.214275 0.411692
vt 0.212778 0.411692
vt 0.212778 0.407683
vt 0.214275 0.440327
vt 0.212778 0.440327
vt 0.215771 0.457852
vt 0.215771 0.461105
vt 0.214275 0.461105
vt 0.214275 0.457852
vt 0.212778 0.463016
vt 0.214275 0.463016
vt 0.214270 0.470237
vt 0.214270 0.463016
vt 0.215766 0.463016
vt 0.215766 0.470237
vt 0.215763 0.457852
vt 0.214275 0.451121
vt 0.215763 0.450958
vt 0.212778 0.407683
vt 0.212778 0.418664
vt 0.211282 0.418664
vt 0.211282 0.407683
vt 0.213527 0.451543
vt 0.212778 0.440948
vt 0.211282 0.440948
vt 0.212778 0.429280
vt 0.211282 0.429280
vt 0.217268 0.413492
vt 0.217268 0.417099
vt 0.215771 0.417099
vt 0.215771 0.413492
vt 0.214275 0.427293
vt 0.214275 0.407683
vt 0.215771 0.407683
vt 0.215771 0.427293
vt 0.217268 0.420246
vt 0.215771 0.420246
vt 0.217268 0.442727
vt 0.215771 0.442727
vt 0.217268 0.432392
vt 0.217268 0.429844
vt 0.218764 0.429844
vt 0.218764 0.432392
vt 0.217268 0.407683
vt 0.215771 0.407683
vt 0.215766 0.470237
vt 0.215766 0.477026
vt 0.214270 0.477026
vt 0.214270 0.470237
vt 0.216520 0.442727
vt 0.217268 0.450343
vt 0.215771 0.450343
vt 0.217268 0.463212
vt 0.215771 0.463212
vt 0.214270 0.463016
vt 0.214270 0.471643
vt 0.212778 0.463146
vt 0.214275 0.440110
vt 0.215771 0.440110
vt 0.217268 0.473162
vt 0.215771 0.473162
vt 0.214275 0.450958
vt 0.215771 0.450958
vt 0.218816 0.416514
vt 0.217268 0.416514
vt 0.217268 0.412070
vt 0.218816 0.412070
vt 0.217965 0.475356
vt 0.218788 0.473162
vt 0.220158 0.474359
vt 0.220158 0.476179
vt 0.219067 0.420957
vt 0.217268 0.420957
vt 0.217268 0.416514
vt 0.219067 0.416514
vt 0.219461 0.409877
vt 0.218638 0.407683
vt 0.220457 0.407683
vt 0.221654 0.409054
vt 0.218660 0.425401
vt 0.220479 0.425401
vt 0.220479 0.429844
vt 0.218660 0.429844
vt 0.218753 0.420957
vt 0.220563 0.420957
vt 0.220563 0.425401
vt 0.218753 0.425401
vt 0.217268 0.425401
vt 0.217268 0.425401
vt 0.217268 0.429844
vt 0.217268 0.410700
vt 0.217268 0.408880
vt 0.215771 0.474533
vt 0.216968 0.473162
vt 0.215771 0.476353
vt 0.217142 0.477549
vt 0.218464 0.412070
vt 0.220284 0.412070
vt 0.221654 0.410873
vt 0.220600 0.420957
vt 0.220600 0.416514
vt 0.218961 0.477549
vt 0.220610 0.416514
vt 0.220610 0.412070
vn 0.0000 1.0000 0.0000
vn -0.0992 0.9950 -0.0078
vn -0.0062 0.9991 -0.0431
vn -0.0556 0.9984 -0.0116
vn -0.0454 0.9987 -0.0246
vn -0.0000 -1.0000 0.0000
vn 0.0995 -0.9950 0.0009
vn 0.0099 -0.9991 -0.0424
vn 0.0564 -0.9984 -0.0067
vn 0.0474 -0.9987 -0.0206
vn -0.0992 -0.9950 -0.0078
vn -0.0062 -0.9991 -0.0431
vn -0.0557 -0.9984 -0.0116
vn -0.0454 -0.9987 -0.0246
vn 0.0995 0.9950 0.0009
vn 0.0099 0.9991 -0.0424
vn 0.0564 0.9984 -0.0067
vn 0.0474 0.9987 -0.0206
vn -0.5433 0.0000 0.8395
vn 0.9314 0.0000 0.3641
vn -0.9474 0.0000 -0.3200
vn 0.9293 0.0000 0.3694
vn -0.5663 0.0000 0.8242
vn 0.6734 0.0000 -0.7393
vn 0.8653 0.0000 -0.5013
vn 0.9876 0.0000 -0.1572
vn -0.9397 0.0000 -0.3420
vn 0.6555 0.0000 0.7552
vn 0.9977 0.0000 0.0675
vn 0.8034 0.0000 0.5955
vn 0.4681 -0.0000 0.8837
vn -0.9595 -0.0000 0.2816
vn 0.9717 -0.0000 -0.2362
vn -0.9579 0.0000 0.2870
vn 0.4923 -0.0000 0.8704
vn -0.6064 0.0000 -0.7951
vn -0.8183 0.0000 -0.5748
vn -0.9701 0.0000 -0.2427
vn 0.9659 0.0000 -0.2588
vn -0.7188 -0.0000 0.6952
vn -0.9998 0.0000 -0.0197
vn -0.8522 0.0000 0.5232
vn -0.9159 0.0000 0.4014
vn 0.4258 -0.0000 -0.9048
vn 0.9048 0.0000 0.4258
vn -0.9048 0.0000 -0.4258
vn -0.4014 0.0000 -0.9159
vn 0.4014 -0.0000 0.9159
vn 0.9159 -0.0000 -0.4014
vn -0.4258 0.0000 0.9048
usemtl MAT_Atlas
s off
f 5/1/1 2/2/1 4/3/1 6/4/1
f 1/5/1 5/1/1 6/4/1 3/6/1
f 5/1/1 1/5/1 7/7/1 8/8/1
f 13/9/2 12/10/2 9/11/2 10/12/2
f 4/3/3 2/2/3 11/13/3 14/14/3
f 16/15/4 15/16/4 12/10/4 13/9/4
f 14/14/5 11/13/5 15/16/5 16/15/5
f 21/17/6 18/18/6 20/19/6 22/20/6
f 17/21/6 21/17/6 22/20/6 19/22/6
f 21/17/6 17/21/6 23/23/6 24/24/6
f 29/25/7 28/26/7 25/27/7 26/28/7
f 20/19/8 18/18/8 27/29/8 30/30/8
f 32/31/9 31/32/9 28/26/9 29/25/9
f 30/30/10 27/29/10 31/32/10 32/31/10
f 37/33/6 38/34/6 36/35/6 34/36/6
f 33/37/6 35/38/6 38/34/6 37/33/6
f 37/33/6 40/39/6 39/40/6 33/37/6
f 13/41/11 10/42/11 41/43/11 43/44/11
f 36/35/12 14/45/12 42/46/12 34/36/12
f 16/47/13 13/41/13 43/44/13 44/48/13
f 14/45/14 16/47/14 44/48/14 42/46/14
f 49/49/1 50/50/1 48/51/1 46/52/1
f 45/53/1 47/54/1 50/50/1 49/49/1
f 49/49/1 52/55/1 51/56/1 45/53/1
f 29/57/15 26/58/15 53/59/15 55/60/15
f 48/51/16 30/61/16 54/62/16 46/52/16
f 32/63/17 29/57/17 55/60/17 56/64/17
f 30/61/18 32/63/18 56/64/18 54/62/18
f 1/65/19 3/66/19 35/67/19 33/68/19
f 2/69/20 5/70/20 37/71/20 34/72/20
f 3/73/21 6/74/21 38/75/21 35/76/21
f 6/74/21 4/77/21 36/78/21 38/75/21
f 8/79/22 7/80/22 39/81/22 40/82/22
f 7/83/23 1/65/23 33/68/23 39/84/23
f 5/85/24 8/86/24 40/87/24 37/88/24
f 10/89/25 9/90/25 41/91/25
f 9/92/26 12/93/26 43/94/26 41/95/26
f 4/77/27 14/96/27 36/78/27
f 11/97/28 2/69/28 34/72/28 42/98/28
f 12/93/29 15/99/29 44/100/29 43/94/29
f 15/99/30 11/97/30 42/98/30 44/100/30
f 17/101/31 19/102/31 47/103/31 45/104/31
f 18/105/32 21/106/32 49/107/32 46/108/32
f 19/102/33 22/109/33 50/110/33 47/103/33
f 22/109/33 20/111/33 48/112/33 50/110/33
f 24/113/34 23/114/34 51/115/34 52/116/34
f 23/117/35 17/101/35 45/104/35 51/118/35
f 21/119/36 24/120/36 52/121/36 49/122/36
f 26/123/37 25/124/37 53/125/37
f 25/124/38 28/126/38 55/127/38 53/125/38
f 20/128/39 30/129/39 48/130/39
f 27/131/40 18/105/40 46/108/40 54/132/40
f 28/126/41 31/133/41 56/134/41 55/127/41
f 31/135/42 27/131/42 54/132/42 56/136/42
f 69/137/43 58/138/43 60/139/43 70/140/43
f 74/141/6 66/142/6 64/143/6 71/144/6
f 71/145/44 64/146/44 62/147/44 72/148/44
f 73/149/1 68/150/1 58/151/1 69/152/1
f 65/153/45 63/154/45 61/155/45 67/156/45
f 66/157/46 60/158/46 58/159/46 68/160/46
f 64/146/47 66/157/47 68/160/47 62/161/47
f 59/162/48 65/153/48 67/156/48 57/163/48
f 72/164/1 62/165/1 68/150/1 73/149/1
f 70/166/6 60/167/6 66/142/6 74/141/6
f 59/168/6 70/166/6 74/141/6 65/169/6
f 61/170/1 72/164/1 73/149/1 67/171/1
f 67/171/1 73/149/1 69/152/1 57/172/1
f 63/173/49 71/145/49 72/148/49 61/174/49
f 65/169/6 74/141/6 71/144/6 63/175/6
f 57/176/50 69/137/50 70/140/50 59/177/50
