# Blender v3.2.0 OBJ File: 'Props3Scaled.blend'
# www.blender.org
mtllib Weight6.mtl
o Weight6_Cylinder.009
v 0.000000 -0.000466 0.000000
v 0.000000 0.027939 0.000000
v 0.000000 -0.000466 -0.047062
v 0.000000 0.005076 -0.047062
v 0.027663 -0.000466 -0.038074
v 0.027663 0.005076 -0.038074
v 0.044759 -0.000466 -0.014543
v 0.044759 0.005076 -0.014543
v 0.044759 -0.000466 0.014543
v 0.044759 0.005076 0.014543
v 0.027663 -0.000466 0.038074
v 0.027663 0.005076 0.038074
v -0.000000 -0.000466 0.047062
v -0.000000 0.005076 0.047062
v -0.027663 -0.000466 0.038074
v -0.027663 0.005076 0.038074
v -0.044759 -0.000466 0.014543
v -0.044759 0.005076 0.014543
v -0.044759 -0.000466 -0.014543
v -0.044759 0.005076 -0.014543
v -0.027663 -0.000466 -0.038074
v -0.027663 0.005076 -0.038074
v 0.004380 0.005076 -0.006029
v 0.000000 0.005076 -0.007452
v 0.007087 0.005076 -0.002303
v 0.007087 0.005076 0.002303
v 0.004380 0.005076 0.006029
v -0.000000 0.005076 0.007452
v -0.004380 0.005076 0.006029
v -0.007087 0.005076 0.002303
v -0.007087 0.005076 -0.002303
v -0.004380 0.005076 -0.006029
v 0.007459 0.024897 -0.010267
v 0.004380 0.013870 -0.006029
v 0.000000 0.013870 -0.007452
v 0.007087 0.013870 -0.002303
v 0.007087 0.013870 0.002303
v 0.004380 0.013870 0.006029
v -0.000000 0.013870 0.007452
v -0.004380 0.013870 0.006029
v -0.007087 0.013870 0.002303
v -0.007087 0.013870 -0.002303
v -0.004380 0.013870 -0.006029
v 0.004380 0.027939 -0.006029
v 0.000000 0.027939 -0.007452
v 0.007087 0.027939 -0.002303
v 0.007087 0.027939 0.002303
v 0.004380 0.027939 0.006029
v -0.000000 0.027939 0.007452
v -0.004380 0.027939 0.006029
v -0.007087 0.027939 0.002303
v -0.007087 0.027939 -0.002303
v -0.004380 0.027939 -0.006029
v 0.007459 0.016911 -0.010267
v 0.007459 0.024897 0.010267
v 0.007459 0.016911 0.010267
v -0.012070 0.024897 0.003922
v -0.012070 0.016911 0.003922
v 0.000000 0.024897 -0.012691
v 0.000000 0.016911 -0.012691
v 0.012070 0.024897 0.003922
v 0.012070 0.016911 0.003922
v 0.012070 0.016911 -0.003922
v 0.012070 0.024897 -0.003922
v -0.007459 0.024897 0.010267
v -0.007459 0.016911 0.010267
v -0.000000 0.016911 0.012691
v -0.000000 0.024897 0.012691
v -0.007459 0.024897 -0.010267
v -0.007459 0.016911 -0.010267
v -0.012070 0.016911 -0.003922
v -0.012070 0.024897 -0.003922
v 0.007999 0.020904 -0.011010
v 0.007999 0.020904 0.011010
v -0.012943 0.020904 0.004205
v 0.000000 0.020904 -0.013609
v 0.012943 0.020904 0.004205
v 0.012943 0.020904 -0.004205
v -0.007999 0.020904 0.011010
v -0.000000 0.020904 0.013609
v -0.007999 0.020904 -0.011010
v -0.012943 0.020904 -0.004205
vt 0.202851 0.426381
vt 0.202851 0.440811
vt 0.211332 0.438055
vt 0.167862 0.427982
vt 0.167862 0.424781
vt 0.167862 0.424781
vt 0.167862 0.427982
vt 0.217882 0.441412
vt 0.217882 0.471474
vt 0.211869 0.471474
vt 0.211869 0.441412
vt 0.216574 0.430840
vt 0.175834 0.430572
vt 0.172789 0.431562
vt 0.172789 0.431562
vt 0.175834 0.430572
vt 0.205857 0.471474
vt 0.205857 0.441412
vt 0.216574 0.421922
vt 0.175834 0.422191
vt 0.177715 0.424781
vt 0.177715 0.424781
vt 0.175834 0.422191
vt 0.199844 0.471474
vt 0.199844 0.441412
vt 0.211332 0.414708
vt 0.169744 0.422191
vt 0.169744 0.422191
vt 0.193832 0.471474
vt 0.193832 0.441412
vt 0.202851 0.411952
vt 0.169744 0.430572
vt 0.169744 0.430572
vt 0.187820 0.471474
vt 0.187820 0.441412
vt 0.194369 0.414708
vt 0.177715 0.427982
vt 0.177715 0.427982
vt 0.181807 0.471474
vt 0.181807 0.441412
vt 0.189127 0.421922
vt 0.172789 0.421201
vt 0.172789 0.421201
vt 0.175795 0.471474
vt 0.175795 0.441412
vt 0.189127 0.430840
vt 0.169783 0.471474
vt 0.169783 0.441412
vt 0.194369 0.438055
vt 0.163770 0.471474
vt 0.163770 0.441412
vt 0.157758 0.471474
vt 0.157758 0.441412
vt 0.181270 0.438055
vt 0.172789 0.440811
vt 0.186512 0.430840
vt 0.186512 0.421922
vt 0.181270 0.414708
vt 0.172789 0.411952
vt 0.164307 0.414708
vt 0.159065 0.421922
vt 0.159065 0.430840
vt 0.164307 0.438055
vt 0.177715 0.427982
vt 0.175834 0.430572
vt 0.175834 0.430572
vt 0.177715 0.427982
vt 0.172789 0.421201
vt 0.175834 0.422191
vt 0.175834 0.422191
vt 0.172789 0.421201
vt 0.167862 0.427982
vt 0.167862 0.424781
vt 0.167862 0.424781
vt 0.167862 0.427982
vt 0.172789 0.431562
vt 0.172789 0.431562
vt 0.177715 0.424781
vt 0.177715 0.424781
vt 0.169744 0.422191
vt 0.169744 0.422191
vt 0.169744 0.430572
vt 0.169744 0.430572
vt 0.172789 0.426381
vt 0.167862 0.427982
vt 0.169744 0.430572
vt 0.169744 0.430572
vt 0.167862 0.427982
vt 0.172789 0.421201
vt 0.169744 0.422191
vt 0.169744 0.422191
vt 0.172789 0.421201
vt 0.177715 0.427982
vt 0.177715 0.424781
vt 0.177715 0.424781
vt 0.177715 0.427982
vt 0.172789 0.431562
vt 0.172789 0.431562
vt 0.167862 0.424781
vt 0.167862 0.424781
vt 0.175834 0.422191
vt 0.175834 0.422191
vt 0.175834 0.430572
vt 0.175834 0.430572
vn 0.0000 -1.0000 0.0000
vn -0.9511 0.0000 -0.3090
vn -0.9511 0.0000 0.3090
vn 0.0000 0.0000 -1.0000
vn 0.5878 0.0000 -0.8090
vn 0.9511 0.0000 -0.3090
vn 0.5878 0.0000 0.8090
vn 0.9511 0.0000 0.3090
vn -0.5878 0.0000 0.8090
vn -0.5878 0.0000 -0.8090
vn 0.0000 0.0000 1.0000
vn 0.0000 1.0000 0.0000
vn 0.4775 0.8648 -0.1551
vn 0.2951 0.8648 -0.4062
vn 0.1805 0.9517 -0.2484
vn 0.2920 0.9517 -0.0949
vn 0.0000 0.8648 0.5021
vn 0.2951 0.8648 0.4062
vn 0.1805 0.9517 0.2484
vn 0.0000 0.9517 0.3070
vn -0.4775 0.8648 -0.1551
vn -0.4775 0.8648 0.1551
vn -0.2920 0.9517 0.0949
vn -0.2920 0.9517 -0.0949
vn 0.0000 0.8648 -0.5021
vn 0.0000 0.9517 -0.3070
vn 0.4775 0.8648 0.1551
vn 0.2920 0.9517 0.0949
vn -0.2951 0.8648 0.4062
vn -0.1805 0.9517 0.2484
vn -0.2951 0.8648 -0.4062
vn -0.1805 0.9517 -0.2484
vn -0.2951 -0.8648 -0.4062
vn -0.4775 -0.8648 -0.1552
vn -0.9269 0.2240 -0.3012
vn -0.5728 0.2240 -0.7885
vn -0.2951 -0.8648 0.4062
vn 0.0000 -0.8648 0.5021
vn 0.0000 0.2240 0.9746
vn -0.5728 0.2240 0.7885
vn 0.4775 -0.8648 0.1552
vn 0.4775 -0.8648 -0.1552
vn 0.9269 0.2240 -0.3012
vn 0.9269 0.2240 0.3012
vn 0.0000 -0.8648 -0.5021
vn 0.0000 0.2240 -0.9746
vn -0.4775 -0.8648 0.1551
vn -0.4775 -0.8648 0.1552
vn -0.9269 0.2240 0.3012
vn 0.2951 -0.8648 0.4062
vn 0.5728 0.2240 0.7885
vn 0.2951 -0.8648 -0.4062
vn 0.5728 0.2240 -0.7885
vn 0.9269 -0.2240 -0.3012
vn 0.5728 -0.2240 -0.7885
vn 0.0000 -0.2240 0.9746
vn 0.5728 -0.2240 0.7885
vn -0.9269 -0.2240 -0.3012
vn -0.9269 -0.2240 0.3012
vn 0.0000 -0.2240 -0.9746
vn 0.9269 -0.2240 0.3012
vn -0.5729 -0.2240 0.7885
vn -0.5728 -0.2240 -0.7885
usemtl MAT_Atlas
s 1
f 1/1/1 3/2/1 5/3/1
f 31/4/2 30/5/3 41/6/3 42/7/2
f 3/8/4 4/9/4 6/10/5 5/11/5
f 1/1/1 5/3/1 7/12/1
f 23/13/5 24/14/4 35/15/4 34/16/5
f 5/11/5 6/10/5 8/17/6 7/18/6
f 1/1/1 7/12/1 9/19/1
f 27/20/7 26/21/8 37/22/8 38/23/7
f 7/18/6 8/17/6 10/24/8 9/25/8
f 1/1/1 9/19/1 11/26/1
f 30/5/3 29/27/9 40/28/9 41/6/3
f 9/25/8 10/24/8 12/29/7 11/30/7
f 1/1/1 11/26/1 13/31/1
f 24/14/4 32/32/10 43/33/10 35/15/4
f 11/30/7 12/29/7 14/34/11 13/35/11
f 1/1/1 13/31/1 15/36/1
f 26/21/8 25/37/6 36/38/6 37/22/8
f 13/35/11 14/34/11 16/39/9 15/40/9
f 1/1/1 15/36/1 17/41/1
f 29/27/9 28/42/11 39/43/11 40/28/9
f 15/40/9 16/39/9 18/44/3 17/45/3
f 1/1/1 17/41/1 19/46/1
f 32/32/10 31/4/2 42/7/2 43/33/10
f 17/45/3 18/44/3 20/47/2 19/48/2
f 1/1/1 19/46/1 21/49/1
f 25/37/6 23/13/5 34/16/5 36/38/6
f 19/48/2 20/47/2 22/50/10 21/51/10
f 1/1/1 21/49/1 3/2/1
f 28/42/11 27/20/7 38/23/7 39/43/11
f 21/51/10 22/50/10 4/52/4 3/53/4
f 24/14/12 23/13/12 6/54/12 4/55/12
f 23/13/12 25/37/12 8/56/12 6/54/12
f 25/37/12 26/21/12 10/57/12 8/56/12
f 26/21/12 27/20/12 12/58/12 10/57/12
f 27/20/12 28/42/12 14/59/12 12/58/12
f 28/42/12 29/27/12 16/60/12 14/59/12
f 29/27/12 30/5/12 18/61/12 16/60/12
f 30/5/12 31/4/12 20/62/12 18/61/12
f 31/4/12 32/32/12 22/63/12 20/62/12
f 32/32/12 24/14/12 4/55/12 22/63/12
f 64/64/13 33/65/14 44/66/15 46/67/16
f 68/68/17 55/69/18 48/70/19 49/71/20
f 72/72/21 57/73/22 51/74/23 52/75/24
f 33/65/14 59/76/25 45/77/26 44/66/15
f 55/69/18 61/78/27 47/79/28 48/70/19
f 57/73/22 65/80/29 50/81/30 51/74/23
f 59/76/25 69/82/31 53/83/32 45/77/26
f 61/78/27 64/64/13 46/67/16 47/79/28
f 65/80/29 68/68/17 49/71/20 50/81/30
f 69/82/31 72/72/21 52/75/24 53/83/32
f 2/84/12 44/66/15 45/77/26
f 2/84/12 46/67/16 44/66/15
f 2/84/12 47/79/28 46/67/16
f 2/84/12 48/70/19 47/79/28
f 2/84/12 49/71/20 48/70/19
f 2/84/12 50/81/30 49/71/20
f 2/84/12 51/74/23 50/81/30
f 2/84/12 52/75/24 51/74/23
f 2/84/12 53/83/32 52/75/24
f 2/84/12 45/77/26 53/83/32
f 43/33/33 42/7/34 71/85/34 70/86/33
f 81/87/10 82/88/2 72/72/35 69/82/36
f 40/28/37 39/43/38 67/89/38 66/90/37
f 79/91/9 80/92/11 68/68/39 65/80/40
f 37/22/41 36/38/42 63/93/42 62/94/41
f 77/95/8 78/96/6 64/64/43 61/78/44
f 35/15/45 43/33/33 70/86/33 60/97/45
f 76/98/4 81/87/10 69/82/36 59/76/46
f 41/6/47 40/28/37 66/90/37 58/99/48
f 75/100/3 79/91/9 65/80/40 57/73/49
f 38/23/50 37/22/41 62/94/41 56/101/50
f 74/102/7 77/95/8 61/78/44 55/69/51
f 34/16/52 35/15/45 60/97/45 54/103/52
f 73/104/5 76/98/4 59/76/46 33/65/53
f 42/7/34 41/6/47 58/99/48 71/85/34
f 82/88/2 75/100/3 57/73/49 72/72/35
f 39/43/38 38/23/50 56/101/50 67/89/38
f 80/92/11 74/102/7 55/69/51 68/68/39
f 36/38/42 34/16/52 54/103/52 63/93/42
f 78/96/6 73/104/5 33/65/53 64/64/43
f 63/93/54 54/103/55 73/104/5 78/96/6
f 67/89/56 56/101/57 74/102/7 80/92/11
f 71/85/58 58/99/59 75/100/3 82/88/2
f 54/103/55 60/97/60 76/98/4 73/104/5
f 56/101/57 62/94/61 77/95/8 74/102/7
f 58/99/59 66/90/62 79/91/9 75/100/3
f 60/97/60 70/86/63 81/87/10 76/98/4
f 62/94/61 63/93/54 78/96/6 77/95/8
f 66/90/62 67/89/56 80/92/11 79/91/9
f 70/86/63 71/85/58 82/88/2 81/87/10
