# Blender v3.2.0 OBJ File: 'Props3Scaled.blend'
# www.blender.org
mtllib Page6.mtl
o Sheet3.006_Plane.020
v -0.164257 0.000000 0.117467
v 0.164257 0.000000 0.117467
v -0.164257 0.000000 -0.117467
v 0.164257 0.000000 -0.117467
v -0.164257 0.000000 0.117467
v 0.164257 0.000000 0.117467
v -0.164257 0.000000 -0.117467
v 0.164257 0.000000 -0.117467
vt 0.493511 0.340670
vt 0.493511 0.662405
vt 0.254820 0.662405
vt 0.254820 0.340670
vt 0.493511 0.340670
vt 0.254820 0.340670
vt 0.254820 0.662405
vt 0.493511 0.662405
vn 0.0000 1.0000 0.0000
vn 0.0000 -1.0000 0.0000
usemtl MAT_Page
s off
f 1/1/1 2/2/1 4/3/1 3/4/1
f 5/5/2 7/6/2 8/7/2 6/8/2
