# Blender v3.2.0 OBJ File: 'Props3Scaled.blend'
# www.blender.org
mtllib Book_Open4.mtl
o Book4Open_Cube.042
v -0.162619 -0.000772 0.095863
v -0.162618 0.001072 -0.371900
v -0.162619 -0.001276 -0.119462
v -0.162618 -0.001434 -0.165608
v 0.162619 -0.000772 0.095863
v 0.162619 0.001072 -0.371900
v 0.162619 -0.001276 -0.119462
v 0.162619 -0.001434 -0.165608
v -0.162619 0.023002 0.086275
v -0.162618 0.024763 -0.361934
v -0.162618 0.018175 -0.136498
v -0.162619 0.018295 -0.135014
v 0.162619 0.018175 -0.136498
v 0.162619 0.018295 -0.135014
v 0.162619 0.024763 -0.361934
v 0.162619 0.023002 0.086275
v -0.162619 0.030013 0.082807
v -0.162619 0.027492 -0.136401
v 0.162619 0.027492 -0.136401
v 0.162619 0.030013 0.082807
v -0.162618 0.031921 -0.359276
v 0.162619 0.031921 -0.359276
v -0.162619 -0.001242 -0.104819
v 0.162619 -0.001242 -0.104819
v 0.162619 0.018615 -0.119965
v -0.162619 0.018615 -0.119965
v -0.162619 0.038255 -0.114742
v 0.162619 0.038255 -0.114742
v -0.162618 -0.001277 -0.178520
v 0.162619 -0.001277 -0.178520
v 0.162619 0.018588 -0.150608
v -0.162618 0.018588 -0.150608
v -0.162619 0.039074 -0.161406
v 0.162619 0.039074 -0.161406
v -0.192168 -0.003124 0.130893
v -0.192168 -0.013898 -0.420280
v -0.192165 -0.002181 -0.123116
v -0.192168 -0.013026 -0.166428
v 0.184867 -0.003124 0.130893
v 0.184867 -0.013898 -0.420280
v 0.184870 -0.002181 -0.123116
v 0.184867 -0.013026 -0.166428
v -0.192177 0.007560 -0.146945
v -0.192175 0.012135 -0.136167
v 0.184858 0.007560 -0.146945
v 0.184861 0.010247 -0.134186
v -0.192188 0.014763 -0.139847
v 0.184847 0.013812 -0.138864
v -0.192168 0.006876 0.130893
v -0.192168 -0.003898 -0.420280
v -0.192168 0.006876 -0.118876
v -0.192168 -0.003898 -0.170511
v 0.184867 0.006876 0.130893
v 0.184867 -0.003898 -0.420280
v 0.184867 0.006876 -0.118876
v 0.184867 -0.003898 -0.170511
v -0.192168 0.015064 -0.153554
v -0.192168 0.020079 -0.130094
v 0.184867 0.015064 -0.153554
v 0.184867 0.018179 -0.128096
v -0.192168 0.024726 -0.140709
v 0.184867 0.023776 -0.139710
v -0.178423 0.004165 -0.367582
v -0.168682 0.006477 -0.158349
v 0.165778 0.003959 -0.384877
v 0.166661 0.006271 -0.175644
v -0.167552 0.010087 -0.376243
v -0.167197 0.012684 -0.141215
v 0.177083 0.010080 -0.376805
v 0.170099 0.012593 -0.148794
v -0.145117 0.018860 -0.377313
v -0.164147 0.021260 -0.159078
v 0.198156 0.019170 -0.351327
v 0.172875 0.021404 -0.146973
v -0.169540 0.024617 -0.337095
v -0.146138 0.027328 -0.089771
v 0.135746 0.024132 -0.377813
v 0.165473 0.026640 -0.147503
v -0.179070 0.028646 -0.355087
v -0.148416 0.025271 -0.106009
v 0.147445 0.029013 -0.379999
v 0.168689 0.025889 -0.147934
v -0.159623 0.028474 0.114197
v -0.150691 0.028474 -0.116695
v 0.169346 0.028474 0.126416
v 0.164492 0.028474 -0.104477
v 0.167646 0.021006 -0.087155
v 0.149738 0.021006 0.132116
v -0.152772 0.021006 -0.121241
v -0.177689 0.021006 0.108524
v 0.164722 0.015252 -0.095843
v 0.151458 0.015252 0.144438
v -0.163974 0.015252 -0.113988
v -0.177238 0.015252 0.126293
v 0.144094 0.006861 -0.111387
v 0.152624 0.006861 0.129109
v -0.184896 0.006861 -0.099717
v -0.176365 0.006861 0.140778
vt 0.921468 0.352486
vt 0.923693 0.352488
vt 0.923681 0.398693
vt 0.921457 0.398692
vt 0.916487 0.352486
vt 0.916499 0.398692
vt 0.885889 0.398707
vt 0.885868 0.352501
vt 0.955768 0.352501
vt 0.955749 0.398707
vt 0.918904 0.352484
vt 0.918689 0.398690
vt 0.920186 0.352485
vt 0.920073 0.398691
vt 0.921468 0.352486
vt 0.921457 0.398692
vt 0.923681 0.398693
vt 0.923693 0.352488
vt 0.916487 0.352486
vt 0.885868 0.352501
vt 0.885889 0.398707
vt 0.916499 0.398692
vt 0.955749 0.398707
vt 0.955768 0.352501
vt 0.918689 0.398690
vt 0.918904 0.352484
vt 0.920186 0.352485
vt 0.920073 0.398691
vt 0.953212 0.634815
vt 0.953212 0.667720
vt 0.995927 0.667720
vt 0.995927 0.634815
vt 0.953212 0.630801
vt 0.953212 0.667720
vt 0.995927 0.667720
vt 0.995927 0.630802
vt 0.953212 0.631407
vt 0.953212 0.667720
vt 0.995927 0.667720
vt 0.995927 0.631407
vt 0.953212 0.625006
vt 0.995927 0.625006
vt 0.995927 0.667720
vt 0.953212 0.667720
vt 0.953212 0.625006
vt 0.953212 0.667720
vt 0.995927 0.667720
vt 0.995927 0.625006
vt 0.953212 0.625006
vt 0.995927 0.625006
vt 0.995927 0.667720
vt 0.953212 0.667720
vt 0.953212 0.625006
vt 0.995927 0.625006
vt 0.995927 0.667720
vt 0.953212 0.667720
vt 0.953212 0.625006
vt 0.995927 0.625006
vt 0.995927 0.667720
vt 0.953212 0.667720
vt 0.953212 0.625006
vt 0.995927 0.625006
vt 0.995927 0.667720
vt 0.953212 0.667720
vt 0.976410 0.621806
vt 0.980804 0.621806
vt 0.980804 0.622631
vt 0.976409 0.622631
vt 0.980804 0.635814
vt 0.976409 0.635814
vt 0.976410 0.636639
vt 0.980804 0.636639
vt 0.980804 0.648998
vt 0.976409 0.648998
vt 0.980804 0.662181
vt 0.976409 0.662181
vt 0.954437 0.636711
vt 0.967621 0.636711
vt 0.967621 0.648998
vt 0.954437 0.648998
vt 0.993987 0.636639
vt 0.993987 0.648998
vt 0.972015 0.648998
vt 0.972015 0.662181
vt 0.967621 0.662181
vt 0.974212 0.648998
vt 0.974212 0.662181
vt 0.972015 0.636711
vt 0.974212 0.636639
vt 0.967621 0.622631
vt 0.972015 0.622631
vt 0.972015 0.635814
vt 0.967621 0.635814
vt 0.974212 0.622631
vt 0.974212 0.635814
vt 0.967621 0.621734
vt 0.972015 0.621734
vt 0.974212 0.621806
vt 0.974212 0.621734
vt 0.974212 0.636711
vt 0.974212 0.648998
vt 0.974212 0.662181
vt 0.952586 0.680789
vt 0.952586 0.746509
vt 0.949776 0.746509
vt 0.949776 0.680789
vt 0.956246 0.605869
vt 0.994697 0.605869
vt 0.994697 0.666860
vt 0.956246 0.666860
vt 0.953440 0.605869
vt 0.953440 0.666860
vt 0.972015 0.609447
vt 0.974212 0.609447
vt 0.967621 0.609447
vt 0.954437 0.635814
vt 0.994679 0.680789
vt 0.994679 0.746508
vt 0.974212 0.609447
vt 0.976409 0.609447
vt 0.993987 0.635814
vt 0.980804 0.609447
vn 0.0000 -0.6874 0.7263
vn 0.0000 -1.0000 -0.0037
vn 0.0000 -1.0000 0.0034
vn 0.0003 -0.6698 -0.7426
vn -0.0018 -0.7483 0.6634
vn -0.0007 -0.8034 -0.5954
vn 0.0000 0.6666 -0.7454
vn 0.0000 1.0000 0.0000
vn -0.0004 0.6405 0.7680
vn 0.0018 0.8237 -0.5671
vn 0.0018 0.9082 0.4185
vn -1.0000 -0.0001 -0.0000
vn -1.0000 0.0000 0.0000
vn -1.0000 0.0000 0.0004
vn 1.0000 0.0000 -0.0004
vn 1.0000 0.0001 0.0000
vn 1.0000 0.0000 0.0000
vn 0.0000 0.0000 1.0000
vn 0.0000 0.0000 -1.0000
vn -1.0000 0.0002 -0.0005
vn -1.0000 0.0011 0.0015
vn 1.0000 -0.0002 0.0005
vn 1.0000 -0.0011 -0.0015
vn -1.0000 0.0011 -0.0015
vn 1.0000 -0.0011 0.0013
vn 0.0000 0.9999 -0.0110
vn -0.0001 0.9999 -0.0110
vn -0.0002 -0.9999 0.0109
vn -0.0001 0.9999 0.0135
vn 0.0000 -0.8294 0.5587
vn 0.0000 0.3680 -0.9298
vn 0.0000 0.3878 -0.9218
vn 0.0000 -1.0000 0.0023
vn 0.0000 -0.9999 -0.0121
vn 0.0000 0.3741 0.9274
vn 0.0000 0.4090 0.9125
vn 0.0000 0.3481 -0.9375
vn 0.0000 -0.6221 -0.7829
vn 0.0000 -0.0104 0.9999
vn 0.0000 -0.1492 -0.9888
vn 0.0000 0.4434 0.8963
vn 0.0000 0.9803 0.1975
vn 0.0000 0.9074 0.4203
vn -0.0000 0.9781 -0.2082
vn -0.0000 0.9991 0.0417
vn 0.0000 0.8955 -0.4450
vn 0.0000 0.9993 -0.0361
usemtl MAT_Atlas
s off
f 43/1/1 38/2/1 42/3/1 45/4/1
f 37/5/2 41/6/2 39/7/2 35/8/2
f 42/3/3 38/2/3 36/9/3 40/10/3
f 37/5/4 44/11/4 46/12/4 41/6/4
f 47/13/5 43/1/5 45/4/5 48/14/5
f 44/11/6 47/13/6 48/14/6 46/12/6
f 57/15/7 59/16/7 56/17/7 52/18/7
f 51/19/8 49/20/8 53/21/8 55/22/8
f 56/17/8 54/23/8 50/24/8 52/18/8
f 51/19/9 55/22/9 60/25/9 58/26/9
f 61/27/10 62/28/10 59/16/10 57/15/10
f 58/26/11 60/25/11 62/28/11 61/27/11
f 37/5/12 35/8/12 49/20/12 51/19/12
f 36/9/13 38/2/13 52/18/13 50/24/13
f 44/11/14 37/5/14 51/19/14 58/26/14
f 41/6/15 46/12/15 60/25/15 55/22/15
f 39/7/16 41/6/16 55/22/16 53/21/16
f 42/3/17 40/10/17 54/23/17 56/17/17
f 35/8/18 39/7/18 53/21/18 49/20/18
f 40/10/19 36/9/19 50/24/19 54/23/19
f 38/2/20 43/1/20 57/15/20 52/18/20
f 47/13/21 44/11/21 58/26/21 61/27/21
f 45/4/22 42/3/22 56/17/22 59/16/22
f 46/12/23 48/14/23 62/28/23 60/25/23
f 43/1/24 47/13/24 61/27/24 57/15/24
f 48/14/25 45/4/25 59/16/25 62/28/25
f 66/29/26 65/30/26 63/31/26 64/32/26
f 70/33/26 69/34/26 67/35/26 68/36/26
f 74/37/27 73/38/27 71/39/27 72/40/27
f 78/41/28 76/42/28 75/43/28 77/44/28
f 82/45/29 81/46/29 79/47/29 80/48/29
f 86/49/8 84/50/8 83/51/8 85/52/8
f 90/53/8 88/54/8 87/55/8 89/56/8
f 94/57/8 92/58/8 91/59/8 93/60/8
f 98/61/8 96/62/8 95/63/8 97/64/8
s 1
f 32/65/13 29/66/13 4/67/13 11/68/13
f 11/68/30 4/67/30 8/69/30 13/70/30
f 31/71/17 30/72/17 6/73/17 15/74/17
f 15/74/31 6/73/32 2/75/32 10/76/31
f 23/77/33 24/78/33 5/79/33 1/80/33
f 30/72/34 29/81/34 2/82/34 6/73/34
f 5/79/35 16/83/36 9/84/36 1/85/35
f 22/86/37 15/74/31 10/76/31 21/87/37
f 24/78/17 25/88/17 16/83/17 5/79/17
f 34/89/17 31/71/17 15/74/17 22/86/17
f 3/90/38 12/91/38 14/92/38 7/93/38
f 18/94/39 11/68/39 13/70/39 19/95/39
f 23/96/13 26/97/13 12/91/13 3/90/13
f 33/98/13 32/65/13 11/68/13 18/94/13
f 26/97/13 27/99/13 18/94/13 12/91/13
f 12/91/40 18/94/40 19/95/40 14/92/40
f 25/88/17 28/100/17 20/101/17 16/83/17
f 16/83/36 20/101/41 17/102/41 9/84/36
f 34/103/42 33/104/42 18/105/43 19/106/43
f 27/107/44 17/108/45 20/109/45 28/110/44
f 18/111/46 27/107/44 28/110/44 19/112/46
f 14/92/17 19/95/17 28/100/17 25/88/17
f 9/113/13 17/114/13 27/99/13 26/97/13
f 1/115/13 9/113/13 26/97/13 23/96/13
f 7/93/17 14/92/17 25/88/17 24/78/17
f 3/116/33 7/93/33 24/78/33 23/77/33
f 22/117/47 21/118/47 33/104/42 34/103/42
f 21/119/13 10/120/13 32/65/13 33/98/13
f 19/95/17 13/70/17 31/71/17 34/89/17
f 8/69/34 4/121/34 29/81/34 30/72/34
f 13/70/17 8/69/17 30/72/17 31/71/17
f 10/120/13 2/122/13 29/66/13 32/65/13
