# Blender v3.2.0 OBJ File: 'Props3Scaled.blend'
# www.blender.org
mtllib Book_Open2.mtl
o Book2Open_Cube.038
v -0.162619 -0.002166 0.095863
v -0.162618 0.000036 -0.371900
v -0.162619 -0.002768 -0.119462
v -0.162618 -0.002957 -0.165608
v 0.162619 -0.002166 0.095863
v 0.162619 0.000036 -0.371900
v 0.162619 -0.002768 -0.119462
v 0.162619 -0.002957 -0.165608
v -0.162619 0.026226 0.086275
v -0.162618 0.028329 -0.361934
v -0.162618 0.020461 -0.136498
v -0.162619 0.020604 -0.135014
v 0.162619 0.020461 -0.136498
v 0.162619 0.020604 -0.135014
v 0.162619 0.028329 -0.361934
v 0.162619 0.026226 0.086275
v -0.162619 0.034599 0.082807
v -0.162619 0.031588 -0.136401
v 0.162619 0.031588 -0.136401
v 0.162619 0.034599 0.082807
v -0.162618 0.036877 -0.359276
v 0.162619 0.036877 -0.359276
v -0.162619 -0.002727 -0.104819
v 0.162619 -0.002727 -0.104819
v 0.162619 0.020986 -0.119965
v -0.162619 0.020986 -0.119965
v -0.162619 0.044443 -0.114742
v 0.162619 0.044443 -0.114742
v -0.162618 -0.002770 -0.178520
v 0.162619 -0.002770 -0.178520
v 0.162619 0.020954 -0.150608
v -0.162618 0.020954 -0.150608
v -0.162619 0.045420 -0.161406
v 0.162619 0.045420 -0.161406
v -0.190647 -0.006207 0.130893
v -0.190647 -0.010805 -0.420531
v -0.190642 -0.004964 -0.123704
v -0.190647 -0.012723 -0.166802
v 0.186388 -0.006207 0.130893
v 0.186388 -0.010805 -0.420531
v 0.186394 -0.004964 -0.123704
v 0.186388 -0.012723 -0.166802
v -0.190656 0.006612 -0.147161
v -0.190659 0.016395 -0.137888
v 0.186379 0.006612 -0.147161
v 0.186376 0.014609 -0.135924
v -0.190673 0.015340 -0.135751
v 0.186362 0.014435 -0.134761
v -0.190647 0.003793 0.130893
v -0.190647 -0.000806 -0.420423
v -0.190647 0.003793 -0.118876
v -0.190647 -0.003501 -0.170669
v 0.186388 0.003793 0.130893
v 0.186388 -0.000806 -0.420423
v 0.186388 0.003793 -0.118876
v 0.186388 -0.003501 -0.170669
v -0.190647 0.014331 -0.153518
v -0.190647 0.024905 -0.132637
v 0.186388 0.014331 -0.153518
v 0.186388 0.023099 -0.130639
v -0.190647 0.025063 -0.138089
v 0.186388 0.024160 -0.137090
v -0.178423 0.003730 -0.367582
v -0.168682 0.006491 -0.158349
v 0.165778 0.003484 -0.384877
v 0.166661 0.006244 -0.175644
v -0.167552 0.010802 -0.376243
v -0.167197 0.013903 -0.141215
v 0.177083 0.010794 -0.376805
v 0.170099 0.013795 -0.148794
v -0.145117 0.021279 -0.377313
v -0.164147 0.024145 -0.159078
v 0.198156 0.021649 -0.351327
v 0.172875 0.024318 -0.146973
v -0.169540 0.028155 -0.337095
v -0.146138 0.031393 -0.089771
v 0.135746 0.027575 -0.377813
v 0.165473 0.030571 -0.147503
v -0.179070 0.032966 -0.355087
v -0.148416 0.028935 -0.106009
v 0.147445 0.033405 -0.379999
v 0.168689 0.029673 -0.147934
v -0.159623 0.032761 0.114197
v -0.150691 0.032761 -0.116695
v 0.169346 0.032761 0.126416
v 0.164492 0.032761 -0.104477
v 0.167646 0.023843 -0.087155
v 0.149738 0.023843 0.132116
v -0.152772 0.023843 -0.121241
v -0.177689 0.023843 0.108524
v 0.164722 0.016971 -0.095843
v 0.151458 0.016971 0.144438
v -0.163974 0.016971 -0.113988
v -0.177238 0.016971 0.126293
v 0.144094 0.006950 -0.111387
v 0.152624 0.006950 0.129109
v -0.184896 0.006950 -0.099717
v -0.176365 0.006950 0.140778
vt 0.919654 0.451439
vt 0.922883 0.451441
vt 0.922867 0.497574
vt 0.919638 0.497572
vt 0.912427 0.451439
vt 0.912445 0.497572
vt 0.882862 0.497587
vt 0.882842 0.451454
vt 0.951613 0.451454
vt 0.951595 0.497587
vt 0.915934 0.451437
vt 0.915622 0.497570
vt 0.917794 0.451438
vt 0.917630 0.497571
vt 0.919654 0.451439
vt 0.919638 0.497572
vt 0.922867 0.497574
vt 0.922883 0.451441
vt 0.912427 0.451439
vt 0.882842 0.451454
vt 0.882862 0.497587
vt 0.912445 0.497572
vt 0.951595 0.497587
vt 0.951613 0.451454
vt 0.915622 0.497570
vt 0.915934 0.451437
vt 0.917794 0.451438
vt 0.917630 0.497571
vt 0.952652 0.636414
vt 0.952653 0.669112
vt 0.995099 0.669112
vt 0.995099 0.636414
vt 0.952749 0.632272
vt 0.952749 0.668958
vt 0.995195 0.668958
vt 0.995195 0.632272
vt 0.952956 0.633285
vt 0.952956 0.668854
vt 0.994796 0.668854
vt 0.994796 0.633285
vt 0.952864 0.626647
vt 0.995310 0.626647
vt 0.995310 0.669093
vt 0.952864 0.669093
vt 0.953019 0.626666
vt 0.953019 0.669112
vt 0.995465 0.669112
vt 0.995465 0.626666
vt 0.952836 0.626681
vt 0.995282 0.626681
vt 0.995282 0.669127
vt 0.952836 0.669127
vt 0.952759 0.626696
vt 0.995206 0.626696
vt 0.995206 0.669142
vt 0.952759 0.669142
vt 0.952790 0.626681
vt 0.995236 0.626681
vt 0.995236 0.669127
vt 0.952790 0.669127
vt 0.952775 0.626681
vt 0.995221 0.626681
vt 0.995221 0.669127
vt 0.952775 0.669127
vt 0.976410 0.621806
vt 0.980804 0.621806
vt 0.980804 0.622631
vt 0.976409 0.622631
vt 0.980804 0.635814
vt 0.976409 0.635814
vt 0.976410 0.636639
vt 0.980804 0.636639
vt 0.980804 0.648998
vt 0.976409 0.648998
vt 0.980804 0.662181
vt 0.976409 0.662181
vt 0.954437 0.636711
vt 0.967621 0.636711
vt 0.967621 0.648998
vt 0.954437 0.648998
vt 0.993987 0.636639
vt 0.993987 0.648998
vt 0.972015 0.648998
vt 0.972015 0.662181
vt 0.967621 0.662181
vt 0.974212 0.648998
vt 0.974212 0.662181
vt 0.972015 0.636711
vt 0.974212 0.636639
vt 0.967621 0.622631
vt 0.972015 0.622631
vt 0.972015 0.635814
vt 0.967621 0.635814
vt 0.974212 0.622631
vt 0.974212 0.635814
vt 0.967621 0.621734
vt 0.972015 0.621734
vt 0.974212 0.621806
vt 0.974212 0.621734
vt 0.974212 0.636711
vt 0.974212 0.648998
vt 0.974212 0.662181
vt 0.952586 0.680789
vt 0.952586 0.746509
vt 0.949776 0.746509
vt 0.949776 0.680789
vt 0.956246 0.605869
vt 0.994697 0.605869
vt 0.994697 0.666860
vt 0.956246 0.666860
vt 0.953440 0.605869
vt 0.953440 0.666860
vt 0.972015 0.609447
vt 0.974212 0.609447
vt 0.967621 0.609447
vt 0.954437 0.635814
vt 0.994679 0.680789
vt 0.994679 0.746508
vt 0.974212 0.609447
vt 0.976409 0.609447
vt 0.993987 0.635814
vt 0.980804 0.609447
vn 0.0000 -0.7126 0.7015
vn 0.0000 -1.0000 -0.0049
vn 0.0000 -1.0000 -0.0076
vn 0.0009 -0.5421 -0.8403
vn -0.0017 -0.8211 0.5707
vn 0.0020 0.9371 0.3491
vn 0.0000 0.6932 -0.7207
vn 0.0000 1.0000 0.0000
vn 0.0000 0.9999 0.0108
vn -0.0010 0.5340 0.8455
vn 0.0017 0.8402 -0.5422
vn 0.0032 0.9948 0.1019
vn -1.0000 -0.0003 -0.0000
vn -1.0000 -0.0000 0.0000
vn -1.0000 0.0000 0.0007
vn 1.0000 0.0000 -0.0007
vn 1.0000 0.0003 0.0000
vn 1.0000 0.0000 0.0000
vn 0.0000 0.0000 1.0000
vn 0.0000 0.0108 -0.9999
vn -1.0000 0.0002 -0.0005
vn -1.0000 0.0015 0.0037
vn 1.0000 -0.0002 0.0005
vn 1.0000 -0.0016 -0.0029
vn -1.0000 0.0012 -0.0015
vn 1.0000 -0.0013 0.0014
vn 0.0001 0.9999 -0.0132
vn 0.0000 0.9999 -0.0132
vn -0.0001 0.9999 -0.0131
vn -0.0002 -0.9999 0.0131
vn -0.0002 0.9999 0.0161
vn 0.0000 -0.7792 0.6268
vn 0.0000 0.3146 -0.9492
vn 0.0000 0.3323 -0.9432
vn 0.0000 -1.0000 0.0028
vn 0.0000 -0.9999 -0.0145
vn 0.0000 0.3200 0.9474
vn 0.0000 0.3515 0.9362
vn 0.0000 0.2969 -0.9549
vn 0.0000 -0.5540 -0.8325
vn 0.0000 -0.3489 -0.9372
vn 0.0000 -0.0087 1.0000
vn 0.0000 -0.1253 -0.9921
vn 0.0000 0.3827 0.9239
vn 0.0000 0.9734 0.2290
vn 0.0000 0.8750 0.4841
vn -0.0000 0.9706 -0.2405
vn -0.0000 0.9988 0.0498
vn 0.0000 0.8599 -0.5104
vn 0.0000 0.9991 -0.0431
usemtl MAT_Atlas
s off
f 43/1/1 38/2/1 42/3/1 45/4/1
f 37/5/2 41/6/2 39/7/2 35/8/2
f 42/3/3 38/2/3 36/9/3 40/10/3
f 37/5/4 44/11/4 46/12/4 41/6/4
f 47/13/5 43/1/5 45/4/5 48/14/5
f 44/11/6 47/13/6 48/14/6 46/12/6
f 57/15/7 59/16/7 56/17/7 52/18/7
f 51/19/8 49/20/8 53/21/8 55/22/8
f 56/17/9 54/23/9 50/24/9 52/18/9
f 51/19/10 55/22/10 60/25/10 58/26/10
f 61/27/11 62/28/11 59/16/11 57/15/11
f 58/26/12 60/25/12 62/28/12 61/27/12
f 37/5/13 35/8/13 49/20/13 51/19/13
f 36/9/14 38/2/14 52/18/14 50/24/14
f 44/11/15 37/5/15 51/19/15 58/26/15
f 41/6/16 46/12/16 60/25/16 55/22/16
f 39/7/17 41/6/17 55/22/17 53/21/17
f 42/3/18 40/10/18 54/23/18 56/17/18
f 35/8/19 39/7/19 53/21/19 49/20/19
f 40/10/20 36/9/20 50/24/20 54/23/20
f 38/2/21 43/1/21 57/15/21 52/18/21
f 47/13/22 44/11/22 58/26/22 61/27/22
f 45/4/23 42/3/23 56/17/23 59/16/23
f 46/12/24 48/14/24 62/28/24 60/25/24
f 43/1/25 47/13/25 61/27/25 57/15/25
f 48/14/26 45/4/26 59/16/26 62/28/26
f 66/29/27 65/30/27 63/31/27 64/32/27
f 70/33/28 69/34/28 67/35/28 68/36/28
f 74/37/29 73/38/29 71/39/29 72/40/29
f 78/41/30 76/42/30 75/43/30 77/44/30
f 82/45/31 81/46/31 79/47/31 80/48/31
f 86/49/8 84/50/8 83/51/8 85/52/8
f 90/53/8 88/54/8 87/55/8 89/56/8
f 94/57/8 92/58/8 91/59/8 93/60/8
f 98/61/8 96/62/8 95/63/8 97/64/8
s 1
f 32/65/14 29/66/14 4/67/14 11/68/14
f 11/68/32 4/67/32 8/69/32 13/70/32
f 31/71/18 30/72/18 6/73/18 15/74/18
f 15/74/33 6/73/34 2/75/34 10/76/33
f 23/77/35 24/78/35 5/79/35 1/80/35
f 30/72/36 29/81/36 2/82/36 6/73/36
f 5/79/37 16/83/38 9/84/38 1/85/37
f 22/86/39 15/74/33 10/76/33 21/87/39
f 24/78/18 25/88/18 16/83/18 5/79/18
f 34/89/18 31/71/18 15/74/18 22/86/18
f 3/90/40 12/91/41 14/92/41 7/93/40
f 18/94/42 11/68/42 13/70/42 19/95/42
f 23/96/14 26/97/14 12/91/14 3/90/14
f 33/98/14 32/65/14 11/68/14 18/94/14
f 26/97/14 27/99/14 18/94/14 12/91/14
f 12/91/41 18/94/43 19/95/43 14/92/41
f 25/88/18 28/100/18 20/101/18 16/83/18
f 16/83/38 20/101/44 17/102/44 9/84/38
f 34/103/45 33/104/45 18/105/46 19/106/46
f 27/107/47 17/108/48 20/109/48 28/110/47
f 18/111/49 27/107/47 28/110/47 19/112/49
f 14/92/18 19/95/18 28/100/18 25/88/18
f 9/113/14 17/114/14 27/99/14 26/97/14
f 1/115/14 9/113/14 26/97/14 23/96/14
f 7/93/18 14/92/18 25/88/18 24/78/18
f 3/116/35 7/93/35 24/78/35 23/77/35
f 22/117/50 21/118/50 33/104/45 34/103/45
f 21/119/14 10/120/14 32/65/14 33/98/14
f 19/95/18 13/70/18 31/71/18 34/89/18
f 8/69/36 4/121/36 29/81/36 30/72/36
f 13/70/18 8/69/18 30/72/18 31/71/18
f 10/120/14 2/122/14 29/66/14 32/65/14
