# Blender v3.2.0 OBJ File: 'Props3Scaled.blend'
# www.blender.org
mtllib Book_Closed5.mtl
o Book5_Cube.020
v -0.188518 -0.000100 0.130893
v -0.188518 0.061549 0.130893
v -0.188513 0.000700 -0.122796
v -0.188518 0.061088 -0.121878
v 0.188518 -0.000100 0.130893
v 0.188518 0.061549 0.130893
v 0.188522 0.000700 -0.122796
v 0.188518 0.061088 -0.121878
v -0.188504 0.043188 -0.145206
v -0.188502 0.018935 -0.141383
v 0.188531 0.043188 -0.145206
v 0.188533 0.017732 -0.139377
v -0.188518 0.009900 0.130893
v -0.188518 0.051549 0.130893
v -0.188518 0.009900 -0.118876
v -0.188518 0.051549 -0.118876
v 0.188518 0.009900 0.130893
v 0.188518 0.051549 0.130893
v 0.188518 0.009900 -0.118876
v 0.188518 0.051549 -0.118876
v -0.188518 0.039702 -0.135833
v -0.188518 0.023783 -0.132637
v 0.188518 0.039702 -0.135833
v 0.188518 0.022595 -0.130639
v -0.178423 0.046969 0.118757
v -0.165778 0.046969 -0.132858
v 0.165778 0.046969 0.136054
v 0.166924 0.046969 -0.115561
v -0.167552 0.043451 0.127284
v -0.167141 0.043451 -0.124649
v 0.177083 0.043451 0.127845
v 0.169003 0.043451 -0.115967
v -0.145117 0.038321 0.128155
v -0.167502 0.038321 -0.108559
v 0.198156 0.038321 0.102166
v 0.168418 0.038321 -0.118217
v -0.169540 0.035239 0.087813
v -0.146138 0.035239 -0.139515
v 0.135746 0.035239 0.128537
v 0.165473 0.035239 -0.081775
v -0.179070 0.031879 0.097199
v -0.148416 0.031879 -0.131899
v 0.147445 0.031879 0.122116
v 0.168689 0.031879 -0.089966
v -0.159623 0.026979 0.114197
v -0.150691 0.026979 -0.116695
v 0.169346 0.026979 0.126416
v 0.164492 0.026979 -0.104477
v 0.167646 0.022617 -0.087155
v 0.149738 0.022617 0.132116
v -0.152772 0.022617 -0.121241
v -0.177689 0.022617 0.108524
v 0.164722 0.019257 -0.095843
v 0.151458 0.019257 0.144438
v -0.163974 0.019257 -0.113988
v -0.177238 0.019257 0.126293
v 0.144094 0.014357 -0.111387
v 0.152624 0.014357 0.129109
v -0.184896 0.014357 -0.099717
v -0.176365 0.014357 0.140778
v -0.162619 0.009900 0.118876
v -0.162619 0.051549 0.118876
v -0.162619 0.009900 -0.118876
v -0.162619 0.051549 -0.118876
v 0.162619 0.009900 0.118876
v 0.162619 0.051549 0.118876
v 0.162619 0.009900 -0.118876
v 0.162619 0.051549 -0.118876
v -0.162619 0.023783 0.109288
v -0.162619 0.037666 0.109288
v -0.162619 0.037666 -0.114082
v -0.162619 0.023783 -0.114082
v 0.162619 0.037666 -0.114082
v 0.162619 0.023783 -0.114082
v 0.162619 0.037666 0.109288
v 0.162619 0.023783 0.109288
vt 0.956284 0.627539
vt 0.994393 0.627539
vt 0.994393 0.665648
vt 0.956284 0.665648
vt 0.956284 0.627539
vt 0.994393 0.627539
vt 0.994393 0.665648
vt 0.956284 0.665648
vt 0.956284 0.627539
vt 0.994393 0.627539
vt 0.994393 0.665648
vt 0.956284 0.665648
vt 0.956284 0.627539
vt 0.994393 0.627539
vt 0.994393 0.665648
vt 0.956284 0.665648
vt 0.956284 0.627539
vt 0.994393 0.627539
vt 0.994393 0.665648
vt 0.956284 0.665648
vt 0.956284 0.627539
vt 0.994393 0.627539
vt 0.994393 0.665648
vt 0.956284 0.665648
vt 0.956284 0.627539
vt 0.994393 0.627539
vt 0.994393 0.665648
vt 0.956284 0.665648
vt 0.956284 0.627539
vt 0.994393 0.627539
vt 0.994393 0.665648
vt 0.956284 0.665648
vt 0.956284 0.627539
vt 0.994393 0.627539
vt 0.994393 0.665648
vt 0.956284 0.665648
vt 0.976409 0.609447
vt 0.980804 0.609447
vt 0.980804 0.622631
vt 0.976409 0.622631
vt 0.980804 0.635814
vt 0.976409 0.635814
vt 0.980804 0.648998
vt 0.976409 0.648998
vt 0.980804 0.662181
vt 0.976409 0.662181
vt 0.954437 0.635814
vt 0.967621 0.635814
vt 0.967621 0.648998
vt 0.954437 0.648998
vt 0.993987 0.635814
vt 0.993987 0.648998
vt 0.972015 0.648998
vt 0.972015 0.662181
vt 0.967621 0.662181
vt 0.972015 0.635814
vt 0.967621 0.622631
vt 0.972015 0.622631
vt 0.967621 0.609447
vt 0.972015 0.609447
vt 0.923635 0.295178
vt 0.925157 0.295180
vt 0.925149 0.347551
vt 0.923628 0.347549
vt 0.920229 0.295179
vt 0.920237 0.347549
vt 0.889478 0.347566
vt 0.889458 0.295195
vt 0.955472 0.295195
vt 0.955454 0.347566
vt 0.921882 0.295176
vt 0.921735 0.347547
vt 0.923635 0.295178
vt 0.923628 0.347549
vt 0.925149 0.347551
vt 0.925157 0.295180
vt 0.920229 0.295179
vt 0.889458 0.295195
vt 0.889478 0.347566
vt 0.920237 0.347549
vt 0.955454 0.347566
vt 0.955472 0.295195
vt 0.921735 0.347547
vt 0.921882 0.295176
vn 0.0000 1.0000 0.0000
vn -1.0000 -0.0000 0.0000
vn 0.0000 -0.3264 -0.9452
vn 1.0000 -0.0000 0.0000
vn 0.0000 -0.5683 0.8228
vn 0.0000 -1.0000 0.0000
vn 0.0000 0.5683 0.8228
vn 0.0000 0.0000 1.0000
vn 0.0000 0.3264 -0.9452
vn 0.0000 0.0000 -1.0000
vn 0.0000 0.7933 -0.6088
vn 0.0000 0.9467 -0.3223
vn 0.0000 0.9466 -0.3224
vn 0.0004 -0.9230 -0.3847
vn 0.0004 -0.9230 -0.3848
vn 0.0000 -1.0000 -0.0032
vn 0.0000 1.0000 -0.0018
vn 0.0016 -0.4679 -0.8838
vn 0.0016 -0.4696 -0.8829
vn 0.0023 -0.1906 -0.9817
vn 0.0000 -0.8197 0.5727
vn 0.0000 -0.9539 0.3002
vn -0.0004 0.9200 0.3920
vn -0.0015 0.4863 0.8738
vn -0.0016 0.4848 0.8746
vn -0.0022 0.2462 0.9692
vn -1.0000 -0.0004 -0.0005
vn -1.0000 -0.0002 -0.0000
vn -1.0000 0.0002 -0.0003
vn -1.0000 -0.0005 -0.0012
vn 1.0000 0.0004 0.0005
vn 1.0000 0.0005 0.0013
vn 1.0000 0.0002 0.0000
vn 1.0000 -0.0002 0.0003
vn -1.0000 0.0000 -0.0011
vn 1.0000 0.0000 0.0011
usemtl MAT_Atlas
s off
f 28/1/1 26/2/1 25/3/1 27/4/1
f 32/5/1 30/6/1 29/7/1 31/8/1
f 36/9/1 34/10/1 33/11/1 35/12/1
f 40/13/1 38/14/1 37/15/1 39/16/1
f 44/17/1 42/18/1 41/19/1 43/20/1
f 48/21/1 46/22/1 45/23/1 47/24/1
f 52/25/1 50/26/1 49/27/1 51/28/1
f 56/29/1 54/30/1 53/31/1 55/32/1
f 60/33/1 58/34/1 57/35/1 59/36/1
f 70/37/2 62/38/2 64/39/2 71/40/2
f 71/40/3 64/39/3 68/41/3 73/42/3
f 73/42/4 68/41/4 66/43/4 75/44/4
f 75/44/5 66/43/5 62/45/5 70/46/5
f 63/47/6 67/48/6 65/49/6 61/50/6
f 68/41/1 64/51/1 62/52/1 66/43/1
f 65/49/7 76/53/7 69/54/7 61/55/7
f 76/53/8 75/44/8 70/46/8 69/54/8
f 67/48/4 74/56/4 76/53/4 65/49/4
f 74/56/4 73/42/4 75/44/4 76/53/4
f 63/57/9 72/58/9 74/56/9 67/48/9
f 72/58/10 71/40/10 73/42/10 74/56/10
f 61/59/2 69/60/2 72/58/2 63/57/2
f 69/60/2 70/37/2 71/40/2 72/58/2
s 1
f 9/61/11 4/62/12 8/63/13 11/64/11
f 3/65/14 7/66/15 5/67/16 1/68/16
f 8/63/13 4/62/12 2/69/17 6/70/17
f 3/65/14 10/71/18 12/72/19 7/66/15
f 10/71/18 9/61/20 11/64/20 12/72/19
f 21/73/21 23/74/21 20/75/22 16/76/22
f 15/77/23 13/78/1 17/79/1 19/80/23
f 20/75/22 18/81/6 14/82/6 16/76/22
f 15/77/23 19/80/23 24/83/24 22/84/25
f 22/84/25 24/83/24 23/74/26 21/73/26
f 3/65/27 1/68/28 13/78/28 15/77/27
f 2/69/2 4/62/29 16/76/29 14/82/2
f 10/71/30 3/65/27 15/77/27 22/84/30
f 7/66/31 12/72/32 24/83/32 19/80/31
f 5/67/33 7/66/31 19/80/31 17/79/33
f 8/63/34 6/70/4 18/81/4 20/75/34
f 1/68/8 5/67/8 17/79/8 13/78/8
f 6/70/8 2/69/8 14/82/8 18/81/8
f 4/62/29 9/61/35 21/73/35 16/76/29
f 9/61/35 10/71/30 22/84/30 21/73/35
f 11/64/36 8/63/34 20/75/34 23/74/36
f 12/72/32 11/64/36 23/74/36 24/83/32
