# Blender v3.2.0 OBJ File: 'Props3Scaled.blend'
# www.blender.org
mtllib Book_Open5.mtl
o Book5Open_Cube.044
v -0.162619 -0.004807 0.088650
v -0.162618 -0.003707 -0.379114
v -0.162619 -0.005108 -0.126676
v -0.162618 -0.005203 -0.172822
v 0.162619 -0.004807 0.088650
v 0.162619 -0.003707 -0.379114
v 0.162619 -0.005108 -0.126676
v 0.162619 -0.005203 -0.172822
v -0.162619 0.009386 0.079061
v -0.162618 0.010438 -0.369147
v -0.162618 0.006505 -0.143712
v -0.162619 0.006576 -0.142228
v 0.162619 0.006505 -0.143712
v 0.162619 0.006576 -0.142228
v 0.162619 0.010438 -0.369147
v 0.162619 0.009386 0.079061
v -0.162619 0.013572 0.075593
v -0.162619 0.012067 -0.143615
v 0.162619 0.012067 -0.143615
v 0.162619 0.013572 0.075593
v -0.162618 0.014711 -0.366490
v 0.162619 0.014711 -0.366490
v -0.162619 -0.005088 -0.112033
v 0.162619 -0.005088 -0.112033
v 0.162619 0.006767 -0.127179
v -0.162619 0.006767 -0.127179
v -0.162619 0.018493 -0.121956
v 0.162619 0.018493 -0.121956
v -0.162618 -0.005109 -0.185734
v 0.162619 -0.005109 -0.185734
v 0.162619 0.006751 -0.157822
v -0.162618 0.006751 -0.157822
v -0.162619 0.018982 -0.168620
v 0.162619 0.018982 -0.168620
v -0.188879 -0.015083 0.130893
v -0.188879 -0.014406 -0.417262
v -0.188878 -0.014649 -0.121790
v -0.188879 -0.013501 -0.163336
v 0.188156 -0.015083 0.130893
v 0.188156 -0.014406 -0.417262
v 0.188157 -0.014649 -0.121790
v 0.188156 -0.013501 -0.163336
v -0.188884 -0.001460 -0.152683
v -0.188879 -0.006449 -0.134882
v 0.188152 -0.001460 -0.152683
v 0.188157 -0.007635 -0.132887
v -0.188884 -0.000657 -0.144329
v 0.188151 -0.001248 -0.143341
v -0.188879 -0.005083 0.130893
v -0.188879 -0.004406 -0.417262
v -0.188879 -0.005083 -0.118876
v -0.188879 -0.004406 -0.167493
v 0.188156 -0.005083 0.130893
v 0.188156 -0.004406 -0.417262
v 0.188156 -0.005083 -0.118876
v 0.188156 -0.004406 -0.167493
v -0.188879 0.007441 -0.157241
v -0.188879 0.002070 -0.129644
v 0.188156 0.007441 -0.157241
v 0.188156 0.000882 -0.127647
v -0.188879 0.009122 -0.142238
v 0.188156 0.008529 -0.141239
v -0.178423 -0.001860 -0.374796
v -0.168682 -0.000480 -0.165563
v 0.165778 -0.001983 -0.392091
v 0.166661 -0.000603 -0.182857
v -0.167552 0.001675 -0.383457
v -0.167197 0.003226 -0.148429
v 0.177083 0.001671 -0.384019
v 0.170099 0.003172 -0.156008
v -0.145117 0.006913 -0.384527
v -0.164147 0.008346 -0.166291
v 0.198156 0.007098 -0.358541
v 0.172875 0.008432 -0.154187
v -0.169540 0.010351 -0.344309
v -0.146138 0.011969 -0.096985
v 0.135746 0.010061 -0.385027
v 0.165473 0.011558 -0.154717
v -0.179070 0.012756 -0.362301
v -0.148416 0.010741 -0.113223
v 0.147445 0.012975 -0.387213
v 0.168689 0.011110 -0.155147
v -0.159623 0.012654 0.106983
v -0.150691 0.012654 -0.123909
v 0.169346 0.012654 0.119202
v 0.164492 0.012654 -0.111690
v 0.167646 0.008195 -0.094369
v 0.149738 0.008195 0.124903
v -0.152772 0.008195 -0.128455
v -0.177689 0.008195 0.101310
v 0.164722 0.004760 -0.103057
v 0.151458 0.004760 0.137224
v -0.163974 0.004760 -0.121202
v -0.177238 0.004760 0.119079
v 0.144094 -0.000250 -0.118600
v 0.152624 -0.000250 0.121895
v -0.184896 -0.000250 -0.106931
v -0.176365 -0.000250 0.133564
vt 0.923635 0.295178
vt 0.925157 0.295180
vt 0.925149 0.347551
vt 0.923628 0.347549
vt 0.920229 0.295179
vt 0.920237 0.347549
vt 0.889478 0.347566
vt 0.889458 0.295195
vt 0.955472 0.295195
vt 0.955454 0.347566
vt 0.921882 0.295176
vt 0.921735 0.347547
vt 0.922759 0.295177
vt 0.922681 0.347548
vt 0.923635 0.295178
vt 0.923628 0.347549
vt 0.925149 0.347551
vt 0.925157 0.295180
vt 0.920229 0.295179
vt 0.889458 0.295195
vt 0.889478 0.347566
vt 0.920237 0.347549
vt 0.955454 0.347566
vt 0.955472 0.295195
vt 0.921735 0.347547
vt 0.921882 0.295176
vt 0.922759 0.295177
vt 0.922681 0.347548
vt 0.953067 0.635128
vt 0.953067 0.668019
vt 0.995764 0.668019
vt 0.995764 0.635128
vt 0.953067 0.631116
vt 0.953067 0.668019
vt 0.995764 0.668019
vt 0.995764 0.631116
vt 0.953067 0.631721
vt 0.953067 0.668019
vt 0.995764 0.668019
vt 0.995764 0.631721
vt 0.953067 0.625322
vt 0.995764 0.625322
vt 0.995764 0.668019
vt 0.953067 0.668019
vt 0.953067 0.625322
vt 0.953067 0.668019
vt 0.995764 0.668019
vt 0.995764 0.625322
vt 0.953067 0.625322
vt 0.995764 0.625322
vt 0.995764 0.668019
vt 0.953067 0.668019
vt 0.953067 0.625322
vt 0.995764 0.625322
vt 0.995764 0.668019
vt 0.953067 0.668019
vt 0.953067 0.625322
vt 0.995764 0.625322
vt 0.995764 0.668019
vt 0.953067 0.668019
vt 0.953067 0.625322
vt 0.995764 0.625322
vt 0.995764 0.668019
vt 0.953067 0.668019
vt 0.976410 0.621806
vt 0.980804 0.621806
vt 0.980804 0.622631
vt 0.976409 0.622631
vt 0.980804 0.635814
vt 0.976409 0.635814
vt 0.976410 0.636639
vt 0.980804 0.636639
vt 0.980804 0.648998
vt 0.976409 0.648998
vt 0.980804 0.662181
vt 0.976409 0.662181
vt 0.954437 0.636711
vt 0.967621 0.636711
vt 0.967621 0.648998
vt 0.954437 0.648998
vt 0.993987 0.636639
vt 0.993987 0.648998
vt 0.972015 0.648998
vt 0.972015 0.662181
vt 0.967621 0.662181
vt 0.974212 0.648998
vt 0.974212 0.662181
vt 0.972015 0.636711
vt 0.974212 0.636639
vt 0.967621 0.622631
vt 0.972015 0.622631
vt 0.972015 0.635814
vt 0.967621 0.635814
vt 0.974212 0.622631
vt 0.974212 0.635814
vt 0.967621 0.621734
vt 0.972015 0.621734
vt 0.974212 0.621806
vt 0.974212 0.621734
vt 0.974212 0.636711
vt 0.974212 0.648998
vt 0.974212 0.662181
vt 0.952586 0.680789
vt 0.952586 0.746509
vt 0.949776 0.746509
vt 0.949776 0.680789
vt 0.956246 0.605869
vt 0.994697 0.605869
vt 0.994697 0.666860
vt 0.956246 0.666860
vt 0.953440 0.605869
vt 0.953440 0.666860
vt 0.972015 0.609447
vt 0.974212 0.609447
vt 0.967621 0.609447
vt 0.954437 0.635814
vt 0.994679 0.680789
vt 0.994679 0.746508
vt 0.974212 0.609447
vt 0.976409 0.609447
vt 0.993987 0.635814
vt 0.980804 0.609447
vn 0.0000 -0.6626 0.7490
vn 0.0000 -1.0000 -0.0017
vn 0.0000 -1.0000 0.0036
vn 0.0001 -0.8465 -0.5324
vn -0.0009 -0.9984 0.0572
vn 0.0001 -0.8529 -0.5220
vn 0.0000 0.6544 -0.7562
vn 0.0000 1.0000 0.0000
vn -0.0002 0.8302 0.5574
vn 0.0009 0.9960 -0.0889
vn 0.0001 0.8720 0.4895
vn -1.0000 -0.0000 -0.0000
vn -1.0000 -0.0001 -0.0000
vn 1.0000 0.0001 0.0000
vn 1.0000 0.0000 0.0000
vn 0.0000 0.0000 1.0000
vn 0.0000 0.0000 -1.0000
vn -1.0000 0.0001 -0.0003
vn -1.0000 0.0001 0.0003
vn 1.0000 -0.0001 0.0003
vn 1.0000 -0.0001 -0.0003
vn -1.0000 0.0005 -0.0001
vn 1.0000 -0.0005 0.0000
vn 0.0000 1.0000 -0.0066
vn -0.0001 -1.0000 0.0065
vn -0.0001 1.0000 0.0081
vn 0.0000 -0.9278 0.3731
vn 0.0000 0.5523 -0.8337
vn 0.0000 0.5760 -0.8174
vn 0.0000 -1.0000 0.0014
vn 0.0000 -1.0000 -0.0073
vn 0.0000 0.5598 0.8286
vn 0.0000 0.5996 0.8003
vn 0.0000 0.5281 -0.8492
vn 0.0000 -0.7995 -0.6007
vn 0.0000 -0.0174 0.9998
vn 0.0000 -0.2450 -0.9695
vn 0.0000 0.6380 0.7700
vn 0.0000 0.9923 0.1238
vn 0.0000 0.9638 0.2665
vn -0.0000 0.9913 -0.1314
vn -0.0000 0.9997 0.0249
vn 0.0000 0.9587 -0.2844
vn 0.0000 0.9998 -0.0216
usemtl MAT_Atlas
s off
f 43/1/1 38/2/1 42/3/1 45/4/1
f 37/5/2 41/6/2 39/7/2 35/8/2
f 42/3/3 38/2/3 36/9/3 40/10/3
f 37/5/4 44/11/4 46/12/4 41/6/4
f 47/13/5 43/1/5 45/4/5 48/14/5
f 44/11/6 47/13/6 48/14/6 46/12/6
f 57/15/7 59/16/7 56/17/7 52/18/7
f 51/19/8 49/20/8 53/21/8 55/22/8
f 56/17/8 54/23/8 50/24/8 52/18/8
f 51/19/9 55/22/9 60/25/9 58/26/9
f 61/27/10 62/28/10 59/16/10 57/15/10
f 58/26/11 60/25/11 62/28/11 61/27/11
f 37/5/12 35/8/12 49/20/12 51/19/12
f 36/9/12 38/2/12 52/18/12 50/24/12
f 44/11/13 37/5/13 51/19/13 58/26/13
f 41/6/14 46/12/14 60/25/14 55/22/14
f 39/7/15 41/6/15 55/22/15 53/21/15
f 42/3/15 40/10/15 54/23/15 56/17/15
f 35/8/16 39/7/16 53/21/16 49/20/16
f 40/10/17 36/9/17 50/24/17 54/23/17
f 38/2/18 43/1/18 57/15/18 52/18/18
f 47/13/19 44/11/19 58/26/19 61/27/19
f 45/4/20 42/3/20 56/17/20 59/16/20
f 46/12/21 48/14/21 62/28/21 60/25/21
f 43/1/22 47/13/22 61/27/22 57/15/22
f 48/14/23 45/4/23 59/16/23 62/28/23
f 66/29/24 65/30/24 63/31/24 64/32/24
f 70/33/24 69/34/24 67/35/24 68/36/24
f 74/37/24 73/38/24 71/39/24 72/40/24
f 78/41/25 76/42/25 75/43/25 77/44/25
f 82/45/26 81/46/26 79/47/26 80/48/26
f 86/49/8 84/50/8 83/51/8 85/52/8
f 90/53/8 88/54/8 87/55/8 89/56/8
f 94/57/8 92/58/8 91/59/8 93/60/8
f 98/61/8 96/62/8 95/63/8 97/64/8
s 1
f 32/65/12 29/66/12 4/67/12 11/68/12
f 11/68/27 4/67/27 8/69/27 13/70/27
f 31/71/15 30/72/15 6/73/15 15/74/15
f 15/74/28 6/73/29 2/75/29 10/76/28
f 23/77/30 24/78/30 5/79/30 1/80/30
f 30/72/31 29/81/31 2/82/31 6/73/31
f 5/79/32 16/83/33 9/84/33 1/85/32
f 22/86/34 15/74/28 10/76/28 21/87/34
f 24/78/15 25/88/15 16/83/15 5/79/15
f 34/89/15 31/71/15 15/74/15 22/86/15
f 3/90/35 12/91/35 14/92/35 7/93/35
f 18/94/36 11/68/36 13/70/36 19/95/36
f 23/96/12 26/97/12 12/91/12 3/90/12
f 33/98/12 32/65/12 11/68/12 18/94/12
f 26/97/12 27/99/12 18/94/12 12/91/12
f 12/91/37 18/94/37 19/95/37 14/92/37
f 25/88/15 28/100/15 20/101/15 16/83/15
f 16/83/33 20/101/38 17/102/38 9/84/33
f 34/103/39 33/104/39 18/105/40 19/106/40
f 27/107/41 17/108/42 20/109/42 28/110/41
f 18/111/43 27/107/41 28/110/41 19/112/43
f 14/92/15 19/95/15 28/100/15 25/88/15
f 9/113/12 17/114/12 27/99/12 26/97/12
f 1/115/12 9/113/12 26/97/12 23/96/12
f 7/93/15 14/92/15 25/88/15 24/78/15
f 3/116/30 7/93/30 24/78/30 23/77/30
f 22/117/44 21/118/44 33/104/39 34/103/39
f 21/119/12 10/120/12 32/65/12 33/98/12
f 19/95/15 13/70/15 31/71/15 34/89/15
f 8/69/31 4/121/31 29/81/31 30/72/31
f 13/70/15 8/69/15 30/72/15 31/71/15
f 10/120/12 2/122/12 29/66/12 32/65/12
