# Blender v3.2.0 OBJ File: 'Props3Scaled.blend'
# www.blender.org
mtllib CabinetGlass_Closed.mtl
v 0.045785 1.587474 0.259853
v 0.249073 1.654178 0.259853
v 0.120660 1.683945 0.259853
v 0.042063 1.673638 0.259853
v 0.023740 0.874064 0.259853
v 0.217586 0.894027 0.259853
v 0.253684 1.154031 0.259853
v 0.017721 1.129059 0.259853
v 0.019975 1.158963 0.259853
v 0.253846 1.183739 0.259853
v 0.214391 1.434572 0.259853
v 0.054721 1.395812 0.259853
v 0.039698 0.700927 0.259853
v 0.250941 0.690424 0.259853
v 0.218538 0.864432 0.259853
v 0.025511 0.844541 0.259853
v 0.055319 1.426108 0.259853
v 0.211667 1.464188 0.259853
v 0.288003 1.634796 0.259853
v 0.047301 1.557554 0.259853
v 0.248118 0.867069 0.259853
v 0.281257 0.689105 0.259853
v 0.436364 0.682355 0.259853
v 0.434676 0.883701 0.259853
v 0.307965 1.605836 0.259853
v 0.241162 1.470213 0.259853
v 0.336829 1.489754 0.259853
v 0.283924 1.156869 0.259853
v 0.247807 0.896721 0.259853
v 0.433866 0.913309 0.259853
v 0.421331 1.169767 0.259853
v 0.243386 1.440494 0.259853
v 0.283337 1.186507 0.259853
v 0.417148 1.199067 0.259853
v 0.356264 1.463550 0.259853
v -0.299679 1.463694 0.261847
v -0.250116 1.457221 0.261847
v -0.197311 1.545925 0.261847
v -0.259542 1.614253 0.261847
v -0.417726 0.719506 0.261847
v -0.261329 0.712698 0.261847
v -0.306037 0.816881 0.261847
v -0.430682 0.805406 0.261847
v -0.420832 1.118740 0.261847
v -0.248930 1.135631 0.261847
v -0.256824 1.428283 0.261847
v -0.315143 1.435899 0.261847
v -0.432530 0.834924 0.261847
v -0.308836 0.846311 0.261847
v -0.252534 1.105572 0.261847
v -0.427537 1.088376 0.261847
v -0.232964 1.635076 0.261847
v -0.174624 1.587392 0.261847
v -0.157085 1.644549 0.261847
v -0.221622 1.108610 0.261847
v -0.277967 0.849153 0.261847
v -0.071104 0.871393 0.261847
v -0.077119 1.126220 0.261847
v -0.161996 1.547455 0.261847
v -0.218193 1.453053 0.261847
v -0.039579 1.425195 0.261847
v -0.047431 1.553920 0.261847
v -0.114414 1.661725 0.261847
v -0.148320 1.577638 0.261847
v -0.048967 1.583444 0.261847
v -0.052743 1.670846 0.261847
v -0.275090 0.819730 0.261847
v -0.228547 0.711271 0.261847
v -0.055473 0.702226 0.261847
v -0.069268 0.841874 0.261847
v -0.227146 1.424408 0.261847
v -0.219434 1.138530 0.261847
v -0.075665 1.156068 0.261847
v -0.040539 1.395507 0.261847
v 0.045785 1.587474 0.255458
v 0.249073 1.654178 0.255458
v 0.120660 1.683945 0.255458
v 0.042063 1.673638 0.255458
v 0.023740 0.874064 0.255458
v 0.217586 0.894027 0.255458
v 0.253684 1.154031 0.255458
v 0.017721 1.129059 0.255458
v 0.019975 1.158963 0.255458
v 0.253846 1.183739 0.255458
v 0.214391 1.434572 0.255458
v 0.054721 1.395812 0.255458
v 0.039698 0.700927 0.255458
v 0.250941 0.690424 0.255458
v 0.218538 0.864432 0.255458
v 0.025511 0.844541 0.255458
v 0.055319 1.426108 0.255458
v 0.211667 1.464188 0.255458
v 0.288003 1.634796 0.255458
v 0.047301 1.557554 0.255458
v 0.248118 0.867069 0.255458
v 0.281257 0.689105 0.255458
v 0.436364 0.682355 0.255458
v 0.434676 0.883701 0.255458
v 0.307965 1.605836 0.255458
v 0.241162 1.470213 0.255458
v 0.336829 1.489754 0.255458
v 0.283924 1.156869 0.255458
v 0.247807 0.896721 0.255458
v 0.433866 0.913309 0.255458
v 0.421331 1.169767 0.255458
v 0.243386 1.440494 0.255458
v 0.283337 1.186507 0.255458
v 0.417148 1.199067 0.255458
v 0.356264 1.463550 0.255458
v -0.299679 1.463694 0.257452
v -0.250116 1.457221 0.257452
v -0.197311 1.545925 0.257452
v -0.259542 1.614253 0.257452
v -0.417726 0.719506 0.257452
v -0.261329 0.712698 0.257452
v -0.306037 0.816881 0.257452
v -0.430682 0.805406 0.257452
v -0.420832 1.118740 0.257452
v -0.248930 1.135631 0.257452
v -0.256824 1.428283 0.257452
v -0.315143 1.435899 0.257452
v -0.432530 0.834924 0.257452
v -0.308836 0.846311 0.257452
v -0.252534 1.105572 0.257452
v -0.427537 1.088376 0.257452
v -0.232964 1.635076 0.257452
v -0.174624 1.587392 0.257452
v -0.157085 1.644549 0.257452
v -0.221622 1.108610 0.257452
v -0.277967 0.849153 0.257452
v -0.071104 0.871393 0.257452
v -0.077119 1.126220 0.257452
v -0.161996 1.547455 0.257452
v -0.218193 1.453053 0.257452
v -0.039579 1.425195 0.257452
v -0.047431 1.553920 0.257452
v -0.114414 1.661725 0.257452
v -0.148320 1.577638 0.257452
v -0.048967 1.583444 0.257452
v -0.052743 1.670846 0.257452
v -0.275090 0.819730 0.257452
v -0.228547 0.711271 0.257452
v -0.055473 0.702226 0.257452
v -0.069268 0.841874 0.257452
v -0.227146 1.424408 0.257452
v -0.219434 1.138530 0.257452
v -0.075665 1.156068 0.257452
v -0.040539 1.395507 0.257452
vt 0.049065 0.464424
vt 0.087321 0.465372
vt 0.087321 0.481616
vt 0.051106 0.483264
vt 0.035337 0.468661
vt 0.046220 0.481546
vt 0.046220 0.460229
vt 0.075382 0.428220
vt 0.075382 0.464424
vt 0.055942 0.463553
vt 0.049065 0.427165
vt 0.047044 0.430062
vt 0.037411 0.445957
vt 0.035337 0.456940
vt 0.047044 0.460229
vt 0.075382 0.451290
vt 0.103681 0.453574
vt 0.103681 0.427165
vt 0.078272 0.429591
vt 0.035337 0.465705
vt 0.017344 0.470292
vt 0.015721 0.447661
vt 0.035337 0.430062
vt 0.107057 0.391449
vt 0.086709 0.391363
vt 0.082183 0.420839
vt 0.107057 0.418809
vt 0.059094 0.425264
vt 0.049065 0.393036
vt 0.082183 0.391363
vt 0.082183 0.427165
vt 0.049065 0.394098
vt 0.049065 0.430062
vt 0.021674 0.427893
vt 0.015721 0.391363
vt 0.066783 0.473371
vt 0.067503 0.465257
vt 0.078213 0.460193
vt 0.078213 0.473198
vt 0.044269 0.464951
vt 0.051502 0.471844
vt 0.051502 0.461999
vt 0.089602 0.400019
vt 0.089602 0.433143
vt 0.073471 0.431337
vt 0.066783 0.397322
vt 0.059192 0.397322
vt 0.044269 0.438377
vt 0.066783 0.436776
vt 0.066783 0.398522
vt 0.099211 0.433143
vt 0.087878 0.433800
vt 0.085119 0.454069
vt 0.099211 0.449500
vt 0.095276 0.474429
vt 0.095276 0.454069
vt 0.088800 0.454920
vt 0.085119 0.467897
vt 0.066783 0.460033
vt 0.085119 0.460193
vt 0.085119 0.433143
vt 0.070377 0.437674
vt 0.060731 0.438377
vt 0.044269 0.441983
vt 0.047411 0.456644
vt 0.060731 0.461999
vt 0.022610 0.434681
vt 0.017178 0.465833
vt 0.041451 0.470265
vt 0.041451 0.432896
vt 0.044269 0.430629
vt 0.044269 0.397322
vt 0.025338 0.399177
vt 0.017178 0.432896
vt 0.049065 0.464424
vt 0.051106 0.483264
vt 0.087321 0.481616
vt 0.087321 0.465372
vt 0.035337 0.468661
vt 0.046220 0.460229
vt 0.046220 0.481546
vt 0.075382 0.428220
vt 0.049065 0.427165
vt 0.055942 0.463553
vt 0.075382 0.464424
vt 0.047044 0.430062
vt 0.047044 0.460229
vt 0.035337 0.456940
vt 0.037411 0.445957
vt 0.075382 0.451290
vt 0.078272 0.429591
vt 0.103681 0.427165
vt 0.103681 0.453574
vt 0.035337 0.465705
vt 0.035337 0.430062
vt 0.015721 0.447661
vt 0.017344 0.470292
vt 0.107057 0.391449
vt 0.107057 0.418809
vt 0.082183 0.420839
vt 0.086709 0.391363
vt 0.059094 0.425264
vt 0.082183 0.427165
vt 0.082183 0.391363
vt 0.049065 0.393036
vt 0.049065 0.394098
vt 0.015721 0.391363
vt 0.021674 0.427893
vt 0.049065 0.430062
vt 0.066783 0.473371
vt 0.078213 0.473198
vt 0.078213 0.460193
vt 0.067503 0.465257
vt 0.044269 0.464951
vt 0.051502 0.461999
vt 0.051502 0.471844
vt 0.089602 0.400019
vt 0.066783 0.397322
vt 0.073471 0.431337
vt 0.089602 0.433143
vt 0.059192 0.397322
vt 0.066783 0.398522
vt 0.066783 0.436776
vt 0.044269 0.438377
vt 0.099211 0.433143
vt 0.099211 0.449500
vt 0.085119 0.454069
vt 0.087878 0.433800
vt 0.095276 0.474429
vt 0.085119 0.467897
vt 0.088800 0.454920
vt 0.095276 0.454069
vt 0.066783 0.460033
vt 0.070377 0.437674
vt 0.085119 0.433143
vt 0.085119 0.460193
vt 0.060731 0.438377
vt 0.060731 0.461999
vt 0.047411 0.456644
vt 0.044269 0.441983
vt 0.022610 0.434681
vt 0.041451 0.432896
vt 0.041451 0.470265
vt 0.017178 0.465833
vt 0.044269 0.430629
vt 0.017178 0.432896
vt 0.025338 0.399177
vt 0.044269 0.397322
vn 0.0000 0.0000 1.0000
vn -0.0000 0.0000 -1.0000
usemtl MAT_Atlas
s off
f 34/1/1 35/2/1 32/3/1 33/4/1
f 27/5/1 25/6/1 26/7/1
f 30/8/1 31/9/1 28/10/1 29/11/1
f 2/12/1 3/13/1 4/14/1 1/15/1
f 23/16/1 24/17/1 21/18/1 22/19/1
f 20/20/1 17/21/1 18/22/1 19/23/1
f 16/24/1 13/25/1 14/26/1 15/27/1
f 12/28/1 9/29/1 10/30/1 11/31/1
f 8/32/1 5/33/1 6/34/1 7/35/1
f 66/36/1 63/37/1 64/38/1 65/39/1
f 54/40/1 52/41/1 53/42/1
f 51/43/1 48/44/1 49/45/1 50/46/1
f 47/47/1 44/48/1 45/49/1 46/50/1
f 43/51/1 40/52/1 41/53/1 42/54/1
f 39/55/1 36/56/1 37/57/1 38/58/1
f 69/59/1 70/60/1 67/61/1 68/62/1
f 61/63/1 62/64/1 59/65/1 60/66/1
f 73/67/1 74/68/1 71/69/1 72/70/1
f 57/71/1 58/72/1 55/73/1 56/74/1
f 108/75/2 107/76/2 106/77/2 109/78/2
f 101/79/2 100/80/2 99/81/2
f 104/82/2 103/83/2 102/84/2 105/85/2
f 76/86/2 75/87/2 78/88/2 77/89/2
f 97/90/2 96/91/2 95/92/2 98/93/2
f 94/94/2 93/95/2 92/96/2 91/97/2
f 90/98/2 89/99/2 88/100/2 87/101/2
f 86/102/2 85/103/2 84/104/2 83/105/2
f 82/106/2 81/107/2 80/108/2 79/109/2
f 140/110/2 139/111/2 138/112/2 137/113/2
f 128/114/2 127/115/2 126/116/2
f 125/117/2 124/118/2 123/119/2 122/120/2
f 121/121/2 120/122/2 119/123/2 118/124/2
f 117/125/2 116/126/2 115/127/2 114/128/2
f 113/129/2 112/130/2 111/131/2 110/132/2
f 143/133/2 142/134/2 141/135/2 144/136/2
f 135/137/2 134/138/2 133/139/2 136/140/2
f 147/141/2 146/142/2 145/143/2 148/144/2
f 131/145/2 130/146/2 129/147/2 132/148/2
