# Blender v3.2.0 OBJ File: 'Props3Scaled.blend'
# www.blender.org
mtllib Door.mtl
o Door_Cube.004
v -0.495837 0.002647 0.027973
v -0.493662 1.598790 0.056572
v -0.485068 -0.005632 -0.015843
v -0.513536 1.592126 -0.048840
v -0.182081 -0.010890 0.018301
v -0.181879 1.611235 0.038573
v -0.178161 -0.018499 -0.033937
v -0.169015 1.594926 -0.032736
v -0.494900 0.547722 0.035743
v -0.522800 0.987533 0.026073
v -0.515534 0.986133 -0.003042
v -0.497584 0.528234 -0.029792
v -0.189711 0.989256 -0.030970
v -0.162965 0.531821 -0.027237
v -0.193866 0.983501 0.019744
v -0.164442 0.512794 0.045237
v -0.158588 -0.012301 0.048605
v -0.148902 1.598417 0.035775
v -0.173216 0.005839 -0.036227
v -0.172456 1.597505 -0.016792
v 0.182237 0.003800 0.020004
v 0.153520 1.573435 0.023701
v 0.170604 0.009108 -0.033910
v 0.180446 1.584774 -0.028510
v -0.164531 0.533887 0.055528
v -0.156120 1.066880 0.029671
v -0.153765 1.064880 -0.027326
v -0.202000 0.544112 -0.024663
v 0.199361 1.071182 -0.025906
v 0.186705 0.525876 -0.026943
v 0.202155 1.063557 0.028238
v 0.163720 0.526534 0.047128
v 0.197389 -0.019954 0.026727
v 0.202167 1.604387 0.015448
v 0.184424 -0.008005 -0.026015
v 0.189734 1.599809 -0.040033
v 0.521266 -0.003242 0.033653
v 0.503867 1.588372 0.033340
v 0.518115 -0.007690 -0.019664
v 0.519481 1.594625 -0.030590
v 0.199150 0.544525 0.011027
v 0.212005 1.024152 0.032177
v 0.221268 1.002544 -0.019954
v 0.201497 0.533088 -0.043003
v 0.576912 1.036844 -0.019648
v 0.506296 0.541460 -0.026466
v 0.542956 1.023235 0.023114
v 0.485207 0.544579 0.035599
v -0.540571 1.114690 0.061366
v -0.540571 1.271226 0.061366
v -0.540571 1.114690 -0.060617
v -0.540571 1.271226 -0.060617
v 0.586541 1.114690 0.061366
v 0.586541 1.271226 0.061366
v 0.586541 1.114690 -0.060617
v 0.586541 1.271226 -0.060617
v -0.540571 0.339817 0.061366
v -0.540571 0.496353 0.061366
v -0.540571 0.339817 -0.060617
v -0.540571 0.496353 -0.060617
v 0.586541 0.339817 0.061366
v 0.586541 0.496353 0.061366
v 0.586541 0.339817 -0.060617
v 0.586541 0.496353 -0.060617
v 0.257624 0.768234 0.045088
v 0.377537 0.868853 0.045088
v 0.257624 0.768234 0.020911
v 0.377537 0.868853 0.020911
v 0.367127 0.637733 0.045088
v 0.487040 0.738352 0.045088
v 0.367127 0.637733 0.020911
v 0.487040 0.738352 0.020911
v 0.277520 0.765170 0.129656
v 0.295912 0.780603 0.129656
v 0.277520 0.765170 0.043214
v 0.295912 0.780603 0.043214
v 0.294316 0.745155 0.129656
v 0.312707 0.760587 0.129656
v 0.294316 0.745155 0.043214
v 0.312707 0.760587 0.043214
v 0.432489 0.745999 0.129656
v 0.450881 0.761431 0.129656
v 0.432489 0.745999 0.043214
v 0.450881 0.761431 0.043214
v 0.449284 0.725983 0.129656
v 0.467676 0.741416 0.129656
v 0.449284 0.725983 0.043214
v 0.467676 0.741416 0.043214
v 0.502253 0.674519 0.126284
v 0.473794 0.674519 0.154743
v 0.445335 0.674519 0.126284
v 0.473794 0.674519 0.097825
v 0.460576 0.775137 0.126284
v 0.440453 0.755013 0.154743
v 0.420329 0.734890 0.126284
v 0.440453 0.755013 0.097825
v 0.359959 0.816814 0.126284
v 0.359959 0.788355 0.154743
v 0.359959 0.759896 0.126284
v 0.359959 0.788355 0.097825
v 0.259341 0.775137 0.126284
v 0.279465 0.755013 0.154743
v 0.299588 0.734890 0.126284
v 0.279465 0.755013 0.097825
v 0.217664 0.674519 0.126284
v 0.246123 0.674519 0.154743
v 0.274582 0.674519 0.126284
v 0.246123 0.674519 0.097825
v 0.259341 0.573902 0.126284
v 0.279465 0.594025 0.154743
v 0.299588 0.614149 0.126284
v 0.279465 0.594025 0.097825
v 0.359959 0.532225 0.126284
v 0.359959 0.560684 0.154743
v 0.359959 0.589143 0.126284
v 0.359959 0.560684 0.097825
v 0.460576 0.573902 0.126284
v 0.440452 0.594025 0.154743
v 0.420329 0.614149 0.126284
v 0.440452 0.594025 0.097825
vt 0.216943 0.834644
vt 0.216943 0.753350
vt 0.236856 0.753350
vt 0.236856 0.834644
vt 0.256769 0.753350
vt 0.256769 0.834644
vt 0.276683 0.753350
vt 0.276683 0.834644
vt 0.296596 0.753350
vt 0.296596 0.834644
vt 0.256769 1.241117
vt 0.256769 0.997233
vt 0.276683 0.997233
vt 0.276683 1.241117
vt 0.256769 0.509467
vt 0.276683 0.509467
vt 0.276683 0.915939
vt 0.296596 0.915939
vt 0.296596 0.997233
vt 0.256769 0.915939
vt 0.236856 0.997233
vt 0.236856 0.915939
vt 0.216943 0.997233
vt 0.216943 0.915939
vt 0.216943 0.834644
vt 0.216943 0.753350
vt 0.236856 0.753350
vt 0.236856 0.834644
vt 0.256769 0.753350
vt 0.256769 0.834644
vt 0.276683 0.753350
vt 0.276683 0.834644
vt 0.296596 0.753350
vt 0.296596 0.834644
vt 0.256769 1.241117
vt 0.256769 0.997233
vt 0.276683 0.997233
vt 0.276683 1.241117
vt 0.256769 0.509467
vt 0.276683 0.509467
vt 0.276683 0.915939
vt 0.296596 0.915939
vt 0.296596 0.997233
vt 0.256769 0.915939
vt 0.236856 0.997233
vt 0.236856 0.915939
vt 0.216943 0.997233
vt 0.216943 0.915939
vt 0.216943 0.834644
vt 0.216943 0.753350
vt 0.236856 0.753350
vt 0.236856 0.834644
vt 0.256769 0.753350
vt 0.256769 0.834644
vt 0.276683 0.753350
vt 0.276683 0.834644
vt 0.296596 0.753350
vt 0.296596 0.834644
vt 0.256769 1.241117
vt 0.256769 0.997233
vt 0.276683 0.997233
vt 0.276683 1.241117
vt 0.256769 0.509467
vt 0.276683 0.509467
vt 0.276683 0.915939
vt 0.296596 0.915939
vt 0.296596 0.997233
vt 0.256769 0.915939
vt 0.236856 0.997233
vt 0.236856 0.915939
vt 0.216943 0.997233
vt 0.216943 0.915939
vt 0.240422 0.430854
vt 0.240422 0.444224
vt 0.230003 0.444224
vt 0.230003 0.430854
vt 0.148219 0.487012
vt 0.134849 0.487012
vt 0.134849 0.390744
vt 0.148219 0.390744
vt 0.240422 0.390744
vt 0.240422 0.404114
vt 0.230003 0.404114
vt 0.230003 0.390744
vt 0.174959 0.487012
vt 0.161589 0.487012
vt 0.161589 0.390744
vt 0.174959 0.390744
vt 0.209166 0.390744
vt 0.209166 0.487012
vt 0.198747 0.487012
vt 0.198747 0.390744
vt 0.198747 0.390744
vt 0.198747 0.487012
vt 0.188329 0.487012
vt 0.188329 0.390744
vt 0.240422 0.417484
vt 0.240422 0.430854
vt 0.230003 0.430854
vt 0.230003 0.417484
vt 0.188329 0.487012
vt 0.174959 0.487012
vt 0.174959 0.390744
vt 0.188329 0.390744
vt 0.240422 0.404114
vt 0.240422 0.417484
vt 0.230003 0.417484
vt 0.230003 0.404114
vt 0.161589 0.487012
vt 0.148219 0.487012
vt 0.148219 0.390744
vt 0.161589 0.390744
vt 0.230003 0.390744
vt 0.230003 0.487012
vt 0.219585 0.487012
vt 0.219585 0.390744
vt 0.219585 0.390744
vt 0.219585 0.487012
vt 0.209166 0.487012
vt 0.209166 0.390744
vt 0.174282 0.387195
vt 0.201534 0.387195
vt 0.201534 0.414447
vt 0.174282 0.414447
vt 0.201534 0.441699
vt 0.174282 0.441699
vt 0.201534 0.468951
vt 0.174282 0.468951
vt 0.201534 0.496203
vt 0.174282 0.496203
vt 0.147029 0.441699
vt 0.147029 0.468951
vt 0.228786 0.441699
vt 0.228786 0.468951
vt 0.174282 0.387195
vt 0.201534 0.387195
vt 0.201534 0.414447
vt 0.174282 0.414447
vt 0.201534 0.441699
vt 0.174282 0.441699
vt 0.201534 0.468951
vt 0.174282 0.468951
vt 0.201534 0.496203
vt 0.174282 0.496203
vt 0.147029 0.441699
vt 0.147029 0.468951
vt 0.228786 0.441699
vt 0.228786 0.468951
vt 0.174282 0.387195
vt 0.201534 0.387195
vt 0.201534 0.414447
vt 0.174282 0.414447
vt 0.201534 0.441699
vt 0.174282 0.441699
vt 0.201534 0.468951
vt 0.174282 0.468951
vt 0.201534 0.496203
vt 0.174282 0.496203
vt 0.147029 0.441699
vt 0.147029 0.468951
vt 0.228786 0.441699
vt 0.228786 0.468951
vt 0.187908 0.441699
vt 0.201534 0.441699
vt 0.201534 0.468951
vt 0.187908 0.468951
vt 0.201534 0.496203
vt 0.187908 0.496203
vt 0.187908 0.387195
vt 0.201534 0.387195
vt 0.201534 0.414447
vt 0.187908 0.414447
vt 0.215160 0.441699
vt 0.215160 0.468951
vt 0.215160 0.496203
vt 0.215160 0.387195
vt 0.215160 0.414447
vt 0.228786 0.441699
vt 0.228786 0.468951
vt 0.228786 0.496203
vt 0.228786 0.387195
vt 0.228786 0.414447
vt 0.242412 0.441699
vt 0.242412 0.468951
vt 0.242412 0.496203
vt 0.242412 0.387195
vt 0.242412 0.414447
vt 0.133403 0.441699
vt 0.147029 0.441699
vt 0.147029 0.468951
vt 0.133403 0.468951
vt 0.147029 0.496203
vt 0.133403 0.496203
vt 0.133403 0.387195
vt 0.147029 0.387195
vt 0.147029 0.414447
vt 0.133403 0.414447
vt 0.160655 0.441699
vt 0.160655 0.468951
vt 0.160655 0.496203
vt 0.160655 0.387195
vt 0.160655 0.414447
vt 0.174282 0.441699
vt 0.174282 0.468951
vt 0.174282 0.496203
vt 0.174282 0.387195
vt 0.174282 0.414447
vn -0.9954 0.0266 0.0917
vn -0.0173 -0.0389 -0.9991
vn 0.9897 -0.0282 0.1405
vn 0.0384 -0.0410 0.9984
vn -0.0349 -0.9868 0.1579
vn -0.0234 0.9915 -0.1280
vn -0.0022 -0.0324 0.9995
vn -0.0025 0.0384 0.9993
vn 0.9987 -0.0318 0.0403
vn 0.9964 0.0621 0.0580
vn -0.0243 -0.0066 -0.9997
vn -0.0386 0.0232 -0.9990
vn -0.9974 -0.0111 -0.0709
vn -0.9980 -0.0503 -0.0372
vn -0.9816 -0.0136 0.1903
vn -0.0145 0.0071 -0.9999
vn 0.9705 0.0657 0.2319
vn 0.0204 -0.0007 0.9998
vn 0.0213 -0.9851 -0.1705
vn 0.0608 0.9930 0.1008
vn 0.0556 -0.0305 0.9980
vn 0.0150 0.0411 0.9990
vn 0.9961 -0.0006 0.0883
vn 0.9872 -0.0441 0.1531
vn 0.0004 0.0176 -0.9998
vn -0.0012 -0.0015 -1.0000
vn -0.9547 -0.0356 0.2953
vn -0.9662 0.0587 0.2508
vn -0.9987 -0.0339 0.0377
vn 0.0153 -0.0257 -0.9996
vn 0.8986 0.0775 0.4319
vn -0.0138 0.0051 0.9999
vn 0.0273 -0.9968 -0.0746
vn 0.0329 0.9993 0.0149
vn -0.0519 0.0107 0.9986
vn -0.0251 -0.0072 0.9997
vn 0.9876 0.0438 0.1507
vn 0.8843 -0.1139 0.4529
vn 0.0361 -0.0220 -0.9991
vn 0.0236 0.0287 -0.9993
vn -0.9949 0.0199 0.0990
vn -0.9919 0.0397 -0.1208
vn -1.0000 0.0000 0.0000
vn 0.0000 0.0000 -1.0000
vn 1.0000 0.0000 0.0000
vn 0.0000 0.0000 1.0000
vn 0.0000 -1.0000 0.0000
vn 0.0000 1.0000 0.0000
vn -0.6428 0.7660 0.0000
vn 0.6428 -0.7660 0.0000
vn -0.7660 -0.6428 0.0000
vn 0.7660 0.6428 0.0000
vn 0.6786 0.2811 0.6786
vn -0.6786 -0.2811 0.6786
vn -0.6786 -0.2811 -0.6786
vn 0.6786 0.2811 -0.6786
vn 0.2811 0.6786 0.6786
vn -0.2811 -0.6786 0.6786
vn -0.2811 -0.6786 -0.6786
vn 0.2811 0.6786 -0.6786
vn -0.2811 0.6786 0.6786
vn 0.2811 -0.6786 0.6786
vn 0.2811 -0.6786 -0.6786
vn -0.2811 0.6786 -0.6786
vn -0.6786 0.2811 0.6786
vn 0.6786 -0.2811 0.6786
vn 0.6786 -0.2811 -0.6786
vn -0.6786 0.2811 -0.6786
usemtl MAT_Atlas
s off
f 10/1/1 2/2/1 4/3/1 11/4/1
f 11/4/2 4/3/2 8/5/2 13/6/2
f 13/6/3 8/5/3 6/7/3 15/8/3
f 15/8/4 6/7/4 2/9/4 10/10/4
f 3/11/5 7/12/5 5/13/5 1/14/5
f 8/5/6 4/15/6 2/16/6 6/7/6
f 5/13/7 16/17/7 9/18/7 1/19/7
f 16/17/8 15/8/8 10/10/8 9/18/8
f 7/12/9 14/20/9 16/17/9 5/13/9
f 14/20/10 13/6/10 15/8/10 16/17/10
f 3/21/11 12/22/11 14/20/11 7/12/11
f 12/22/12 11/4/12 13/6/12 14/20/12
f 1/23/13 9/24/13 12/22/13 3/21/13
f 9/24/14 10/1/14 11/4/14 12/22/14
f 26/25/15 18/26/15 20/27/15 27/28/15
f 27/28/16 20/27/16 24/29/16 29/30/16
f 29/30/17 24/29/17 22/31/17 31/32/17
f 31/32/18 22/31/18 18/33/18 26/34/18
f 19/35/19 23/36/19 21/37/19 17/38/19
f 24/29/20 20/39/20 18/40/20 22/31/20
f 21/37/21 32/41/21 25/42/21 17/43/21
f 32/41/22 31/32/22 26/34/22 25/42/22
f 23/36/23 30/44/23 32/41/23 21/37/23
f 30/44/24 29/30/24 31/32/24 32/41/24
f 19/45/25 28/46/25 30/44/25 23/36/25
f 28/46/26 27/28/26 29/30/26 30/44/26
f 17/47/27 25/48/27 28/46/27 19/45/27
f 25/48/28 26/25/28 27/28/28 28/46/28
f 42/49/29 34/50/29 36/51/29 43/52/29
f 43/52/30 36/51/30 40/53/30 45/54/30
f 45/54/31 40/53/31 38/55/31 47/56/31
f 47/56/32 38/55/32 34/57/32 42/58/32
f 35/59/33 39/60/33 37/61/33 33/62/33
f 40/53/34 36/63/34 34/64/34 38/55/34
f 37/61/35 48/65/35 41/66/35 33/67/35
f 48/65/36 47/56/36 42/58/36 41/66/36
f 39/60/37 46/68/37 48/65/37 37/61/37
f 46/68/38 45/54/38 47/56/38 48/65/38
f 35/69/39 44/70/39 46/68/39 39/60/39
f 44/70/40 43/52/40 45/54/40 46/68/40
f 33/71/41 41/72/41 44/70/41 35/69/41
f 41/72/42 42/49/42 43/52/42 44/70/42
f 49/73/43 50/74/43 52/75/43 51/76/43
f 51/77/44 52/78/44 56/79/44 55/80/44
f 55/81/45 56/82/45 54/83/45 53/84/45
f 53/85/46 54/86/46 50/87/46 49/88/46
f 51/89/47 55/90/47 53/91/47 49/92/47
f 56/93/48 52/94/48 50/95/48 54/96/48
f 57/97/43 58/98/43 60/99/43 59/100/43
f 59/101/44 60/102/44 64/103/44 63/104/44
f 63/105/45 64/106/45 62/107/45 61/108/45
f 61/109/46 62/110/46 58/111/46 57/112/46
f 59/113/47 63/114/47 61/115/47 57/116/47
f 64/117/48 60/118/48 58/119/48 62/120/48
f 65/121/49 66/122/49 68/123/49 67/124/49
f 67/124/44 68/123/44 72/125/44 71/126/44
f 71/126/50 72/125/50 70/127/50 69/128/50
f 69/128/46 70/127/46 66/129/46 65/130/46
f 67/131/51 71/126/51 69/128/51 65/132/51
f 72/125/52 68/133/52 66/134/52 70/127/52
f 73/135/49 74/136/49 76/137/49 75/138/49
f 75/138/44 76/137/44 80/139/44 79/140/44
f 79/140/50 80/139/50 78/141/50 77/142/50
f 77/142/46 78/141/46 74/143/46 73/144/46
f 75/145/51 79/140/51 77/142/51 73/146/51
f 80/139/52 76/147/52 74/148/52 78/141/52
f 81/149/49 82/150/49 84/151/49 83/152/49
f 83/152/44 84/151/44 88/153/44 87/154/44
f 87/154/50 88/153/50 86/155/50 85/156/50
f 85/156/46 86/155/46 82/157/46 81/158/46
f 83/159/51 87/154/51 85/156/51 81/160/51
f 88/153/52 84/161/52 82/162/52 86/155/52
f 89/163/53 93/164/53 94/165/53 90/166/53
f 90/166/54 94/165/54 95/167/54 91/168/54
f 91/169/55 95/170/55 96/171/55 92/172/55
f 92/172/56 96/171/56 93/164/56 89/163/56
f 93/164/57 97/173/57 98/174/57 94/165/57
f 94/165/58 98/174/58 99/175/58 95/167/58
f 95/170/59 99/176/59 100/177/59 96/171/59
f 96/171/60 100/177/60 97/173/60 93/164/60
f 97/173/61 101/178/61 102/179/61 98/174/61
f 98/174/62 102/179/62 103/180/62 99/175/62
f 99/176/63 103/181/63 104/182/63 100/177/63
f 100/177/64 104/182/64 101/178/64 97/173/64
f 101/178/65 105/183/65 106/184/65 102/179/65
f 102/179/66 106/184/66 107/185/66 103/180/66
f 103/181/67 107/186/67 108/187/67 104/182/67
f 104/182/68 108/187/68 105/183/68 101/178/68
f 105/188/54 109/189/54 110/190/54 106/191/54
f 106/191/53 110/190/53 111/192/53 107/193/53
f 107/194/56 111/195/56 112/196/56 108/197/56
f 108/197/55 112/196/55 109/189/55 105/188/55
f 109/189/58 113/198/58 114/199/58 110/190/58
f 110/190/57 114/199/57 115/200/57 111/192/57
f 111/195/60 115/201/60 116/202/60 112/196/60
f 112/196/59 116/202/59 113/198/59 109/189/59
f 113/198/62 117/203/62 118/204/62 114/199/62
f 114/199/61 118/204/61 119/205/61 115/200/61
f 115/201/64 119/206/64 120/207/64 116/202/64
f 116/202/63 120/207/63 117/203/63 113/198/63
f 117/203/66 89/163/66 90/166/66 118/204/66
f 118/204/65 90/166/65 91/168/65 119/205/65
f 119/206/68 91/169/68 92/172/68 120/207/68
f 120/207/67 92/172/67 89/163/67 117/203/67
