# Blender v3.2.0 OBJ File: 'Props3Scaled.blend'
# www.blender.org
mtllib Water.mtl
o Cup.001_Cylinder.016
v 0.000000 0.207444 -0.092232
v 0.037483 0.207444 -0.084265
v 0.068485 0.207444 -0.061741
v 0.087645 0.207444 -0.028554
v 0.091650 0.207444 0.009556
v 0.079809 0.207444 0.046001
v 0.054167 0.207444 0.074478
v 0.019160 0.207444 0.090065
v -0.019160 0.207444 0.090065
v -0.054168 0.207444 0.074478
v -0.079809 0.207444 0.046001
v -0.091650 0.207444 0.009556
v -0.087645 0.207444 -0.028554
v -0.068485 0.207444 -0.061741
v -0.037483 0.207444 -0.084265
v 0.000000 0.207444 -0.000847
vt 0.069712 0.381948
vt 0.091998 0.389189
vt 0.063871 0.438461
vt 0.118943 0.449709
vt 0.109412 0.471116
vt 0.046408 0.491587
vt 0.026114 0.479871
vt 0.012341 0.415071
vt 0.026114 0.396114
vt 0.109412 0.404869
vt 0.091998 0.486795
vt 0.012341 0.460913
vt 0.046408 0.384397
vt 0.118943 0.426276
vt 0.069712 0.494036
vt 0.007469 0.437992
vn -0.0000 1.0000 -0.0000
usemtl MAT_Atlas
s 1
f 8/1/1 7/2/1 16/3/1
f 4/4/1 3/5/1 16/3/1
f 15/6/1 14/7/1 16/3/1
f 11/8/1 10/9/1 16/3/1
f 7/2/1 6/10/1 16/3/1
f 3/5/1 2/11/1 16/3/1
f 14/7/1 13/12/1 16/3/1
f 10/9/1 9/13/1 16/3/1
f 6/10/1 5/14/1 16/3/1
f 2/11/1 1/15/1 16/3/1
f 13/12/1 12/16/1 16/3/1
f 9/13/1 8/1/1 16/3/1
f 5/14/1 4/4/1 16/3/1
f 1/15/1 15/6/1 16/3/1
f 12/16/1 11/8/1 16/3/1
