# Blender v3.2.0 OBJ File: 'Props3Scaled.blend'
# www.blender.org
mtllib WaterCup.mtl
o Cup_Cylinder.003
v 0.000000 0.000000 -0.099184
v 0.000000 0.230185 -0.099184
v 0.040342 0.000000 -0.090609
v 0.040342 0.230185 -0.090609
v 0.073708 0.000000 -0.066367
v 0.073708 0.230185 -0.066367
v 0.094329 0.000000 -0.030649
v 0.094329 0.230185 -0.030649
v 0.098640 0.000000 0.010368
v 0.098640 0.230185 0.010368
v 0.085896 0.000000 0.049592
v 0.085896 0.230185 0.049592
v 0.058299 0.000000 0.080241
v 0.058299 0.230185 0.080241
v 0.020621 0.000000 0.097016
v 0.020621 0.230185 0.097016
v -0.020621 0.000000 0.097016
v -0.020621 0.230185 0.097016
v -0.058299 0.000000 0.080241
v -0.058299 0.230185 0.080241
v -0.085896 0.000000 0.049592
v -0.085896 0.230185 0.049592
v -0.098640 0.000000 0.010368
v -0.098640 0.230185 0.010368
v -0.094329 0.000000 -0.030649
v -0.094329 0.230185 -0.030649
v -0.073708 0.000000 -0.066367
v -0.073708 0.230185 -0.066367
v -0.040342 0.000000 -0.090609
v -0.040342 0.230185 -0.090609
v 0.000000 0.073891 -0.106440
v 0.000000 0.156294 -0.106440
v 0.043325 0.156294 -0.097230
v 0.043325 0.073891 -0.097230
v 0.079160 0.156294 -0.071195
v 0.079160 0.073891 -0.071195
v 0.101306 0.156294 -0.032836
v 0.101306 0.073891 -0.032836
v 0.105936 0.156294 0.011214
v 0.105936 0.073891 0.011214
v 0.092249 0.156294 0.053340
v 0.092249 0.073891 0.053340
v 0.062611 0.156294 0.086256
v 0.062611 0.073891 0.086256
v 0.022147 0.156294 0.104272
v 0.022147 0.073891 0.104272
v -0.022147 0.156294 0.104272
v -0.022147 0.073891 0.104272
v -0.062611 0.156294 0.086256
v -0.062611 0.073891 0.086256
v -0.092249 0.156294 0.053340
v -0.092249 0.073891 0.053340
v -0.105936 0.156294 0.011214
v -0.105936 0.073891 0.011214
v -0.101306 0.156294 -0.032836
v -0.101306 0.073891 -0.032836
v -0.079160 0.156294 -0.071195
v -0.079160 0.073891 -0.071195
v -0.043325 0.156294 -0.097230
v -0.043325 0.073891 -0.097230
v -0.000000 0.000000 -0.000395
v 0.000000 0.012343 -0.085955
v 0.000000 0.230185 -0.085955
v 0.034901 0.012343 -0.078536
v 0.034901 0.230185 -0.078536
v 0.063768 0.012343 -0.057563
v 0.063768 0.230185 -0.057563
v 0.081609 0.012343 -0.026662
v 0.081609 0.230185 -0.026662
v 0.085338 0.012343 0.008823
v 0.085338 0.230185 0.008823
v 0.074312 0.012343 0.042758
v 0.074312 0.230185 0.042758
v 0.050437 0.012343 0.069274
v 0.050437 0.230185 0.069274
v 0.017841 0.012343 0.083787
v 0.017841 0.230185 0.083787
v -0.017841 0.012343 0.083787
v -0.017841 0.230185 0.083787
v -0.050437 0.012343 0.069274
v -0.050437 0.230185 0.069274
v -0.074312 0.012343 0.042758
v -0.074312 0.230185 0.042758
v -0.085338 0.012343 0.008823
v -0.085338 0.230185 0.008823
v -0.081609 0.012343 -0.026662
v -0.081609 0.230185 -0.026662
v -0.063768 0.012343 -0.057563
v -0.063768 0.230185 -0.057563
v -0.034901 0.012343 -0.078536
v -0.034901 0.230185 -0.078536
v 0.000000 0.073891 -0.092232
v 0.000000 0.156294 -0.092232
v 0.037483 0.156294 -0.084265
v 0.037483 0.073891 -0.084265
v 0.068485 0.156294 -0.061741
v 0.068485 0.073891 -0.061741
v 0.087645 0.156294 -0.028554
v 0.087645 0.073891 -0.028554
v 0.091650 0.156294 0.009556
v 0.091650 0.073891 0.009556
v 0.079809 0.156294 0.046001
v 0.079809 0.073891 0.046001
v 0.054167 0.156294 0.074478
v 0.054167 0.073891 0.074478
v 0.019160 0.156294 0.090065
v 0.019160 0.073891 0.090065
v -0.019160 0.156294 0.090065
v -0.019160 0.073891 0.090065
v -0.054168 0.156294 0.074478
v -0.054168 0.073891 0.074478
v -0.079809 0.156294 0.046001
v -0.079809 0.073891 0.046001
v -0.091650 0.156294 0.009556
v -0.091650 0.073891 0.009556
v -0.087645 0.156294 -0.028554
v -0.087645 0.073891 -0.028554
v -0.068485 0.156294 -0.061741
v -0.068485 0.073891 -0.061741
v -0.037483 0.156294 -0.084265
v -0.037483 0.073891 -0.084265
v -0.000000 0.012343 -0.000488
v -0.171740 0.123672 -0.021503
v -0.155159 0.123672 -0.021503
v -0.146868 0.123672 -0.003962
v -0.155159 0.123672 0.013579
v -0.171740 0.123672 0.013579
v -0.180031 0.123672 -0.003962
v -0.163597 0.193947 -0.003962
v -0.157104 0.187454 0.011944
v -0.144117 0.174467 0.011944
v -0.137623 0.167973 -0.003962
v -0.144117 0.174467 -0.019867
v -0.157104 0.187454 -0.019867
v -0.163597 0.053396 -0.003962
v -0.157104 0.059890 0.011944
v -0.144117 0.072876 0.011944
v -0.137623 0.079370 -0.003962
v -0.144117 0.072876 -0.019867
v -0.157104 0.059890 -0.019867
v -0.093322 0.204912 -0.003962
v -0.093322 0.176267 -0.003962
v -0.093322 0.183429 -0.021503
v -0.093322 0.183429 0.013579
v -0.093322 0.197751 -0.021503
v -0.093322 0.197751 0.013579
v -0.093322 0.050234 -0.021503
v -0.093322 0.071718 -0.003962
v -0.093322 0.064557 -0.021503
v -0.093322 0.043073 -0.003962
v -0.093322 0.050234 0.013579
v -0.093322 0.064557 0.013579
vt 0.476475 0.669398
vt 0.476475 0.738458
vt 0.462663 0.738458
vt 0.462663 0.669397
vt 0.448851 0.738458
vt 0.448851 0.669397
vt 0.435039 0.738458
vt 0.435039 0.669397
vt 0.421227 0.738458
vt 0.421227 0.669397
vt 0.407414 0.738458
vt 0.407414 0.669397
vt 0.393602 0.738458
vt 0.393602 0.669397
vt 0.379790 0.738458
vt 0.379790 0.669397
vt 0.365978 0.738458
vt 0.365978 0.669397
vt 0.352166 0.738458
vt 0.352166 0.669397
vt 0.338353 0.738458
vt 0.338353 0.669397
vt 0.324541 0.738458
vt 0.324541 0.669397
vt 0.310729 0.738458
vt 0.310729 0.669397
vt 0.296917 0.738458
vt 0.296917 0.669397
vt 0.283105 0.738458
vt 0.283105 0.669397
vt 0.269293 0.738458
vt 0.269293 0.669398
vt 0.283105 0.531276
vt 0.283105 0.600337
vt 0.269293 0.600337
vt 0.269293 0.531276
vt 0.296917 0.531276
vt 0.296917 0.600337
vt 0.310729 0.531276
vt 0.310729 0.600337
vt 0.324541 0.531276
vt 0.324541 0.600337
vt 0.338353 0.531276
vt 0.338353 0.600337
vt 0.352166 0.531276
vt 0.352166 0.600337
vt 0.365978 0.531276
vt 0.365978 0.600337
vt 0.379790 0.531276
vt 0.379790 0.600337
vt 0.393602 0.531276
vt 0.393602 0.600337
vt 0.407414 0.531276
vt 0.407414 0.600337
vt 0.421227 0.531276
vt 0.421227 0.600337
vt 0.435039 0.531276
vt 0.435039 0.600337
vt 0.448851 0.531276
vt 0.448851 0.600337
vt 0.462663 0.531276
vt 0.462663 0.600337
vt 0.476475 0.531276
vt 0.476475 0.600337
vt 0.282419 0.629191
vt 0.290874 0.589415
vt 0.380091 0.629562
vt 0.429108 0.544500
vt 0.459328 0.571710
vt 0.429108 0.713882
vt 0.390434 0.726448
vt 0.314776 0.701865
vt 0.290874 0.668967
vt 0.349992 0.536185
vt 0.390434 0.531934
vt 0.475868 0.649523
vt 0.459328 0.686672
vt 0.314776 0.556517
vt 0.475868 0.608859
vt 0.349992 0.722198
vt 0.476475 0.669398
vt 0.462663 0.669397
vt 0.462663 0.738458
vt 0.476475 0.738458
vt 0.448851 0.669397
vt 0.448851 0.738458
vt 0.435039 0.669397
vt 0.435039 0.738458
vt 0.421227 0.669397
vt 0.421227 0.738458
vt 0.407414 0.669397
vt 0.407414 0.738458
vt 0.393602 0.669397
vt 0.393602 0.738458
vt 0.379790 0.669397
vt 0.379790 0.738458
vt 0.365978 0.669397
vt 0.365978 0.738458
vt 0.352166 0.669397
vt 0.352166 0.738458
vt 0.338353 0.669397
vt 0.338353 0.738458
vt 0.324541 0.669397
vt 0.324541 0.738458
vt 0.310729 0.669397
vt 0.310729 0.738458
vt 0.296917 0.669397
vt 0.296917 0.738458
vt 0.283105 0.669397
vt 0.283105 0.738458
vt 0.269293 0.669398
vt 0.269293 0.738458
vt 0.283105 0.531276
vt 0.269293 0.531276
vt 0.269293 0.600337
vt 0.283105 0.600337
vt 0.296917 0.531276
vt 0.296917 0.600337
vt 0.310729 0.531276
vt 0.310729 0.600337
vt 0.324541 0.531276
vt 0.324541 0.600337
vt 0.338353 0.531276
vt 0.338353 0.600337
vt 0.352166 0.531276
vt 0.352166 0.600337
vt 0.365978 0.531276
vt 0.365978 0.600337
vt 0.379790 0.531276
vt 0.379790 0.600337
vt 0.393602 0.531276
vt 0.393602 0.600337
vt 0.407414 0.531276
vt 0.407414 0.600337
vt 0.421227 0.531276
vt 0.421227 0.600337
vt 0.435039 0.531276
vt 0.435039 0.600337
vt 0.448851 0.531276
vt 0.448851 0.600337
vt 0.462663 0.531276
vt 0.462663 0.600337
vt 0.476475 0.531276
vt 0.476475 0.600337
vt 0.292443 0.640265
vt 0.381236 0.639928
vt 0.300129 0.676424
vt 0.425796 0.717256
vt 0.453268 0.692520
vt 0.425796 0.563273
vt 0.390638 0.551850
vt 0.321858 0.574198
vt 0.300129 0.604105
vt 0.353873 0.724815
vt 0.390638 0.728679
vt 0.468304 0.621781
vt 0.453268 0.588009
vt 0.321858 0.706332
vt 0.468304 0.658748
vt 0.353873 0.555714
vt 0.450138 0.642578
vt 0.473230 0.642578
vt 0.473230 0.673368
vt 0.450138 0.673368
vt 0.473230 0.704159
vt 0.450138 0.704159
vt 0.473230 0.734949
vt 0.450138 0.734949
vt 0.450138 0.550207
vt 0.473230 0.550207
vt 0.473230 0.580998
vt 0.450138 0.580998
vt 0.473230 0.611788
vt 0.450138 0.611788
vt 0.311581 0.642578
vt 0.334674 0.642578
vt 0.334674 0.673368
vt 0.311581 0.673368
vt 0.334674 0.704159
vt 0.311581 0.704159
vt 0.334674 0.734949
vt 0.311581 0.734949
vt 0.311581 0.550207
vt 0.334674 0.550207
vt 0.334674 0.580998
vt 0.311581 0.580998
vt 0.334674 0.611788
vt 0.311581 0.611788
vt 0.288489 0.673368
vt 0.288489 0.704159
vt 0.288489 0.611788
vt 0.288489 0.642578
vt 0.288489 0.580998
vt 0.288489 0.550207
vt 0.288489 0.734949
vt 0.357767 0.611788
vt 0.357767 0.642578
vt 0.357767 0.580998
vt 0.357767 0.550207
vt 0.357767 0.704159
vt 0.357767 0.734949
vt 0.357767 0.673368
vn 0.0000 0.0486 -0.9988
vn 0.0000 0.0977 -0.9952
vn 0.4047 0.0978 -0.9092
vn 0.4063 0.0487 -0.9125
vn 0.7395 0.0981 -0.6660
vn 0.7423 0.0488 -0.6683
vn 0.9464 0.0985 -0.3076
vn 0.9499 0.0490 -0.3086
vn 0.9897 0.0989 0.1039
vn 0.9933 0.0492 0.1045
vn 0.8618 0.0993 0.4974
vn 0.8649 0.0494 0.4994
vn 0.5849 0.0997 0.8049
vn 0.5870 0.0496 0.8080
vn 0.2069 0.0998 0.9733
vn 0.2076 0.0497 0.9769
vn -0.2069 0.0998 0.9733
vn -0.2076 0.0497 0.9769
vn -0.5849 0.0997 0.8049
vn -0.5870 0.0496 0.8080
vn -0.8618 0.0993 0.4974
vn -0.8649 0.0494 0.4994
vn -0.9897 0.0989 0.1039
vn -0.9933 0.0492 0.1045
vn -0.9464 0.0985 -0.3076
vn -0.9499 0.0490 -0.3086
vn -0.7395 0.0981 -0.6660
vn -0.7423 0.0488 -0.6683
vn -0.4047 0.0978 -0.9092
vn -0.4063 0.0487 -0.9125
vn -0.4047 -0.0978 -0.9092
vn -0.4063 -0.0487 -0.9125
vn 0.0000 -0.0486 -0.9988
vn 0.0000 -0.0977 -0.9952
vn -0.7395 -0.0981 -0.6660
vn -0.7423 -0.0488 -0.6683
vn -0.9464 -0.0985 -0.3076
vn -0.9499 -0.0490 -0.3086
vn -0.9897 -0.0989 0.1039
vn -0.9933 -0.0492 0.1045
vn -0.8618 -0.0993 0.4974
vn -0.8649 -0.0494 0.4994
vn -0.5849 -0.0997 0.8049
vn -0.5870 -0.0496 0.8080
vn -0.2069 -0.0998 0.9733
vn -0.2076 -0.0497 0.9769
vn 0.2069 -0.0998 0.9733
vn 0.2076 -0.0497 0.9769
vn 0.5849 -0.0997 0.8049
vn 0.5870 -0.0496 0.8080
vn 0.8618 -0.0993 0.4974
vn 0.8649 -0.0494 0.4994
vn 0.9897 -0.0989 0.1039
vn 0.9933 -0.0492 0.1045
vn 0.9464 -0.0985 -0.3076
vn 0.9499 -0.0490 -0.3086
vn 0.7395 -0.0981 -0.6660
vn 0.7423 -0.0488 -0.6683
vn 0.4047 -0.0978 -0.9092
vn 0.4063 -0.0487 -0.9125
vn 0.0000 -1.0000 -0.0000
vn -0.0000 -0.0421 0.9991
vn -0.4064 -0.0422 0.9127
vn -0.4052 -0.0847 0.9103
vn -0.0000 -0.0846 0.9964
vn -0.7425 -0.0423 0.6685
vn -0.7404 -0.0850 0.6668
vn -0.9502 -0.0424 0.3087
vn -0.9476 -0.0853 0.3080
vn -0.9936 -0.0426 -0.1045
vn -0.9909 -0.0857 -0.1040
vn -0.8652 -0.0428 -0.4996
vn -0.8629 -0.0860 -0.4981
vn -0.5872 -0.0430 -0.8083
vn -0.5857 -0.0863 -0.8060
vn -0.2077 -0.0430 -0.9772
vn -0.2072 -0.0865 -0.9745
vn 0.2077 -0.0430 -0.9772
vn 0.2072 -0.0865 -0.9745
vn 0.5872 -0.0430 -0.8083
vn 0.5857 -0.0863 -0.8060
vn 0.8652 -0.0428 -0.4996
vn 0.8629 -0.0860 -0.4981
vn 0.9936 -0.0426 -0.1045
vn 0.9909 -0.0857 -0.1040
vn 0.9502 -0.0424 0.3087
vn 0.9476 -0.0853 0.3080
vn 0.7425 -0.0423 0.6685
vn 0.7404 -0.0850 0.6668
vn 0.4064 -0.0422 0.9127
vn 0.4052 -0.0847 0.9103
vn 0.4046 0.1016 0.9088
vn -0.0000 0.1015 0.9948
vn -0.0000 0.0505 0.9987
vn 0.4062 0.0505 0.9124
vn 0.7392 0.1018 0.6657
vn 0.7422 0.0506 0.6682
vn 0.9460 0.1022 0.3075
vn 0.9498 0.0508 0.3086
vn 0.9893 0.1027 -0.1038
vn 0.9932 0.0511 -0.1045
vn 0.8615 0.1031 -0.4972
vn 0.8649 0.0513 -0.4994
vn 0.5847 0.1035 -0.8046
vn 0.5870 0.0515 -0.8080
vn 0.2068 0.1037 -0.9729
vn 0.2076 0.0515 -0.9769
vn -0.2068 0.1037 -0.9729
vn -0.2076 0.0515 -0.9769
vn -0.5847 0.1035 -0.8046
vn -0.5870 0.0515 -0.8080
vn -0.8615 0.1031 -0.4972
vn -0.8649 0.0513 -0.4994
vn -0.9893 0.1027 -0.1038
vn -0.9932 0.0511 -0.1045
vn -0.9460 0.1022 0.3075
vn -0.9498 0.0508 0.3086
vn -0.7392 0.1018 0.6657
vn -0.7422 0.0506 0.6682
vn -0.4046 0.1016 0.9088
vn -0.4062 0.0505 0.9124
vn 0.0000 1.0000 0.0000
vn -0.1484 0.9052 0.3983
vn -0.0264 -0.0126 0.9996
vn -0.0069 0.0074 0.9999
vn -0.0077 0.0065 0.9999
vn 0.1570 -0.9033 0.3993
vn 0.1570 -0.9033 -0.3993
vn -0.0264 -0.0126 -0.9996
vn -0.0077 0.0065 -0.9999
vn -0.0069 0.0074 -0.9999
vn -0.1484 0.9052 -0.3983
vn -0.8986 -0.0000 0.4387
vn -0.8788 -0.2089 0.4290
vn 0.0114 0.0000 0.9999
vn -0.0068 -0.0074 0.9999
vn -0.0078 -0.0064 0.9999
vn 0.9009 0.0000 0.4341
vn 0.8859 0.1816 0.4268
vn 0.9009 -0.0000 -0.4341
vn 0.8859 0.1816 -0.4268
vn 0.0114 -0.0000 -0.9999
vn -0.0078 -0.0064 -0.9999
vn -0.0068 -0.0074 -0.9999
vn -0.8986 -0.0000 -0.4387
vn -0.8788 -0.2089 -0.4290
vn -0.8788 0.2089 -0.4290
vn 0.8859 -0.1816 -0.4268
vn 0.8859 -0.1816 0.4268
vn -0.8788 0.2089 0.4290
vn -0.1400 -0.9069 -0.3974
vn -0.0266 0.0126 -0.9996
vn 0.1453 0.9058 -0.3980
vn 0.1453 0.9058 0.3980
vn -0.0266 0.0126 0.9996
vn -0.1400 -0.9069 0.3974
usemtl MAT_Atlas
s 1
f 32/1/1 2/2/2 4/3/3 33/4/4
f 33/4/4 4/3/3 6/5/5 35/6/6
f 35/6/6 6/5/5 8/7/7 37/8/8
f 37/8/8 8/7/7 10/9/9 39/10/10
f 39/10/10 10/9/9 12/11/11 41/12/12
f 41/12/12 12/11/11 14/13/13 43/14/14
f 43/14/14 14/13/13 16/15/15 45/16/16
f 45/16/16 16/15/15 18/17/17 47/18/18
f 47/18/18 18/17/17 20/19/19 49/20/20
f 49/20/20 20/19/19 22/21/21 51/22/22
f 51/22/22 22/21/21 24/23/23 53/24/24
f 53/24/24 24/23/23 26/25/25 55/26/26
f 55/26/26 26/25/25 28/27/27 57/28/28
f 57/28/28 28/27/27 30/29/29 59/30/30
f 59/30/30 30/29/29 2/31/2 32/32/1
f 29/33/31 60/34/32 31/35/33 1/36/34
f 60/34/32 59/30/30 32/32/1 31/35/33
f 27/37/35 58/38/36 60/34/32 29/33/31
f 58/38/36 57/28/28 59/30/30 60/34/32
f 25/39/37 56/40/38 58/38/36 27/37/35
f 56/40/38 55/26/26 57/28/28 58/38/36
f 23/41/39 54/42/40 56/40/38 25/39/37
f 54/42/40 53/24/24 55/26/26 56/40/38
f 21/43/41 52/44/42 54/42/40 23/41/39
f 52/44/42 51/22/22 53/24/24 54/42/40
f 19/45/43 50/46/44 52/44/42 21/43/41
f 50/46/44 49/20/20 51/22/22 52/44/42
f 17/47/45 48/48/46 50/46/44 19/45/43
f 48/48/46 47/18/18 49/20/20 50/46/44
f 15/49/47 46/50/48 48/48/46 17/47/45
f 46/50/48 45/16/16 47/18/18 48/48/46
f 13/51/49 44/52/50 46/50/48 15/49/47
f 44/52/50 43/14/14 45/16/16 46/50/48
f 11/53/51 42/54/52 44/52/50 13/51/49
f 42/54/52 41/12/12 43/14/14 44/52/50
f 9/55/53 40/56/54 42/54/52 11/53/51
f 40/56/54 39/10/10 41/12/12 42/54/52
f 7/57/55 38/58/56 40/56/54 9/55/53
f 38/58/56 37/8/8 39/10/10 40/56/54
f 5/59/57 36/60/58 38/58/56 7/57/55
f 36/60/58 35/6/6 37/8/8 38/58/56
f 3/61/59 34/62/60 36/60/58 5/59/57
f 34/62/60 33/4/4 35/6/6 36/60/58
f 1/63/34 31/64/33 34/62/60 3/61/59
f 31/64/33 32/1/1 33/4/4 34/62/60
f 7/65/61 9/66/61 61/67/61
f 17/68/61 19/69/61 61/67/61
f 27/70/61 29/71/61 61/67/61
f 3/72/61 5/73/61 61/67/61
f 13/74/61 15/75/61 61/67/61
f 23/76/61 25/77/61 61/67/61
f 9/66/61 11/78/61 61/67/61
f 19/69/61 21/79/61 61/67/61
f 29/71/61 1/80/61 61/67/61
f 5/73/61 7/65/61 61/67/61
f 15/75/61 17/68/61 61/67/61
f 25/77/61 27/70/61 61/67/61
f 1/80/61 3/72/61 61/67/61
f 11/78/61 13/74/61 61/67/61
f 21/79/61 23/76/61 61/67/61
f 93/81/62 94/82/63 65/83/64 63/84/65
f 94/82/63 96/85/66 67/86/67 65/83/64
f 96/85/66 98/87/68 69/88/69 67/86/67
f 98/87/68 100/89/70 71/90/71 69/88/69
f 100/89/70 102/91/72 73/92/73 71/90/71
f 102/91/72 104/93/74 75/94/75 73/92/73
f 104/93/74 106/95/76 77/96/77 75/94/75
f 106/95/76 108/97/78 79/98/79 77/96/77
f 108/97/78 110/99/80 81/100/81 79/98/79
f 110/99/80 112/101/82 83/102/83 81/100/81
f 112/101/82 114/103/84 85/104/85 83/102/83
f 114/103/84 116/105/86 87/106/87 85/104/85
f 116/105/86 118/107/88 89/108/89 87/106/87
f 118/107/88 120/109/90 91/110/91 89/108/89
f 120/109/90 93/111/62 63/112/65 91/110/91
f 90/113/92 62/114/93 92/115/94 121/116/95
f 121/116/95 92/115/94 93/111/62 120/109/90
f 88/117/96 90/113/92 121/116/95 119/118/97
f 119/118/97 121/116/95 120/109/90 118/107/88
f 86/119/98 88/117/96 119/118/97 117/120/99
f 117/120/99 119/118/97 118/107/88 116/105/86
f 84/121/100 86/119/98 117/120/99 115/122/101
f 115/122/101 117/120/99 116/105/86 114/103/84
f 82/123/102 84/121/100 115/122/101 113/124/103
f 113/124/103 115/122/101 114/103/84 112/101/82
f 80/125/104 82/123/102 113/124/103 111/126/105
f 111/126/105 113/124/103 112/101/82 110/99/80
f 78/127/106 80/125/104 111/126/105 109/128/107
f 109/128/107 111/126/105 110/99/80 108/97/78
f 76/129/108 78/127/106 109/128/107 107/130/109
f 107/130/109 109/128/107 108/97/78 106/95/76
f 74/131/110 76/129/108 107/130/109 105/132/111
f 105/132/111 107/130/109 106/95/76 104/93/74
f 72/133/112 74/131/110 105/132/111 103/134/113
f 103/134/113 105/132/111 104/93/74 102/91/72
f 70/135/114 72/133/112 103/134/113 101/136/115
f 101/136/115 103/134/113 102/91/72 100/89/70
f 68/137/116 70/135/114 101/136/115 99/138/117
f 99/138/117 101/136/115 100/89/70 98/87/68
f 66/139/118 68/137/116 99/138/117 97/140/119
f 97/140/119 99/138/117 98/87/68 96/85/66
f 64/141/120 66/139/118 97/140/119 95/142/121
f 95/142/121 97/140/119 96/85/66 94/82/63
f 62/143/93 64/141/120 95/142/121 92/144/94
f 92/144/94 95/142/121 94/82/63 93/81/62
f 68/145/122 122/146/122 70/147/122
f 78/148/122 122/146/122 80/149/122
f 88/150/122 122/146/122 90/151/122
f 64/152/122 122/146/122 66/153/122
f 74/154/122 122/146/122 76/155/122
f 84/156/122 122/146/122 86/157/122
f 70/147/122 122/146/122 72/158/122
f 80/149/122 122/146/122 82/159/122
f 90/151/122 122/146/122 62/160/122
f 66/153/122 122/146/122 68/145/122
f 76/155/122 122/146/122 78/148/122
f 86/157/122 122/146/122 88/150/122
f 62/160/122 122/146/122 64/152/122
f 72/158/122 122/146/122 74/154/122
f 82/159/122 122/146/122 84/156/122
f 30/29/122 91/110/122 63/112/122 2/31/122
f 6/5/122 67/86/122 69/88/122 8/7/122
f 16/15/122 77/96/122 79/98/122 18/17/122
f 26/25/122 87/106/122 89/108/122 28/27/122
f 2/2/122 63/84/122 65/83/122 4/3/122
f 12/11/122 73/92/122 75/94/122 14/13/122
f 22/21/122 83/102/122 85/104/122 24/23/122
f 8/7/122 69/88/122 71/90/122 10/9/122
f 18/17/122 79/98/122 81/100/122 20/19/122
f 28/27/122 89/108/122 91/110/122 30/29/122
f 4/3/122 65/83/122 67/86/122 6/5/122
f 14/13/122 75/94/122 77/96/122 16/15/122
f 24/23/122 85/104/122 87/106/122 26/25/122
f 10/9/122 71/90/122 73/92/122 12/11/122
f 20/19/122 81/100/122 83/102/122 22/21/122
f 141/161/123 129/162/123 130/163/123 146/164/123
f 146/164/124 130/163/125 131/165/126 144/166/124
f 144/166/127 131/165/127 132/167/127 142/168/127
f 142/169/128 132/170/128 133/171/128 143/172/128
f 143/172/129 133/171/130 134/173/131 145/174/129
f 145/174/132 134/173/132 129/162/132 141/161/132
f 128/175/133 135/176/134 136/177/134 127/178/133
f 127/178/135 136/177/136 137/179/137 126/180/135
f 126/180/138 137/179/139 138/181/139 125/182/138
f 125/183/140 138/184/141 139/185/141 124/186/140
f 124/186/142 139/185/143 140/187/144 123/188/142
f 123/188/145 140/187/146 135/176/146 128/175/145
f 130/189/125 127/178/135 126/180/135 131/190/126
f 134/191/147 123/188/145 128/175/145 129/192/147
f 133/193/130 124/186/142 123/188/142 134/191/131
f 132/194/148 125/183/140 124/186/140 133/193/148
f 131/190/149 126/180/138 125/182/138 132/195/149
f 129/192/150 128/175/133 127/178/133 130/189/150
f 140/187/151 147/196/151 150/197/151 135/176/151
f 139/185/143 149/198/152 147/196/152 140/187/144
f 138/184/153 148/199/153 149/198/153 139/185/153
f 137/179/154 152/200/154 148/201/154 138/181/154
f 136/177/136 151/202/155 152/200/155 137/179/137
f 135/176/156 150/197/156 151/202/156 136/177/156
